<?xml version="1.0" encoding="UTF-8" standalone="no"?>
<!-- Generator: Adobe Illustrator 16.0.0, SVG Export Plug-In . SVG Version: 6.00 Build 0)  -->

<svg
   xmlns:dc="http://purl.org/dc/elements/1.1/"
   xmlns:cc="http://creativecommons.org/ns#"
   xmlns:rdf="http://www.w3.org/1999/02/22-rdf-syntax-ns#"
   xmlns:svg="http://www.w3.org/2000/svg"
   xmlns="http://www.w3.org/2000/svg"
   xmlns:xlink="http://www.w3.org/1999/xlink"
   xmlns:sodipodi="http://sodipodi.sourceforge.net/DTD/sodipodi-0.dtd"
   xmlns:inkscape="http://www.inkscape.org/namespaces/inkscape"
   version="1.1"
   x="0px"
   y="0px"
   width="500px"
   height="500px"
   viewBox="0 0 500 500"
   enable-background="new 0 0 500 500"
   xml:space="preserve"
   id="svg4712"
   inkscape:version="0.48.4 r9939"
   sodipodi:docname="altoel@2x.svg"><metadata
   id="metadata4745"><rdf:RDF><cc:Work
       rdf:about=""><dc:format>image/svg+xml</dc:format><dc:type
         rdf:resource="http://purl.org/dc/dcmitype/StillImage" /></cc:Work></rdf:RDF></metadata><defs
   id="defs4743" /><sodipodi:namedview
   pagecolor="#ffffff"
   bordercolor="#666666"
   borderopacity="1"
   objecttolerance="10"
   gridtolerance="10"
   guidetolerance="10"
   inkscape:pageopacity="0"
   inkscape:pageshadow="2"
   inkscape:window-width="640"
   inkscape:window-height="480"
   id="namedview4741"
   showgrid="false"
   inkscape:zoom="0.472"
   inkscape:cx="250"
   inkscape:cy="250"
   inkscape:window-x="0"
   inkscape:window-y="0"
   inkscape:window-maximized="0"
   inkscape:current-layer="svg4712" />
<g
   id="bg"
   transform="matrix(1.7682433,0,0,1.7682433,-189.7849,-190.23222)">
	<path
   d="m 385.533,341.896 c 0,23.922 -19.396,43.318 -43.313,43.318 H 157.638 c -23.922,0 -43.314,-19.396 -43.314,-43.318 V 157.314 C 114.324,133.392 133.716,114 157.638,114 H 342.22 c 23.917,0 43.313,19.392 43.313,43.314 v 184.582 z"
   id="path4715"
   inkscape:connector-curvature="0"
   style="fill:#ffffff" />
	<g
   id="g4717">
		<defs
   id="defs4719">
			<path
   id="SVGID_1_"
   d="m 385.533,341.896 c 0,23.922 -19.396,43.318 -43.313,43.318 H 157.638 c -23.922,0 -43.314,-19.396 -43.314,-43.318 V 157.314 C 114.324,133.392 133.716,114 157.638,114 H 342.22 c 23.917,0 43.313,19.392 43.313,43.314 v 184.582 z"
   inkscape:connector-curvature="0" />
		</defs>
		<clipPath
   id="SVGID_2_">
			<use
   xlink:href="#SVGID_1_"
   overflow="visible"
   id="use4723"
   style="overflow:visible"
   x="0"
   y="0"
   width="500"
   height="500" />
		</clipPath>
		<ellipse
   clip-path="url(#SVGID_2_)"
   cx="250.634"
   cy="376.95099"
   rx="204.146"
   ry="82.195"
   id="ellipse4725"
   sodipodi:cx="250.634"
   sodipodi:cy="376.95099"
   sodipodi:rx="204.146"
   sodipodi:ry="82.195"
   style="fill:#f5f5f5"
   d="m 454.78,376.95099 c 0,45.39504 -91.39928,82.195 -204.146,82.195 -112.74672,0 -204.145993,-36.79996 -204.145993,-82.195 0,-45.39505 91.399273,-82.195 204.145993,-82.195 112.74672,0 204.146,36.79995 204.146,82.195 z" />
	</g>
	<path
   d="M 342.22,390.252 H 157.638 c -26.666,0 -48.357,-21.688 -48.357,-48.356 V 157.314 c 0,-26.661 21.691,-48.355 48.357,-48.355 H 342.22 c 26.663,0 48.356,21.694 48.356,48.355 v 184.581 c 0,26.668 -21.693,48.357 -48.356,48.357 z M 157.638,119.043 c -21.103,0 -38.271,17.168 -38.271,38.271 v 184.581 c 0,21.103 17.168,38.275 38.271,38.275 H 342.22 c 21.099,0 38.271,-17.173 38.271,-38.275 V 157.314 c 0,-21.103 -17.172,-38.271 -38.271,-38.271 H 157.638 z"
   id="path4727"
   inkscape:connector-curvature="0"
   style="fill:#28a745" />
</g>
<g
   id="Layer_2"
   transform="matrix(1.7682433,0,0,1.7682433,-189.7849,-190.23222)">
</g>
<g
   id="Layer_3"
   transform="matrix(1.7682433,0,0,1.7682433,-189.7849,-190.23222)">
	<rect
   x="183.875"
   y="143.18201"
   width="20.398001"
   height="18.915001"
   id="rect4731"
   style="fill:#28a745" />
	<rect
   x="209.838"
   y="143.55099"
   width="3.3410001"
   height="18.546"
   id="rect4733"
   style="fill:#28a745" />
	<path
   d="m 243.862,198.822 c -1.713,-3.81 -9.738,-18.555 -32.599,-22.486 v -4.52 h 3.155 v -6.221 h -30.445 v 6.221 h 3.356 v 4.498 c -23.451,3.875 -31.163,18.578 -32.83,22.521 -3.666,1.801 -6.217,5.536 -6.217,9.888 0,3.119 1.312,5.926 3.399,7.938 -2.087,2.012 -3.399,4.82 -3.399,7.939 0,3.12 1.312,5.926 3.399,7.938 -2.087,2.012 -3.399,4.822 -3.399,7.941 0,6.091 4.957,11.046 11.053,11.046 h 3.767 v 16.698 h -3.767 c -6.096,0 -11.053,4.954 -11.053,11.045 0,3.121 1.312,5.931 3.399,7.942 -2.087,2.01 -3.399,4.816 -3.399,7.937 0,3.121 1.312,5.93 3.399,7.941 -2.087,2.01 -3.399,4.817 -3.399,7.938 0,4.342 2.545,8.069 6.196,9.873 -0.146,0.188 -0.295,0.383 -0.416,0.567 -7.047,10.72 2.43,33.433 3.538,35.989 l 0.808,1.877 h 81.251 l 0.79,-1.938 c 7.071,-17.361 8.347,-29.601 3.778,-36.39 -0.049,-0.073 -0.104,-0.125 -0.152,-0.197 3.563,-1.835 6.026,-5.509 6.026,-9.782 0,-3.12 -1.312,-5.928 -3.396,-7.938 2.083,-2.012 3.396,-4.821 3.396,-7.941 0,-3.12 -1.312,-5.927 -3.396,-7.937 2.083,-2.012 3.396,-4.821 3.396,-7.942 0,-6.091 -4.957,-11.045 -11.043,-11.045 h -3.767 v -16.698 h 3.767 c 6.086,0 11.043,-4.955 11.043,-11.046 0,-3.119 -1.312,-5.929 -3.396,-7.941 2.083,-2.012 3.396,-4.818 3.396,-7.938 0,-3.119 -1.312,-5.927 -3.396,-7.939 2.083,-2.012 3.396,-4.819 3.396,-7.938 0,-4.359 -2.56,-8.105 -6.239,-9.9 z m -50.313,-27.006 h 11.493 v 3.769 c -1.807,-0.137 -3.685,-0.219 -5.659,-0.219 -2.035,0 -3.967,0.082 -5.834,0.219 v -3.769 z m 5.835,9.771 c 22.352,0 32.596,10.125 36.684,16.074 h -73.882 c 3.912,-5.913 14.011,-16.074 37.198,-16.074 z m 36.076,171.527 h -72.919 c -2.712,-6.998 -7.287,-22.142 -3.281,-28.229 0.751,-1.142 2.19,-2.66 6.075,-2.66 h 70.246 c 0.018,0 2.036,0.097 3.481,2.254 1.82,2.699 3.688,9.98 -3.602,28.635 z m 3.597,-37.261 h -79.723 c -2.664,0 -4.833,-2.164 -4.833,-4.825 0,-2.663 2.169,-4.828 4.833,-4.828 h 79.723 c 2.661,0 4.823,2.165 4.823,4.828 0,2.66 -2.162,4.825 -4.823,4.825 z m 0,-15.874 h -79.723 c -2.664,0 -4.833,-2.169 -4.833,-4.831 0,-2.661 2.169,-4.826 4.833,-4.826 h 79.723 c 2.661,0 4.823,2.165 4.823,4.826 0,2.663 -2.162,4.831 -4.823,4.831 z m 0,-25.534 c 2.661,0 4.823,2.164 4.823,4.824 0,2.665 -2.162,4.833 -4.823,4.833 h -79.723 c -2.664,0 -4.833,-2.168 -4.833,-4.833 0,-2.66 2.169,-4.824 4.833,-4.824 h 3.767 v 0.291 h 72.19 v -0.291 h 3.766 z m -69.737,-6.22 v -16.698 h 59.75 v 16.698 h -59.75 z m 69.737,-22.918 h -3.767 -72.19 -3.767 c -2.664,0 -4.833,-2.166 -4.833,-4.826 0,-2.664 2.169,-4.831 4.833,-4.831 h 79.723 c 2.661,0 4.823,2.167 4.823,4.831 0.001,2.66 -2.161,4.826 -4.822,4.826 z m 0,-15.878 h -79.723 c -2.664,0 -4.833,-2.164 -4.833,-4.828 0,-2.664 2.169,-4.828 4.833,-4.828 h 79.723 c 2.661,0 4.823,2.164 4.823,4.828 0,2.664 -2.162,4.828 -4.823,4.828 z m 0,-15.877 h -79.723 c -2.664,0 -4.833,-2.166 -4.833,-4.828 0,-2.664 2.169,-4.829 4.833,-4.829 h 79.723 c 2.661,0 4.823,2.166 4.823,4.829 0,2.662 -2.162,4.828 -4.823,4.828 z"
   id="path4735"
   inkscape:connector-curvature="0"
   style="fill:#28a745" />
	<path
   d="m 323.466,295.165 v -2.714 h 4.189 v -16.196 h -12.732 l -4.367,-113.146 c 0,0 -0.845,-1.242 -2.15,0.907 -1.185,1.94 -3.543,94.256 -3.986,112.24 h -12.695 v 16.196 h 4.191 v 2.714 c -19.104,6.132 -32.498,24.247 -33.701,45.426 h -0.121 v 3.11 3.11 13.033 h 95.197 v -13.033 -3.11 -3.11 h -0.115 c -1.213,-21.18 -14.605,-39.295 -33.71,-45.427 z m -25.522,-12.689 h 23.49 v 3.551 h -23.49 v -3.551 z m 1.87,18.028 2.321,-0.612 v -7.44 h 15.11 v 7.44 l 2.317,0.612 c 17.607,4.645 30.176,20.883 31.409,40.087 h -82.56 c 1.232,-19.204 13.8,-35.443 31.403,-40.087 z m 51.256,53.121 h -82.758 v -6.813 h 82.758 v 6.813 z"
   id="path4737"
   inkscape:connector-curvature="0"
   style="fill:#28a745" />
	<path
   d="m 293.455,192.104 c 3.411,-3.405 4.544,-8.575 6.02,-12.998 1.695,-5.067 4.088,-10.287 5.333,-13.699 -8.838,7.373 -19.729,4.104 -27.305,12.422 -10.035,11.006 5.059,25.162 15.952,14.275 z"
   id="path4739"
   inkscape:connector-curvature="0"
   style="fill:#28a745" />
</g>
</svg>