<?xml version="1.0" encoding="UTF-8" standalone="no"?>
<!-- Generator: Adobe Illustrator 16.0.0, SVG Export Plug-In . SVG Version: 6.00 Build 0)  -->

<svg
   xmlns:dc="http://purl.org/dc/elements/1.1/"
   xmlns:cc="http://creativecommons.org/ns#"
   xmlns:rdf="http://www.w3.org/1999/02/22-rdf-syntax-ns#"
   xmlns:svg="http://www.w3.org/2000/svg"
   xmlns="http://www.w3.org/2000/svg"
   xmlns:xlink="http://www.w3.org/1999/xlink"
   xmlns:sodipodi="http://sodipodi.sourceforge.net/DTD/sodipodi-0.dtd"
   xmlns:inkscape="http://www.inkscape.org/namespaces/inkscape"
   version="1.1"
   x="0px"
   y="0px"
   width="500px"
   height="500px"
   viewBox="0 0 500 500"
   enable-background="new 0 0 500 500"
   xml:space="preserve"
   id="svg4782"
   inkscape:version="0.48.4 r9939"
   sodipodi:docname="aluminium@2x.svg"><metadata
   id="metadata4815"><rdf:RDF><cc:Work
       rdf:about=""><dc:format>image/svg+xml</dc:format><dc:type
         rdf:resource="http://purl.org/dc/dcmitype/StillImage" /></cc:Work></rdf:RDF></metadata><defs
   id="defs4813" /><sodipodi:namedview
   pagecolor="#ffffff"
   bordercolor="#666666"
   borderopacity="1"
   objecttolerance="10"
   gridtolerance="10"
   guidetolerance="10"
   inkscape:pageopacity="0"
   inkscape:pageshadow="2"
   inkscape:window-width="640"
   inkscape:window-height="480"
   id="namedview4811"
   showgrid="false"
   inkscape:zoom="0.472"
   inkscape:cx="250"
   inkscape:cy="250"
   inkscape:window-x="0"
   inkscape:window-y="0"
   inkscape:window-maximized="0"
   inkscape:current-layer="svg4782" />
<g
   id="bg"
   transform="matrix(1.7682433,0,0,1.7682433,-190.36118,-189.639)">
	<path
   d="m 385.533,341.896 c 0,23.922 -19.396,43.318 -43.313,43.318 H 157.638 c -23.922,0 -43.314,-19.396 -43.314,-43.318 V 157.314 C 114.324,133.392 133.716,114 157.638,114 H 342.22 c 23.917,0 43.313,19.392 43.313,43.314 v 184.582 z"
   id="path4785"
   inkscape:connector-curvature="0"
   style="fill:#ffffff" />
	<g
   id="g4787">
		<defs
   id="defs4789">
			<path
   id="SVGID_1_"
   d="m 385.533,341.896 c 0,23.922 -19.396,43.318 -43.313,43.318 H 157.638 c -23.922,0 -43.314,-19.396 -43.314,-43.318 V 157.314 C 114.324,133.392 133.716,114 157.638,114 H 342.22 c 23.917,0 43.313,19.392 43.313,43.314 v 184.582 z"
   inkscape:connector-curvature="0" />
		</defs>
		<clipPath
   id="SVGID_2_">
			<use
   xlink:href="#SVGID_1_"
   overflow="visible"
   id="use4793"
   style="overflow:visible"
   x="0"
   y="0"
   width="500"
   height="500" />
		</clipPath>
		<ellipse
   clip-path="url(#SVGID_2_)"
   cx="250.634"
   cy="376.95099"
   rx="204.146"
   ry="82.195"
   id="ellipse4795"
   sodipodi:cx="250.634"
   sodipodi:cy="376.95099"
   sodipodi:rx="204.146"
   sodipodi:ry="82.195"
   style="fill:#f5f5f5"
   d="m 454.78,376.95099 c 0,45.39504 -91.39928,82.195 -204.146,82.195 -112.74672,0 -204.145993,-36.79996 -204.145993,-82.195 0,-45.39505 91.399273,-82.195 204.145993,-82.195 112.74672,0 204.146,36.79995 204.146,82.195 z" />
	</g>
	<path
   d="M 342.22,390.252 H 157.638 c -26.666,0 -48.357,-21.688 -48.357,-48.356 V 157.314 c 0,-26.661 21.691,-48.355 48.357,-48.355 H 342.22 c 26.663,0 48.356,21.694 48.356,48.355 v 184.581 c 0,26.668 -21.693,48.357 -48.356,48.357 z M 157.638,119.043 c -21.103,0 -38.271,17.168 -38.271,38.271 v 184.581 c 0,21.103 17.168,38.275 38.271,38.275 H 342.22 c 21.099,0 38.271,-17.173 38.271,-38.275 V 157.314 c 0,-21.103 -17.172,-38.271 -38.271,-38.271 H 157.638 z"
   id="path4797"
   inkscape:connector-curvature="0"
   style="fill:#28a745" />
</g>
<g
   id="Layer_2"
   transform="matrix(1.7682433,0,0,1.7682433,-190.36118,-189.639)">
</g>
<g
   id="Layer_3"
   transform="matrix(1.7682433,0,0,1.7682433,-190.36118,-189.639)">
	<path
   d="m 313.372,208.54 c 7.093,12.06 11.18,26.185 11.18,41.266 0,44.172 -35.033,80.104 -78.092,80.104 -17.643,0 -33.922,-6.05 -47.013,-16.201 l 7.96,-9.089 h -36.992 l 0.408,41.741 10.413,-11.881 c 17.949,14.576 40.606,23.31 65.224,23.31 58.047,0 105.275,-48.441 105.275,-107.984 0,-20.096 -5.378,-38.926 -14.736,-55.058 l -23.627,13.792 z"
   id="path4801"
   inkscape:connector-curvature="0"
   style="fill:#28a745" />
	<path
   d="m 168.364,249.806 c 0,-44.171 35.034,-80.104 78.094,-80.104 18.099,0 34.78,6.362 48.036,17.006 l -8.576,9.974 h 37.402 l -0.412,-43.006 -10.421,12.117 c -18.071,-14.974 -41.044,-23.973 -66.029,-23.973 -58.047,0 -105.273,48.443 -105.273,107.986 0,19.742 5.19,38.266 14.245,54.207 l 24.22,-12.758 c -7.158,-12.102 -11.286,-26.292 -11.286,-41.449 z"
   id="path4803"
   inkscape:connector-curvature="0"
   style="fill:#28a745" />
	<path
   d="m 219.322,246.935 c 0,0 -10.86,1.589 -13.365,2.324 -2.505,0.734 -12.405,4.405 -12.528,13.707 -0.119,9.304 7.274,13.832 14.558,13.832 7.278,0 11.794,-2.547 13.246,-4.038 0.359,-0.367 1.076,0.733 1.191,0.979 0.121,0.247 0.24,2.573 2.862,2.573 l 9.311,-0.123 c 0,0 1.433,-0.49 0.359,-2.326 -1.077,-1.834 -0.839,-3.672 -0.839,-5.877 v -21.787 c 0,0 0.956,-15.914 -17.781,-16.036 -18.732,-0.121 -19.687,10.161 -20.167,16.281 h 10.864 c 0,0 0.117,-5.386 5.009,-6.121 0,0 4.171,-0.858 7.04,0.49 0.001,0 5.967,4.043 0.24,6.122 z m 2.389,13.459 c -0.119,2.087 -0.839,5.512 -8.594,6.737 0,0 -6.684,0.483 -6.922,-4.165 0,0 -1.552,-3.916 6.682,-6.242 l 8.714,-1.471 c 0.001,0 0.241,3.061 0.12,5.141 z"
   id="path4805"
   inkscape:connector-curvature="0"
   style="fill:#28a745" />
	<rect
   x="239.798"
   y="214.739"
   width="13.953"
   height="61.327999"
   id="rect4807"
   style="fill:#28a745" />
	<path
   d="m 269.674,276.243 c 9.19,2.978 16.353,-3.703 16.353,-3.703 l 0.711,2.864 h 12.057 v -44.147 h -12.89 c 0,0 0.122,11.214 0.122,23.025 0,11.811 -6.563,10.623 -6.563,10.623 -7.642,0.354 -7.279,-6.921 -7.279,-6.921 l -0.479,-26.728 H 259.18 l 0.119,24.576 c -0.242,8.235 -0.357,16.926 10.375,20.411 z"
   id="path4809"
   inkscape:connector-curvature="0"
   style="fill:#28a745" />
</g>
</svg>