<?xml version="1.0" encoding="UTF-8" standalone="no"?>
<!-- Generator: Adobe Illustrator 16.0.0, SVG Export Plug-In . SVG Version: 6.00 Build 0)  -->

<svg
   xmlns:dc="http://purl.org/dc/elements/1.1/"
   xmlns:cc="http://creativecommons.org/ns#"
   xmlns:rdf="http://www.w3.org/1999/02/22-rdf-syntax-ns#"
   xmlns:svg="http://www.w3.org/2000/svg"
   xmlns="http://www.w3.org/2000/svg"
   xmlns:xlink="http://www.w3.org/1999/xlink"
   xmlns:sodipodi="http://sodipodi.sourceforge.net/DTD/sodipodi-0.dtd"
   xmlns:inkscape="http://www.inkscape.org/namespaces/inkscape"
   version="1.1"
   x="0px"
   y="0px"
   width="500px"
   height="500px"
   viewBox="0 0 500 500"
   enable-background="new 0 0 500 500"
   xml:space="preserve"
   id="svg5400"
   inkscape:version="0.48.4 r9939"
   sodipodi:docname="auto@2x.svg"><metadata
   id="metadata5431"><rdf:RDF><cc:Work
       rdf:about=""><dc:format>image/svg+xml</dc:format><dc:type
         rdf:resource="http://purl.org/dc/dcmitype/StillImage" /></cc:Work></rdf:RDF></metadata><defs
   id="defs5429" /><sodipodi:namedview
   pagecolor="#ffffff"
   bordercolor="#666666"
   borderopacity="1"
   objecttolerance="10"
   gridtolerance="10"
   guidetolerance="10"
   inkscape:pageopacity="0"
   inkscape:pageshadow="2"
   inkscape:window-width="640"
   inkscape:window-height="480"
   id="namedview5427"
   showgrid="false"
   inkscape:zoom="0.472"
   inkscape:cx="250"
   inkscape:cy="250"
   inkscape:window-x="0"
   inkscape:window-y="0"
   inkscape:window-maximized="0"
   inkscape:current-layer="svg5400" />
<g
   id="Layer_1"
   transform="matrix(1.7682433,0,0,1.7682433,-190.00524,-189.639)">
	<g
   id="bg">
		<path
   d="m 385.533,341.896 c 0,23.922 -19.396,43.317 -43.313,43.317 H 157.638 c -23.922,0 -43.314,-19.396 -43.314,-43.317 V 157.314 C 114.324,133.392 133.716,114 157.638,114 H 342.22 c 23.917,0 43.313,19.392 43.313,43.314 v 184.582 z"
   id="path5404"
   inkscape:connector-curvature="0"
   style="fill:#ffffff" />
		<g
   id="g5406">
			<g
   id="g5408">
				<defs
   id="defs5410">
					<path
   id="SVGID_1_"
   d="m 385.533,341.896 c 0,23.922 -19.396,43.317 -43.313,43.317 H 157.638 c -23.922,0 -43.314,-19.396 -43.314,-43.317 V 157.314 C 114.324,133.392 133.716,114 157.638,114 H 342.22 c 23.917,0 43.313,19.392 43.313,43.314 v 184.582 z"
   inkscape:connector-curvature="0" />
				</defs>
				<clipPath
   id="SVGID_2_">
					<use
   xlink:href="#SVGID_1_"
   overflow="visible"
   id="use5414"
   style="overflow:visible"
   x="0"
   y="0"
   width="500"
   height="500" />
				</clipPath>
				<ellipse
   clip-path="url(#SVGID_2_)"
   cx="250.634"
   cy="376.95099"
   rx="204.146"
   ry="82.195"
   id="ellipse5416"
   sodipodi:cx="250.634"
   sodipodi:cy="376.95099"
   sodipodi:rx="204.146"
   sodipodi:ry="82.195"
   style="fill:#f5f5f5"
   d="m 454.78,376.95099 c 0,45.39504 -91.39928,82.195 -204.146,82.195 -112.74672,0 -204.145993,-36.79996 -204.145993,-82.195 0,-45.39505 91.399273,-82.195 204.145993,-82.195 112.74672,0 204.146,36.79995 204.146,82.195 z" />
			</g>
		</g>
		<path
   d="M 342.22,390.252 H 157.638 c -26.666,0 -48.357,-21.688 -48.357,-48.355 V 157.314 c 0,-26.661 21.691,-48.355 48.357,-48.355 H 342.22 c 26.663,0 48.356,21.694 48.356,48.355 v 184.581 c 0,26.667 -21.693,48.357 -48.356,48.357 z M 157.638,119.043 c -21.103,0 -38.271,17.168 -38.271,38.271 v 184.581 c 0,21.104 17.168,38.275 38.271,38.275 H 342.22 c 21.1,0 38.271,-17.173 38.271,-38.275 V 157.314 c 0,-21.103 -17.172,-38.271 -38.271,-38.271 H 157.638 z"
   id="path5418"
   inkscape:connector-curvature="0"
   style="fill:#28a745" />
	</g>
	<g
   id="Layer_2">
	</g>
</g>
<g
   id="Layer_2_1_"
   transform="matrix(1.7682433,0,0,1.7682433,-190.00524,-189.639)">
</g>
<g
   id="Layer_3"
   transform="matrix(1.7682433,0,0,1.7682433,-190.00524,-189.639)">
	<path
   d="m 365.557,236.328 -47.989,-46.28 c -16.37,-18.647 -41.669,-29.058 -66.359,-29.33 -49.998,-0.562 -88.491,39.086 -89.192,90.704 l -25.709,6.502 c 0,0 -3.321,1.659 -1.072,4.201 2.246,2.54 38.36,36.72 38.36,36.72 24.242,25.5 42.871,38.444 76.903,40.155 49.145,2.466 91.135,-39.877 90.286,-91.279 0,0 17.937,-4.413 23.488,-6.126 5.556,-1.708 1.284,-5.267 1.284,-5.267 z m -182.626,56.549 -30.544,-29.114 39.834,-10.534 -9.29,39.648 z m 68.515,34.618 c -23.84,-0.092 -46.071,-12.017 -59.188,-27.235 10.948,-46.821 10.948,-46.821 12.527,-54.224 1.597,-7.484 -4.371,-4.453 -4.371,-4.453 l -26.571,6.806 c 0.463,-42.363 37.125,-76.679 77.594,-76.042 21.187,0.328 43.634,10.325 58.147,26.89 l -12.987,54.443 c -1.1,5.722 4.031,4.208 4.031,4.208 l 27.742,-6.891 c 0,43.023 -36.401,76.672 -76.924,76.498 z m 58.401,-81.974 9.166,-39.666 30.504,29.585 -39.67,10.081 z"
   id="path5423"
   inkscape:connector-curvature="0"
   style="fill:#28a745" />
	<path
   d="m 282.244,216.775 h -18.512 v 9.287 h -25.295 v -9.287 h -18.511 v 9.287 h -7.1 v 49.19 h 76.319 v -49.19 h -6.901 v -9.287 z m -45.8,27.027 h -4.687 -0.377 v 0.277 4.779 h -4.417 v -4.622 -0.434 h -5.061 v -4.424 h 4.557 0.504 v -0.48 -4.582 h 4.417 v 4.701 0.361 h 0.34 4.724 v 4.424 z m 43.754,0.178 H 265.78 v -4.774 h 14.418 v 4.774 z"
   id="path5425"
   inkscape:connector-curvature="0"
   style="fill:#28a745" />
</g>
</svg>