<?xml version="1.0" encoding="UTF-8" standalone="no"?>
<!-- Generator: Adobe Illustrator 16.0.0, SVG Export Plug-In . SVG Version: 6.00 Build 0)  -->

<svg
   xmlns:dc="http://purl.org/dc/elements/1.1/"
   xmlns:cc="http://creativecommons.org/ns#"
   xmlns:rdf="http://www.w3.org/1999/02/22-rdf-syntax-ns#"
   xmlns:svg="http://www.w3.org/2000/svg"
   xmlns="http://www.w3.org/2000/svg"
   xmlns:xlink="http://www.w3.org/1999/xlink"
   xmlns:sodipodi="http://sodipodi.sourceforge.net/DTD/sodipodi-0.dtd"
   xmlns:inkscape="http://www.inkscape.org/namespaces/inkscape"
   version="1.1"
   x="0px"
   y="0px"
   width="500px"
   height="500px"
   viewBox="0 0 500 500"
   enable-background="new 0 0 500 500"
   xml:space="preserve"
   id="svg5179"
   inkscape:version="0.48.4 r9939"
   sodipodi:docname="batterien@2x.svg"><metadata
   id="metadata5212"><rdf:RDF><cc:Work
       rdf:about=""><dc:format>image/svg+xml</dc:format><dc:type
         rdf:resource="http://purl.org/dc/dcmitype/StillImage" /></cc:Work></rdf:RDF></metadata><defs
   id="defs5210" /><sodipodi:namedview
   pagecolor="#ffffff"
   bordercolor="#666666"
   borderopacity="1"
   objecttolerance="10"
   gridtolerance="10"
   guidetolerance="10"
   inkscape:pageopacity="0"
   inkscape:pageshadow="2"
   inkscape:window-width="640"
   inkscape:window-height="480"
   id="namedview5208"
   showgrid="false"
   inkscape:zoom="0.472"
   inkscape:cx="250"
   inkscape:cy="250"
   inkscape:window-x="0"
   inkscape:window-y="0"
   inkscape:window-maximized="0"
   inkscape:current-layer="svg5179" />
<g
   id="Layer_1"
   transform="matrix(1.7682433,0,0,1.7682433,-189.76796,-189.75764)">
	<g
   id="bg">
		<path
   d="m 385.533,341.896 c 0,23.922 -19.396,43.317 -43.313,43.317 H 157.638 c -23.922,0 -43.314,-19.396 -43.314,-43.317 V 157.314 C 114.324,133.392 133.716,114 157.638,114 H 342.22 c 23.917,0 43.313,19.392 43.313,43.314 v 184.582 z"
   id="path5183"
   inkscape:connector-curvature="0"
   style="fill:#ffffff" />
		<g
   id="g5185">
			<g
   id="g5187">
				<defs
   id="defs5189">
					<path
   id="SVGID_1_"
   d="m 385.533,341.896 c 0,23.922 -19.396,43.317 -43.313,43.317 H 157.638 c -23.922,0 -43.314,-19.396 -43.314,-43.317 V 157.314 C 114.324,133.392 133.716,114 157.638,114 H 342.22 c 23.917,0 43.313,19.392 43.313,43.314 v 184.582 z"
   inkscape:connector-curvature="0" />
				</defs>
				<clipPath
   id="SVGID_2_">
					<use
   xlink:href="#SVGID_1_"
   overflow="visible"
   id="use5193"
   style="overflow:visible"
   x="0"
   y="0"
   width="500"
   height="500" />
				</clipPath>
				<ellipse
   clip-path="url(#SVGID_2_)"
   cx="250.634"
   cy="376.95099"
   rx="204.146"
   ry="82.195"
   id="ellipse5195"
   sodipodi:cx="250.634"
   sodipodi:cy="376.95099"
   sodipodi:rx="204.146"
   sodipodi:ry="82.195"
   style="fill:#f5f5f5"
   d="m 454.78,376.95099 c 0,45.39504 -91.39928,82.195 -204.146,82.195 -112.74672,0 -204.145993,-36.79996 -204.145993,-82.195 0,-45.39505 91.399273,-82.195 204.145993,-82.195 112.74672,0 204.146,36.79995 204.146,82.195 z" />
			</g>
		</g>
		<path
   d="M 342.22,390.252 H 157.638 c -26.666,0 -48.357,-21.688 -48.357,-48.355 V 157.314 c 0,-26.661 21.691,-48.355 48.357,-48.355 H 342.22 c 26.663,0 48.356,21.694 48.356,48.355 v 184.581 c 0,26.667 -21.693,48.357 -48.356,48.357 z M 157.638,119.043 c -21.103,0 -38.271,17.168 -38.271,38.271 v 184.581 c 0,21.104 17.168,38.275 38.271,38.275 H 342.22 c 21.1,0 38.271,-17.173 38.271,-38.275 V 157.314 c 0,-21.103 -17.172,-38.271 -38.271,-38.271 H 157.638 z"
   id="path5197"
   inkscape:connector-curvature="0"
   style="fill:#28a745" />
	</g>
	<g
   id="Layer_2">
	</g>
</g>
<g
   id="Layer_2_1_"
   transform="matrix(1.7682433,0,0,1.7682433,-189.76796,-189.75764)">
</g>
<g
   id="Layer_3"
   transform="matrix(1.7682433,0,0,1.7682433,-189.76796,-189.75764)">
	<path
   d="m 364.179,235.879 -48.345,-46.625 c -16.499,-18.787 -41.986,-29.277 -66.858,-29.551 -50.371,-0.565 -89.152,39.378 -89.858,91.382 l -25.896,6.551 c 0,0 -3.352,1.674 -1.086,4.238 2.266,2.556 38.646,36.988 38.646,36.988 24.423,25.693 43.191,38.73 77.478,40.455 49.516,2.49 91.817,-40.172 90.964,-91.959 0,0 18.065,-4.446 23.657,-6.172 5.599,-1.721 1.298,-5.307 1.298,-5.307 z m -183.988,56.976 -30.775,-29.335 40.131,-10.616 -9.356,39.951 z m 69.023,34.878 c -24.018,-0.094 -46.411,-12.114 -59.63,-27.442 11.031,-47.176 11.031,-47.176 12.621,-54.631 1.609,-7.54 -4.398,-4.487 -4.398,-4.487 l -26.77,6.857 c 0.46,-42.679 37.402,-77.252 78.168,-76.612 21.343,0.332 43.958,10.403 58.581,27.091 l -13.082,54.85 c -1.111,5.765 4.059,4.239 4.059,4.239 l 27.949,-6.94 c 0,43.346 -36.674,77.25 -77.498,77.075 z m 58.836,-82.591 9.234,-39.962 30.732,29.806 -39.966,10.156 z"
   id="path5202"
   inkscape:connector-curvature="0"
   style="fill:#28a745" />
	<path
   d="m 266.169,189.182 c -34.33,-8.471 -43.201,24.29 -43.201,24.29 0,0 -6.262,26.801 -13.271,58.86 -7.016,32.052 20.909,39.316 20.909,39.316 32.435,8.267 40.069,-22.914 40.069,-22.914 0,0 17.688,-57.538 18.154,-58.856 4.64,-13.024 -4.375,-36.192 -22.66,-40.696 z m -24.837,113.329 -13.825,-3.515 1.59,-6.004 13.71,3.623 -1.475,5.896 z m 12.284,-40.612 -4.199,-1.019 -1.238,4.417 -6.01,-1.699 1.024,-4.077 -4.42,-1.134 1.357,-6.006 4.419,1.021 1.021,-4.53 6.121,1.472 -1.024,4.304 4.312,1.251 -1.363,6 z m 22.441,-24.38 c -8.571,7.167 -20.405,6.887 -27.29,4.885 -6.894,-2.006 -13.274,-7.139 -17.663,-16.533 -4.374,-9.391 1.133,-16.781 1.133,-16.781 5.254,-10.142 14.024,-12.771 14.024,-12.771 17.906,-5.633 28.924,4.009 33.686,12.771 4.756,8.767 4.507,21.414 -3.89,28.429 z"
   id="path5204"
   inkscape:connector-curvature="0"
   style="fill:#28a745" />
	<path
   d="m 261.285,203.833 c -10.927,-2.473 -14.146,6.511 -14.146,6.511 l -0.884,2.756 c 0,0 -1.096,4.479 -1.625,6.387 -0.628,2.253 0,10.268 7.766,12.395 11.582,3.176 14.647,-5.884 14.647,-5.884 0,0 1.873,-6.792 2.387,-8.892 1.747,-7.141 -4.26,-12.398 -8.145,-13.273 z m 1.14,20.09 c -0.165,0.366 -2.801,5.375 -8.232,3.428 -5.429,-1.951 -4.583,-6.543 -4.483,-7.118 0,0 5.489,5.587 12.551,3.371 -0.001,0 0.313,-0.055 0.164,0.319 z m -3.86,-4.801 c 0,0 -4.164,-0.05 -6.269,-3.746 0,0 -2.112,-3.058 1.846,-5.905 0.152,-0.051 1.74,-1.477 5.325,-0.686 0,0 5.272,1.426 5.217,5.852 -0.049,4.435 -4.475,4.59 -6.119,4.485 z"
   id="path5206"
   inkscape:connector-curvature="0"
   style="fill:#28a745" />
</g>
</svg>