<?xml version="1.0" encoding="UTF-8" standalone="no"?>
<!-- Generator: Adobe Illustrator 16.0.0, SVG Export Plug-In . SVG Version: 6.00 Build 0)  -->

<svg
   xmlns:dc="http://purl.org/dc/elements/1.1/"
   xmlns:cc="http://creativecommons.org/ns#"
   xmlns:rdf="http://www.w3.org/1999/02/22-rdf-syntax-ns#"
   xmlns:svg="http://www.w3.org/2000/svg"
   xmlns="http://www.w3.org/2000/svg"
   xmlns:xlink="http://www.w3.org/1999/xlink"
   xmlns:sodipodi="http://sodipodi.sourceforge.net/DTD/sodipodi-0.dtd"
   xmlns:inkscape="http://www.inkscape.org/namespaces/inkscape"
   version="1.1"
   x="0px"
   y="0px"
   width="500px"
   height="500px"
   viewBox="0 0 500 500"
   enable-background="new 0 0 500 500"
   xml:space="preserve"
   id="svg5307"
   inkscape:version="0.48.4 r9939"
   sodipodi:docname="biogene@2x.svg"><metadata
   id="metadata5342"><rdf:RDF><cc:Work
       rdf:about=""><dc:format>image/svg+xml</dc:format><dc:type
         rdf:resource="http://purl.org/dc/dcmitype/StillImage" /></cc:Work></rdf:RDF></metadata><defs
   id="defs5340" /><sodipodi:namedview
   pagecolor="#ffffff"
   bordercolor="#666666"
   borderopacity="1"
   objecttolerance="10"
   gridtolerance="10"
   guidetolerance="10"
   inkscape:pageopacity="0"
   inkscape:pageshadow="2"
   inkscape:window-width="640"
   inkscape:window-height="480"
   id="namedview5338"
   showgrid="false"
   inkscape:zoom="0.472"
   inkscape:cx="250"
   inkscape:cy="250"
   inkscape:window-x="0"
   inkscape:window-y="0"
   inkscape:window-maximized="0"
   inkscape:current-layer="svg5307" />
<g
   id="Layer_1"
   transform="matrix(1.7682433,0,0,1.7682433,-190.12389,-189.639)">
	<g
   id="bg">
		<path
   d="m 385.533,341.896 c 0,23.922 -19.396,43.317 -43.313,43.317 H 157.638 c -23.922,0 -43.314,-19.396 -43.314,-43.317 V 157.314 C 114.324,133.392 133.716,114 157.638,114 H 342.22 c 23.917,0 43.313,19.392 43.313,43.314 v 184.582 z"
   id="path5311"
   inkscape:connector-curvature="0"
   style="fill:#ffffff" />
		<g
   id="g5313">
			<g
   id="g5315">
				<defs
   id="defs5317">
					<path
   id="SVGID_1_"
   d="m 385.533,341.896 c 0,23.922 -19.396,43.317 -43.313,43.317 H 157.638 c -23.922,0 -43.314,-19.396 -43.314,-43.317 V 157.314 C 114.324,133.392 133.716,114 157.638,114 H 342.22 c 23.917,0 43.313,19.392 43.313,43.314 v 184.582 z"
   inkscape:connector-curvature="0" />
				</defs>
				<clipPath
   id="SVGID_2_">
					<use
   xlink:href="#SVGID_1_"
   overflow="visible"
   id="use5321"
   style="overflow:visible"
   x="0"
   y="0"
   width="500"
   height="500" />
				</clipPath>
				<ellipse
   clip-path="url(#SVGID_2_)"
   cx="250.634"
   cy="376.95099"
   rx="204.146"
   ry="82.195"
   id="ellipse5323"
   sodipodi:cx="250.634"
   sodipodi:cy="376.95099"
   sodipodi:rx="204.146"
   sodipodi:ry="82.195"
   style="fill:#f5f5f5"
   d="m 454.78,376.95099 c 0,45.39504 -91.39928,82.195 -204.146,82.195 -112.74672,0 -204.145993,-36.79996 -204.145993,-82.195 0,-45.39505 91.399273,-82.195 204.145993,-82.195 112.74672,0 204.146,36.79995 204.146,82.195 z" />
			</g>
		</g>
		<path
   d="M 342.22,390.252 H 157.638 c -26.666,0 -48.357,-21.688 -48.357,-48.355 V 157.314 c 0,-26.661 21.691,-48.355 48.357,-48.355 H 342.22 c 26.663,0 48.356,21.694 48.356,48.355 v 184.581 c 0,26.667 -21.693,48.357 -48.356,48.357 z M 157.638,119.043 c -21.103,0 -38.271,17.168 -38.271,38.271 v 184.581 c 0,21.104 17.168,38.275 38.271,38.275 H 342.22 c 21.1,0 38.271,-17.173 38.271,-38.275 V 157.314 c 0,-21.103 -17.172,-38.271 -38.271,-38.271 H 157.638 z"
   id="path5325"
   inkscape:connector-curvature="0"
   style="fill:#28a745" />
	</g>
	<g
   id="Layer_2">
	</g>
</g>
<g
   id="Layer_2_1_"
   transform="matrix(1.7682433,0,0,1.7682433,-190.12389,-189.639)">
</g>
<g
   id="Layer_3"
   transform="matrix(1.7682433,0,0,1.7682433,-190.12389,-189.639)">
	<path
   d="m 361.257,204.391 c -3.472,0.869 -24.03,16.726 -27.085,21.106 -1.009,1.45 -1.738,3.544 -2.099,5.825 -4.25,-0.245 -16.967,-0.62 -33.116,-1.047 0.509,-7.376 1.771,-15.18 2.089,-16.525 1.661,-6.954 3.227,-10.162 4.283,-11.929 1.671,-2.79 1.081,-2.348 -0.927,-0.816 0,0 -2.66,3.347 -5.249,12.16 -0.97,3.323 -1.906,10.699 -2.247,17.058 -6.09,-0.164 -12.616,-0.327 -19.311,-0.495 0.696,-8.562 2.08,-17.091 2.444,-18.647 2.061,-8.62 4.001,-12.592 5.312,-14.782 2.065,-3.453 1.335,-2.905 -1.152,-1.003 0,0 -3.295,4.145 -6.493,15.055 -1.114,3.799 -2.189,11.896 -2.685,19.31 -7.025,-0.178 -14.19,-0.355 -21.23,-0.533 0.576,-11.468 2.703,-24.712 3.208,-26.84 2.415,-10.128 4.696,-14.796 6.233,-17.36 2.43,-4.063 1.575,-3.419 -1.345,-1.186 0,0 -3.876,4.865 -7.636,17.691 -1.565,5.326 -3.063,17.85 -3.409,27.618 -8.616,-0.221 -16.962,-0.432 -24.482,-0.639 0.812,-13.341 3.693,-28.646 4.379,-31.109 3.304,-11.833 6.426,-17.283 8.529,-20.285 3.328,-4.744 2.152,-3.995 -1.844,-1.383 0,0 -5.302,5.686 -10.45,20.669 -2.123,6.171 -4.159,20.626 -4.649,31.998 -10.022,-0.279 -18.22,-0.533 -23.137,-0.74 0.273,-13.878 1.479,-27.239 3.813,-33.078 4.917,-12.294 7.223,-26.96 -5.734,-22.945 -23.157,7.169 -68.644,39.542 -68.644,50.198 0,10.656 39.263,48.335 55.932,59.645 15.372,10.43 20.904,0.595 16.942,-15.344 -1.618,-6.512 -2.458,-20.438 -2.363,-34.509 5.019,0.154 13.192,0.394 23.085,0.677 -0.029,3.261 0.101,6.123 0.451,8.178 2.987,17.452 12.294,38.519 14.753,42.616 2.458,4.101 3.621,2.987 1.383,-1.1 -2.228,-4.067 -11.449,-30.658 -12.447,-41.785 -0.211,-2.324 -0.24,-4.985 -0.164,-7.799 7.549,0.221 15.92,0.451 24.574,0.691 0.005,2.439 0.101,4.572 0.331,6.157 2.186,14.935 8.99,32.972 10.786,36.478 1.796,3.511 2.642,2.555 1.009,-0.941 -1.628,-3.477 -8.366,-26.239 -9.096,-35.767 -0.135,-1.758 -0.173,-3.75 -0.14,-5.849 7.017,0.192 14.152,0.384 21.149,0.562 -0.13,3.578 -0.086,6.747 0.216,8.817 1.858,12.716 7.646,28.064 9.173,31.052 1.536,2.981 2.257,2.17 0.864,-0.803 -1.383,-2.963 -7.122,-22.335 -7.741,-30.446 -0.192,-2.468 -0.163,-5.441 0,-8.558 6.762,0.173 13.321,0.336 19.459,0.48 -0.02,1.945 0.038,3.678 0.211,4.898 1.503,10.268 6.176,22.663 7.41,25.073 1.234,2.411 1.82,1.753 0.696,-0.648 -1.119,-2.392 -5.753,-18.032 -6.253,-24.578 -0.105,-1.398 -0.124,-3.006 -0.076,-4.697 16.034,0.365 28.674,0.586 33.078,0.49 0.028,2.934 0.677,5.839 2.199,7.866 2.459,3.285 20.122,21.211 21.51,22.253 1.983,1.484 7.804,2.229 4.951,-4.461 -1.475,-3.472 -6.436,-12.375 -5.82,-25.025 0.682,-13.936 5.59,-22.148 7.309,-24.031 5.453,-5.944 0.723,-7.298 -0.737,-6.938 z"
   id="path5330"
   inkscape:connector-curvature="0"
   style="fill:#28a745" />
	<path
   clip-rule="evenodd"
   d="m 347.521,298.405 c -0.237,-7.642 -5.333,-13.896 -12.133,-10.079 -2.402,1.348 -3.709,3.954 -6.096,5.344 -2.191,1.273 -4.928,1.438 -7.485,1.436 -5.186,-0.02 -11.214,-1.981 -12.766,4.159 -1.061,4.19 5.06,6.854 3.567,10.889 -0.474,1.256 -1.922,2.183 -3.111,2.971 -2.959,1.952 -5.159,3.631 -7.351,6.4 -4.106,5.188 -4.397,7.609 -2.961,10.871 1.553,3.541 7.37,6.868 12.2,5.204 5.788,-1.992 5.238,-6.24 11.68,-8.446 5.44,-1.854 7.096,2.13 9.132,5.392 3.847,6.15 11.319,5.91 16.406,0.574 1.656,-1.737 4.485,-5.54 3.924,-8.026 -0.45,-2.007 -3.494,-3.216 -4.974,-4.583 -5.188,-4.779 3.533,-6.499 8.102,-8.257 4.376,-1.678 11.415,-5.135 9.089,-11.366 -0.802,-2.137 -6.366,-4.051 -8.608,-3.309 -3.179,1.059 -8.522,3.785 -8.615,0.826 z"
   id="path5332"
   inkscape:connector-curvature="0"
   style="fill:#28a745;fill-rule:evenodd" />
	<path
   clip-rule="evenodd"
   d="m 284.854,302.847 c 5.621,0 10.182,2.807 10.182,6.269 0,3.455 -4.561,6.262 -10.182,6.262 -5.629,0 -10.189,-2.807 -10.189,-6.262 0,-3.463 4.561,-6.269 10.189,-6.269 z"
   id="path5334"
   inkscape:connector-curvature="0"
   style="fill:#28a745;fill-rule:evenodd" />
	<path
   clip-rule="evenodd"
   d="m 231.875,306.229 c 2.494,0 4.516,2.044 4.516,4.567 0,2.518 -2.022,4.56 -4.516,4.56 -2.494,0 -4.517,-2.042 -4.517,-4.56 0,-2.523 2.023,-4.567 4.517,-4.567 z"
   id="path5336"
   inkscape:connector-curvature="0"
   style="fill:#28a745;fill-rule:evenodd" />
</g>
</svg>