<?xml version="1.0" encoding="UTF-8" standalone="no"?>
<!-- Generator: Adobe Illustrator 16.0.0, SVG Export Plug-In . SVG Version: 6.00 Build 0)  -->

<svg
   xmlns:dc="http://purl.org/dc/elements/1.1/"
   xmlns:cc="http://creativecommons.org/ns#"
   xmlns:rdf="http://www.w3.org/1999/02/22-rdf-syntax-ns#"
   xmlns:svg="http://www.w3.org/2000/svg"
   xmlns="http://www.w3.org/2000/svg"
   xmlns:xlink="http://www.w3.org/1999/xlink"
   xmlns:sodipodi="http://sodipodi.sourceforge.net/DTD/sodipodi-0.dtd"
   xmlns:inkscape="http://www.inkscape.org/namespaces/inkscape"
   version="1.1"
   x="0px"
   y="0px"
   width="500px"
   height="500px"
   viewBox="0 0 500 500"
   enable-background="new 0 0 500 500"
   xml:space="preserve"
   id="svg5553"
   inkscape:version="0.48.4 r9939"
   sodipodi:docname="cd@2x.svg"><metadata
   id="metadata5584"><rdf:RDF><cc:Work
       rdf:about=""><dc:format>image/svg+xml</dc:format><dc:type
         rdf:resource="http://purl.org/dc/dcmitype/StillImage" /></cc:Work></rdf:RDF></metadata><defs
   id="defs5582" /><sodipodi:namedview
   pagecolor="#ffffff"
   bordercolor="#666666"
   borderopacity="1"
   objecttolerance="10"
   gridtolerance="10"
   guidetolerance="10"
   inkscape:pageopacity="0"
   inkscape:pageshadow="2"
   inkscape:window-width="640"
   inkscape:window-height="480"
   id="namedview5580"
   showgrid="false"
   inkscape:zoom="0.472"
   inkscape:cx="250"
   inkscape:cy="250"
   inkscape:window-x="0"
   inkscape:window-y="0"
   inkscape:window-maximized="0"
   inkscape:current-layer="svg5553" />
<g
   id="Layer_1"
   transform="matrix(1.7682433,0,0,1.7682433,-190.00524,-189.639)">
	<g
   id="bg">
		<path
   d="m 385.533,341.896 c 0,23.922 -19.396,43.317 -43.313,43.317 H 157.638 c -23.922,0 -43.314,-19.396 -43.314,-43.317 V 157.314 C 114.324,133.392 133.716,114 157.638,114 H 342.22 c 23.917,0 43.313,19.392 43.313,43.314 v 184.582 z"
   id="path5557"
   inkscape:connector-curvature="0"
   style="fill:#ffffff" />
		<g
   id="g5559">
			<g
   id="g5561">
				<defs
   id="defs5563">
					<path
   id="SVGID_1_"
   d="m 385.533,341.896 c 0,23.922 -19.396,43.317 -43.313,43.317 H 157.638 c -23.922,0 -43.314,-19.396 -43.314,-43.317 V 157.314 C 114.324,133.392 133.716,114 157.638,114 H 342.22 c 23.917,0 43.313,19.392 43.313,43.314 v 184.582 z"
   inkscape:connector-curvature="0" />
				</defs>
				<clipPath
   id="SVGID_2_">
					<use
   xlink:href="#SVGID_1_"
   overflow="visible"
   id="use5567"
   style="overflow:visible"
   x="0"
   y="0"
   width="500"
   height="500" />
				</clipPath>
				<ellipse
   clip-path="url(#SVGID_2_)"
   cx="250.634"
   cy="376.95099"
   rx="204.146"
   ry="82.195"
   id="ellipse5569"
   sodipodi:cx="250.634"
   sodipodi:cy="376.95099"
   sodipodi:rx="204.146"
   sodipodi:ry="82.195"
   style="fill:#f5f5f5"
   d="m 454.78,376.95099 c 0,45.39504 -91.39928,82.195 -204.146,82.195 -112.74672,0 -204.145993,-36.79996 -204.145993,-82.195 0,-45.39505 91.399273,-82.195 204.145993,-82.195 112.74672,0 204.146,36.79995 204.146,82.195 z" />
			</g>
		</g>
		<path
   d="M 342.22,390.252 H 157.638 c -26.666,0 -48.357,-21.688 -48.357,-48.355 V 157.314 c 0,-26.661 21.691,-48.355 48.357,-48.355 H 342.22 c 26.663,0 48.356,21.694 48.356,48.355 v 184.581 c 0,26.667 -21.693,48.357 -48.356,48.357 z M 157.638,119.043 c -21.103,0 -38.271,17.168 -38.271,38.271 v 184.581 c 0,21.104 17.168,38.275 38.271,38.275 H 342.22 c 21.1,0 38.271,-17.173 38.271,-38.275 V 157.314 c 0,-21.103 -17.172,-38.271 -38.271,-38.271 H 157.638 z"
   id="path5571"
   inkscape:connector-curvature="0"
   style="fill:#28a745" />
	</g>
	<g
   id="Layer_2">
	</g>
</g>
<g
   id="Layer_2_1_"
   transform="matrix(1.7682433,0,0,1.7682433,-190.00524,-189.639)">
</g>
<g
   id="Layer_3"
   transform="matrix(1.7682433,0,0,1.7682433,-190.00524,-189.639)">
	<path
   d="m 348.884,213.854 c -4.798,-12.98 -12.006,-24.715 -21.427,-34.88 -9.405,-10.142 -20.537,-18.221 -33.1,-24.013 -6.485,-2.972 -13.297,-5.293 -20.272,-6.907 -7.651,-1.724 -15.451,-2.597 -23.46,-2.597 -12.399,0 -24.546,2.162 -36.104,6.429 -13.009,4.812 -24.75,12.019 -34.897,21.422 -10.155,9.419 -18.227,20.548 -23.989,33.089 -2.982,6.52 -5.305,13.348 -6.905,20.315 -1.727,7.718 -2.603,15.574 -2.603,23.354 0,12.415 2.166,24.592 6.438,36.19 4.779,12.967 11.979,24.701 21.398,34.872 9.38,10.141 20.514,18.22 33.086,24.01 6.521,3.001 13.352,5.326 20.306,6.913 7.649,1.737 15.505,2.62 23.355,2.62 12.419,0 24.596,-2.17 36.198,-6.438 12.994,-4.802 24.732,-12.011 34.892,-21.424 10.155,-9.401 18.228,-20.536 23.997,-33.087 6.229,-13.48 9.519,-28.574 9.519,-43.656 0,-12.212 -2.076,-24.159 -6.19,-35.521 l -0.242,-0.691 z M 185.037,179.145 c 4.036,-3.738 8.359,-7.076 12.916,-10.049 l 34.969,54.132 c -2.953,1.963 -5.544,4.411 -7.706,7.21 -10.439,-7.844 -43.871,-32.963 -51.539,-38.721 3.399,-4.482 7.176,-8.695 11.36,-12.572 z m 65.696,96.768 c -14.268,0 -25.877,-11.599 -25.877,-25.848 0,-14.255 11.609,-25.854 25.877,-25.854 14.254,0 25.848,11.599 25.848,25.854 0,14.249 -11.594,25.848 -25.848,25.848 z m 33.418,64.846 c -17.48,6.438 -36.783,7.675 -55.026,3.526 -6.417,-1.466 -12.726,-3.612 -18.745,-6.385 -11.622,-5.35 -21.905,-12.811 -30.574,-22.182 -8.704,-9.401 -15.356,-20.237 -19.771,-32.22 -3.946,-10.708 -5.947,-21.96 -5.947,-33.434 0,-7.195 0.812,-14.467 2.409,-21.592 1.474,-6.421 3.62,-12.735 6.376,-18.756 1.03,-2.247 2.166,-4.426 3.357,-6.571 l 56.564,30.896 c -2.726,4.726 -4.308,10.187 -4.308,16.023 0,17.765 14.466,32.22 32.246,32.22 7.932,0 15.194,-2.9 20.816,-7.675 l 42.668,48.271 c -8.878,7.758 -18.972,13.78 -30.065,17.879 z m 54.414,-50.37 c -3.569,7.775 -8.126,14.941 -13.546,21.446 l -49.978,-40.692 c 4.91,-5.653 7.908,-13.018 7.908,-21.078 0,-17.771 -14.456,-32.224 -32.217,-32.224 -3.521,0 -6.901,0.585 -10.074,1.633 l -18.297,-61.817 c 9.137,-2.801 18.653,-4.238 28.535,-4.238 7.146,0 14.362,0.809 21.416,2.397 6.431,1.487 12.729,3.637 18.717,6.38 11.606,5.35 21.897,12.815 30.584,22.189 8.55,9.22 15.124,19.837 19.549,31.567 l 0.249,0.67 c 3.942,10.683 5.941,21.933 5.941,33.441 0.001,13.941 -3.037,27.875 -8.787,40.326 z"
   id="path5576"
   inkscape:connector-curvature="0"
   style="fill:#28a745" />
	<path
   d="m 250.733,235.315 c -8.138,0 -14.759,6.616 -14.759,14.75 0,8.123 6.622,14.732 14.759,14.732 8.11,0 14.713,-6.609 14.713,-14.732 0,-8.134 -6.602,-14.75 -14.713,-14.75 z m 0,21.519 c -3.748,0 -6.796,-3.036 -6.796,-6.769 0,-3.742 3.048,-6.787 6.796,-6.787 3.725,0 6.75,3.044 6.75,6.787 0,3.733 -3.025,6.769 -6.75,6.769 z"
   id="path5578"
   inkscape:connector-curvature="0"
   style="fill:#28a745" />
</g>
</svg>