<?xml version="1.0" encoding="UTF-8" standalone="no"?>
<!-- Generator: Adobe Illustrator 16.0.0, SVG Export Plug-In . SVG Version: 6.00 Build 0)  -->

<svg
   xmlns:dc="http://purl.org/dc/elements/1.1/"
   xmlns:cc="http://creativecommons.org/ns#"
   xmlns:rdf="http://www.w3.org/1999/02/22-rdf-syntax-ns#"
   xmlns:svg="http://www.w3.org/2000/svg"
   xmlns="http://www.w3.org/2000/svg"
   xmlns:xlink="http://www.w3.org/1999/xlink"
   xmlns:sodipodi="http://sodipodi.sourceforge.net/DTD/sodipodi-0.dtd"
   xmlns:inkscape="http://www.inkscape.org/namespaces/inkscape"
   version="1.1"
   x="0px"
   y="0px"
   width="500px"
   height="500px"
   viewBox="0 0 500 500"
   enable-background="new 0 0 500 500"
   xml:space="preserve"
   id="svg3570"
   inkscape:version="0.48.4 r9939"
   sodipodi:docname="elektrogeraete_haushalt@2x.svg"><metadata
   id="metadata3624"><rdf:RDF><cc:Work
       rdf:about=""><dc:format>image/svg+xml</dc:format><dc:type
         rdf:resource="http://purl.org/dc/dcmitype/StillImage" /></cc:Work></rdf:RDF></metadata><defs
   id="defs3622" /><sodipodi:namedview
   pagecolor="#ffffff"
   bordercolor="#666666"
   borderopacity="1"
   objecttolerance="10"
   gridtolerance="10"
   guidetolerance="10"
   inkscape:pageopacity="0"
   inkscape:pageshadow="2"
   inkscape:window-width="858"
   inkscape:window-height="610"
   id="namedview3620"
   showgrid="false"
   inkscape:zoom="0.472"
   inkscape:cx="250"
   inkscape:cy="250"
   inkscape:window-x="0"
   inkscape:window-y="0"
   inkscape:window-maximized="0"
   inkscape:current-layer="svg3570" />
<g
   id="Layer_1"
   transform="matrix(1.7682397,0,0,1.7682354,-193.235,-190.05917)">
	<g
   id="Layer_1_1_">
		<g
   id="bg">
			<path
   d="m 385.533,341.896 c 0,23.922 -19.396,43.317 -43.313,43.317 H 157.638 c -23.922,0 -43.313,-19.396 -43.313,-43.317 V 157.314 C 114.325,133.392 133.717,114 157.638,114 H 342.22 c 23.917,0 43.313,19.393 43.313,43.314 v 184.582 z"
   id="path3575"
   inkscape:connector-curvature="0"
   style="fill:#ffffff" />
			<g
   id="g3577">
				<g
   id="g3579">
					<g
   id="g3581">
						<defs
   id="defs3583">
							<path
   id="SVGID_1_"
   d="m 385.533,341.896 c 0,23.922 -19.396,43.317 -43.313,43.317 H 157.638 c -23.922,0 -43.313,-19.396 -43.313,-43.317 V 157.314 C 114.325,133.392 133.717,114 157.638,114 H 342.22 c 23.917,0 43.313,19.393 43.313,43.314 v 184.582 z"
   inkscape:connector-curvature="0" />
						</defs>
						<clipPath
   id="SVGID_2_">
							<use
   xlink:href="#SVGID_1_"
   overflow="visible"
   id="use3587"
   style="overflow:visible"
   x="0"
   y="0"
   width="500"
   height="500" />
						</clipPath>
						<ellipse
   clip-path="url(#SVGID_2_)"
   cx="250.634"
   cy="376.95099"
   rx="204.146"
   ry="82.195"
   id="ellipse3589"
   sodipodi:cx="250.634"
   sodipodi:cy="376.95099"
   sodipodi:rx="204.146"
   sodipodi:ry="82.195"
   style="fill:#f5f5f5"
   d="m 454.78,376.95099 c 0,45.39504 -91.39928,82.195 -204.146,82.195 -112.74672,0 -204.145993,-36.79996 -204.145993,-82.195 0,-45.39505 91.399273,-82.195 204.145993,-82.195 112.74672,0 204.146,36.79995 204.146,82.195 z" />
					</g>
				</g>
			</g>
			<path
   d="M 342.22,390.253 H 157.638 c -26.666,0 -48.357,-21.688 -48.357,-48.355 V 157.314 c 0,-26.661 21.691,-48.355 48.357,-48.355 H 342.22 c 26.663,0 48.356,21.694 48.356,48.355 v 184.581 c 0,26.667 -21.693,48.358 -48.356,48.358 z M 157.638,119.043 c -21.103,0 -38.271,17.168 -38.271,38.271 v 184.581 c 0,21.104 17.168,38.275 38.271,38.275 H 342.22 c 21.1,0 38.271,-17.174 38.271,-38.275 V 157.314 c 0,-21.104 -17.173,-38.271 -38.271,-38.271 H 157.638 z"
   id="path3591"
   inkscape:connector-curvature="0"
   style="fill:#28a745" />
		</g>
		<g
   id="Layer_2">
		</g>
	</g>
	<g
   id="Layer_2_1_">
	</g>
</g>
<g
   id="Layer_2_2_"
   transform="matrix(1.7682397,0,0,1.7682354,-193.235,-190.05917)">
	<path
   d="m 144.264,119.643 c 0.069,0.149 0.122,0.302 0.18,0.454 0.304,-0.104 0.608,-0.208 0.92,-0.294 l 12.961,25.533 -4.93,7.445 6.234,12.675 -5.577,18.726 17.465,35.492 11.005,-5.417 13.336,27.119 c 0.277,0.623 2.844,6.074 7.933,6.074 1.105,0 2.216,-0.269 3.302,-0.803 1.865,-0.916 3.159,-2.377 3.744,-4.221 1.156,-3.626 -0.845,-7.461 -1.026,-7.79 l -13.389,-27.221 11.761,-5.787 13.298,27.046 c 0.275,0.621 2.838,6.076 7.932,6.076 1.104,0 2.214,-0.271 3.3,-0.806 1.868,-0.917 3.161,-2.375 3.746,-4.219 1.151,-3.627 -0.846,-7.457 -1.028,-7.786 l -13.351,-27.15 10.367,-5.103 -17.461,-35.491 -18.242,-7.002 -6.234,-12.667 -8.931,-0.646 -7.168,-14.634 h 0.637 c -0.955,-1.944 -1.798,-3.942 -2.749,-5.889 -0.102,-0.209 -0.189,-0.417 -0.263,-0.623 h -7.224 l 2.788,5.576 c 0.302,0.604 0.47,1.195 0.55,1.768 l 7.49,15.298 -12.519,6.164 -11.321,-22.295 h 0.943 c -0.415,-0.631 -0.812,-1.268 -1.185,-1.918 -1.033,-1.474 -2.039,-2.96 -2.875,-4.559 -2.67,0.086 -5.224,0.636 -7.568,1.605 0.755,1.151 1.516,2.295 2.203,3.487 0.34,0.578 0.662,1.168 0.946,1.783 z m 60.917,117.378 c 0.311,0.585 1.106,2.547 0.691,3.838 -0.106,0.322 -0.322,0.74 -1.078,1.111 -0.367,0.18 -0.703,0.269 -1.003,0.269 -1.367,0 -2.731,-2.015 -3.214,-3.069 l -13.383,-27.215 4.553,-2.239 13.434,27.305 z m 25.62,-12.7 c 0.31,0.588 1.104,2.55 0.689,3.836 -0.105,0.322 -0.321,0.741 -1.076,1.111 -0.366,0.181 -0.702,0.274 -1.001,0.274 -1.369,0 -2.728,-2.017 -3.211,-3.073 l -13.342,-27.144 4.548,-2.238 13.393,27.234 z m -6.374,-37.367 -50.18,24.695 -12.978,-26.372 50.179,-24.695 12.979,26.372 z m -19.088,-30.045 -43.252,21.287 3.247,-10.899 29.389,-14.463 10.616,4.075 z m -41.504,-9.042 16.403,-8.076 6.411,0.463 3.912,7.949 -26.361,12.972 -3.911,-7.952 3.546,-5.356 z"
   id="path3596"
   inkscape:connector-curvature="0"
   style="fill:#28a745" />
	<g
   id="g3598">
		<path
   d="m 367.961,288.032 h -71.207 v -6.209 h -5.181 c 0.059,-2.374 -0.848,-5.136 -2.751,-8.369 -3.457,-5.872 -3.751,-12.99 -0.686,-16.559 2.622,-3.052 7.626,-3.301 14.091,-0.715 3.969,1.588 8.465,4.058 13.218,6.673 16.127,8.857 38.05,20.828 65.32,12.24 v 0.752 c 2.809,-1.552 3.392,-1.875 3.405,-1.88 0.819,-0.486 3.731,-2.022 4.541,-2.527 1.156,-0.722 -3.17,1.998 -2.154,2.155 0.293,-0.11 0.59,-0.215 0.884,-0.321 v -8.73 c -2.044,0.483 -6.4,2.158 -6.676,2.243 v 1.317 c -25.497,8.992 -45.79,-2.14 -62.102,-11.1 -4.943,-2.716 -9.608,-5.28 -13.952,-7.02 -12.591,-5.042 -18.961,-0.559 -21.639,2.562 -4.998,5.819 -5.004,15.812 -0.003,24.294 1.656,2.813 1.907,4.396 1.793,4.984 h -3.481 v 6.209 H 141.851 V 377.3 c -0.422,-0.057 -0.838,-0.134 -1.248,-0.227 0.143,0.72 0.287,1.438 0.416,2.159 0.162,0.525 0.299,1.06 0.409,1.598 0.326,0.908 0.636,1.822 1.026,2.698 0.081,0.182 0.151,0.366 0.217,0.552 0.422,0.024 0.844,0.055 1.272,0.055 h 221.229 c 0.143,0 0.283,-0.008 0.424,-0.011 0.272,-0.868 0.728,-1.593 1.317,-2.15 0.583,-1.4 1.04,-2.827 1.341,-4.399 0.042,-0.169 0.094,-0.326 0.147,-0.482 -0.148,0.031 -0.292,0.073 -0.441,0.101 v -89.162 z m -18.779,81.076 H 155.527 v -22.732 h 4.636 c 0,0 1.903,-0.179 1.903,-1.973 v -15.789 c 0,-1.463 -2.063,-1.773 -2.063,-1.773 h -4.475 v -23.325 h 193.655 v 65.592 z"
   id="path3600"
   inkscape:connector-curvature="0"
   style="fill:#28a745" />
		<g
   id="g3602">
			<path
   d="m 189.959,347.594 h 7.192 v -7.555 h 7.554 v -7.195 h -7.554 v -7.555 h -7.192 v 7.555 h -7.555 v 7.195 h 7.555 v 7.555 l 0,0 z"
   id="path3604"
   inkscape:connector-curvature="0"
   style="fill:#28a745" />
		</g>
		<rect
   x="281.755"
   y="332.20801"
   width="21.855"
   height="8.4700003"
   id="rect3606"
   style="fill:#28a745" />
		<g
   id="g3608">
			<path
   d="m 342.496,323.146 c -1.514,0 -2.741,1.221 -2.747,2.725 l -0.07,21.468 c -0.006,0.728 0.274,1.415 0.792,1.937 0.518,0.518 1.198,0.802 1.93,0.808 l 0.013,0.521 v -0.521 c 1.501,0 2.729,-1.228 2.734,-2.728 l 0.07,-21.469 c 0.006,-0.731 -0.28,-1.418 -0.792,-1.937 -0.512,-0.519 -1.199,-0.804 -1.93,-0.804 l 0,0 z"
   id="path3610"
   inkscape:connector-curvature="0"
   style="fill:#28a745" />
		</g>
		<g
   id="g3612">
			<path
   d="m 330.35,325.664 c -0.244,0 -0.489,0.032 -0.724,0.103 -0.707,0.189 -1.291,0.647 -1.654,1.277 -0.362,0.637 -0.458,1.374 -0.261,2.08 l 4.506,16.425 c 0.391,1.418 1.917,2.314 3.36,1.914 0.706,-0.191 1.295,-0.649 1.653,-1.285 0.362,-0.636 0.455,-1.373 0.261,-2.078 l -4.508,-16.427 c -0.322,-1.182 -1.406,-2.009 -2.633,-2.009 l 0,0 z"
   id="path3614"
   inkscape:connector-curvature="0"
   style="fill:#28a745" />
		</g>
		<g
   id="g3616">
			<path
   d="m 322.751,328.742 c -0.744,0 -1.431,0.286 -1.945,0.808 -0.515,0.519 -0.795,1.208 -0.789,1.938 l 0.041,10.271 c 0.011,1.501 1.233,2.722 2.738,2.722 l 0.013,0.521 -0.003,-0.521 c 0.734,0 1.414,-0.286 1.93,-0.808 0.516,-0.518 0.795,-1.208 0.791,-1.939 l -0.041,-10.27 c -0.009,-1.501 -1.234,-2.722 -2.735,-2.722 l 0,0 z"
   id="path3618"
   inkscape:connector-curvature="0"
   style="fill:#28a745" />
		</g>
	</g>
</g>
</svg>