<?xml version="1.0" encoding="UTF-8" standalone="no"?>
<!-- Generator: Adobe Illustrator 16.0.0, SVG Export Plug-In . SVG Version: 6.00 Build 0)  -->

<svg
   xmlns:dc="http://purl.org/dc/elements/1.1/"
   xmlns:cc="http://creativecommons.org/ns#"
   xmlns:rdf="http://www.w3.org/1999/02/22-rdf-syntax-ns#"
   xmlns:svg="http://www.w3.org/2000/svg"
   xmlns="http://www.w3.org/2000/svg"
   xmlns:xlink="http://www.w3.org/1999/xlink"
   xmlns:sodipodi="http://sodipodi.sourceforge.net/DTD/sodipodi-0.dtd"
   xmlns:inkscape="http://www.inkscape.org/namespaces/inkscape"
   version="1.1"
   x="0px"
   y="0px"
   width="500px"
   height="500px"
   viewBox="0 0 500 500"
   enable-background="new 0 0 500 500"
   xml:space="preserve"
   id="svg3275"
   inkscape:version="0.48.4 r9939"
   sodipodi:docname="elektrogeraete@2x.svg"><metadata
   id="metadata3311"><rdf:RDF><cc:Work
       rdf:about=""><dc:format>image/svg+xml</dc:format><dc:type
         rdf:resource="http://purl.org/dc/dcmitype/StillImage" /></cc:Work></rdf:RDF></metadata><defs
   id="defs3309" /><sodipodi:namedview
   pagecolor="#ffffff"
   bordercolor="#666666"
   borderopacity="1"
   objecttolerance="10"
   gridtolerance="10"
   guidetolerance="10"
   inkscape:pageopacity="0"
   inkscape:pageshadow="2"
   inkscape:window-width="640"
   inkscape:window-height="480"
   id="namedview3307"
   showgrid="false"
   inkscape:zoom="0.472"
   inkscape:cx="250"
   inkscape:cy="250"
   inkscape:window-x="0"
   inkscape:window-y="0"
   inkscape:window-maximized="0"
   inkscape:current-layer="svg3275" />
<g
   id="Layer_1"
   transform="matrix(1.7644679,0,0,1.7644679,-189.59265,-188.75882)">
	<g
   id="bg">
		<path
   d="m 385.533,341.896 c 0,23.922 -19.396,43.317 -43.313,43.317 H 157.638 c -23.922,0 -43.314,-19.396 -43.314,-43.317 V 157.314 C 114.324,133.392 133.716,114 157.638,114 H 342.22 c 23.917,0 43.313,19.392 43.313,43.314 v 184.582 z"
   id="path3279"
   inkscape:connector-curvature="0"
   style="fill:#ffffff" />
		<g
   id="g3281">
			<g
   id="g3283">
				<defs
   id="defs3285">
					<path
   id="SVGID_1_"
   d="m 385.533,341.896 c 0,23.922 -19.396,43.317 -43.313,43.317 H 157.638 c -23.922,0 -43.314,-19.396 -43.314,-43.317 V 157.314 C 114.324,133.392 133.716,114 157.638,114 H 342.22 c 23.917,0 43.313,19.392 43.313,43.314 v 184.582 z"
   inkscape:connector-curvature="0" />
				</defs>
				<clipPath
   id="SVGID_2_">
					<use
   xlink:href="#SVGID_1_"
   overflow="visible"
   id="use3289"
   style="overflow:visible"
   x="0"
   y="0"
   width="500"
   height="500" />
				</clipPath>
				<ellipse
   clip-path="url(#SVGID_2_)"
   cx="250.634"
   cy="376.95099"
   rx="204.146"
   ry="82.195"
   id="ellipse3291"
   sodipodi:cx="250.634"
   sodipodi:cy="376.95099"
   sodipodi:rx="204.146"
   sodipodi:ry="82.195"
   style="fill:#f5f5f5"
   d="m 454.78,376.95099 c 0,45.39504 -91.39928,82.195 -204.146,82.195 -112.74672,0 -204.145993,-36.79996 -204.145993,-82.195 0,-45.39505 91.399273,-82.195 204.145993,-82.195 112.74672,0 204.146,36.79995 204.146,82.195 z" />
			</g>
		</g>
		<path
   d="M 342.22,390.252 H 157.638 c -26.666,0 -48.357,-21.688 -48.357,-48.355 V 157.314 c 0,-26.661 21.691,-48.355 48.357,-48.355 H 342.22 c 26.663,0 48.356,21.694 48.356,48.355 v 184.581 c 0,26.667 -21.693,48.357 -48.356,48.357 z M 157.638,119.043 c -21.103,0 -38.271,17.168 -38.271,38.271 v 184.581 c 0,21.104 17.168,38.275 38.271,38.275 H 342.22 c 21.1,0 38.271,-17.173 38.271,-38.275 V 157.314 c 0,-21.103 -17.172,-38.271 -38.271,-38.271 H 157.638 z"
   id="path3293"
   inkscape:connector-curvature="0"
   style="fill:#28a745" />
	</g>
	<g
   id="Layer_2">
	</g>
</g>
<g
   id="Layer_2_1_"
   transform="matrix(1.7644679,0,0,1.7644679,-189.59265,-188.75882)">
</g>
<g
   id="Layer_3"
   transform="matrix(1.7644679,0,0,1.7644679,-189.59265,-188.75882)">
	<g
   id="elektro_unterhaltung">
		<path
   d="M 147.88,169.318 V 299.193 H 351.5 V 169.318 H 147.88 z m 192.767,104.713 c 0,2.758 -2.234,4.996 -4.993,4.996 H 164.457 c -2.763,0 -4.997,-2.238 -4.997,-4.996 v -85.767 c 0,-2.758 2.234,-4.994 4.997,-4.994 h 171.197 c 2.759,0 4.993,2.236 4.993,4.994 v 85.767 z"
   id="path3299"
   inkscape:connector-curvature="0"
   style="fill:#28a745" />
		<path
   d="m 319.191,327.928 h -57.038 v -20.289 h -23.378 v 20.289 h -56.783 c -2.437,0 -4.406,1.974 -4.406,4.411 0,2.437 1.97,4.411 4.406,4.411 h 137.199 c 2.437,0 4.415,-1.975 4.415,-4.411 0,-2.438 -1.978,-4.411 -4.415,-4.411 z"
   id="path3301"
   inkscape:connector-curvature="0"
   style="fill:#28a745" />
		<path
   d="m 244.415,258.733 c -1.143,1.153 -3.014,1.153 -4.17,0 l 0,0 c -1.152,-1.157 -1.152,-3.022 0,-4.176 l 50.308,-50.307 c 1.148,-1.152 3.013,-1.152 4.175,0 l 0,0 c 1.153,1.155 1.153,3.025 0,4.177 l -50.313,50.306 z"
   id="path3303"
   inkscape:connector-curvature="0"
   style="fill:#28a745" />
		<path
   d="m 216.191,261.303 c -1.162,1.152 -3.027,1.152 -4.18,0 l 0,0 c -1.152,-1.156 -1.152,-3.027 0,-4.18 l 50.303,-50.303 c 1.156,-1.152 3.026,-1.152 4.18,0 l 0,0 c 1.152,1.155 1.152,3.022 0,4.175 l -50.303,50.308 z"
   id="path3305"
   inkscape:connector-curvature="0"
   style="fill:#28a745" />
	</g>
</g>
</svg>