<?xml version="1.0" encoding="UTF-8" standalone="no"?>
<!-- Generator: Adobe Illustrator 16.0.0, SVG Export Plug-In . SVG Version: 6.00 Build 0)  -->

<svg
   xmlns:dc="http://purl.org/dc/elements/1.1/"
   xmlns:cc="http://creativecommons.org/ns#"
   xmlns:rdf="http://www.w3.org/1999/02/22-rdf-syntax-ns#"
   xmlns:svg="http://www.w3.org/2000/svg"
   xmlns="http://www.w3.org/2000/svg"
   xmlns:xlink="http://www.w3.org/1999/xlink"
   xmlns:sodipodi="http://sodipodi.sourceforge.net/DTD/sodipodi-0.dtd"
   xmlns:inkscape="http://www.inkscape.org/namespaces/inkscape"
   version="1.1"
   x="0px"
   y="0px"
   width="500px"
   height="500px"
   viewBox="0 0 500 500"
   enable-background="new 0 0 500 500"
   xml:space="preserve"
   id="svg6600"
   inkscape:version="0.48.4 r9939"
   sodipodi:docname="eps@2x.svg"><metadata
   id="metadata6697"><rdf:RDF><cc:Work
       rdf:about=""><dc:format>image/svg+xml</dc:format><dc:type
         rdf:resource="http://purl.org/dc/dcmitype/StillImage" /></cc:Work></rdf:RDF></metadata><defs
   id="defs6695" /><sodipodi:namedview
   pagecolor="#ffffff"
   bordercolor="#666666"
   borderopacity="1"
   objecttolerance="10"
   gridtolerance="10"
   guidetolerance="10"
   inkscape:pageopacity="0"
   inkscape:pageshadow="2"
   inkscape:window-width="640"
   inkscape:window-height="480"
   id="namedview6693"
   showgrid="false"
   inkscape:zoom="0.472"
   inkscape:cx="250"
   inkscape:cy="250"
   inkscape:window-x="0"
   inkscape:window-y="0"
   inkscape:window-maximized="0"
   inkscape:current-layer="svg6600" />
<g
   id="Layer_1"
   transform="matrix(1.7682433,0,0,1.7682433,-190.00524,-189.75764)">
	<g
   id="bg">
		<path
   d="m 385.533,341.896 c 0,23.922 -19.396,43.317 -43.313,43.317 H 157.638 c -23.922,0 -43.314,-19.396 -43.314,-43.317 V 157.314 C 114.324,133.392 133.716,114 157.638,114 H 342.22 c 23.917,0 43.313,19.392 43.313,43.314 v 184.582 z"
   id="path6604"
   inkscape:connector-curvature="0"
   style="fill:#ffffff" />
		<g
   id="g6606">
			<g
   id="g6608">
				<defs
   id="defs6610">
					<path
   id="SVGID_1_"
   d="m 385.533,341.896 c 0,23.922 -19.396,43.317 -43.313,43.317 H 157.638 c -23.922,0 -43.314,-19.396 -43.314,-43.317 V 157.314 C 114.324,133.392 133.716,114 157.638,114 H 342.22 c 23.917,0 43.313,19.392 43.313,43.314 v 184.582 z"
   inkscape:connector-curvature="0" />
				</defs>
				<clipPath
   id="SVGID_2_">
					<use
   xlink:href="#SVGID_1_"
   overflow="visible"
   id="use6614"
   style="overflow:visible"
   x="0"
   y="0"
   width="500"
   height="500" />
				</clipPath>
				<ellipse
   clip-path="url(#SVGID_2_)"
   cx="250.634"
   cy="376.95099"
   rx="204.146"
   ry="82.195"
   id="ellipse6616"
   sodipodi:cx="250.634"
   sodipodi:cy="376.95099"
   sodipodi:rx="204.146"
   sodipodi:ry="82.195"
   style="fill:#f5f5f5"
   d="m 454.78,376.95099 c 0,45.39504 -91.39928,82.195 -204.146,82.195 -112.74672,0 -204.145993,-36.79996 -204.145993,-82.195 0,-45.39505 91.399273,-82.195 204.145993,-82.195 112.74672,0 204.146,36.79995 204.146,82.195 z" />
			</g>
		</g>
		<path
   d="M 342.22,390.252 H 157.638 c -26.666,0 -48.357,-21.688 -48.357,-48.355 V 157.314 c 0,-26.661 21.691,-48.355 48.357,-48.355 H 342.22 c 26.663,0 48.356,21.694 48.356,48.355 v 184.581 c 0,26.667 -21.693,48.357 -48.356,48.357 z M 157.638,119.043 c -21.103,0 -38.271,17.168 -38.271,38.271 v 184.581 c 0,21.104 17.168,38.275 38.271,38.275 H 342.22 c 21.1,0 38.271,-17.173 38.271,-38.275 V 157.314 c 0,-21.103 -17.172,-38.271 -38.271,-38.271 H 157.638 z"
   id="path6618"
   inkscape:connector-curvature="0"
   style="fill:#28a745" />
	</g>
	<g
   id="Layer_2">
	</g>
</g>
<g
   id="Layer_2_1_"
   transform="matrix(1.7682433,0,0,1.7682433,-190.00524,-189.75764)">
</g>
<g
   id="Layer_3"
   transform="matrix(1.7682433,0,0,1.7682433,-190.00524,-189.75764)">
	<path
   d="m 242.329,153.108 c 1.971,0 3.576,-1.608 3.576,-3.579 0,-1.971 -1.605,-3.576 -3.576,-3.576 -1.972,0 -3.576,1.605 -3.576,3.576 0,1.971 1.603,3.579 3.576,3.579 z"
   id="path6623"
   inkscape:connector-curvature="0"
   style="fill:#28a745" />
	<path
   d="m 218.187,169.99 -0.282,0.007 c -1.965,0.157 -3.438,1.879 -3.288,3.844 0.144,1.851 1.709,3.301 3.56,3.301 l 0.285,-0.013 c 1.965,-0.154 3.438,-1.874 3.288,-3.845 -0.144,-1.846 -1.709,-3.294 -3.563,-3.294 z m -0.01,6.111 c 0.003,0 0.003,0 0.003,0 l -0.003,0.033 v -0.033 z"
   id="path6625"
   inkscape:connector-curvature="0"
   style="fill:#28a745" />
	<path
   d="m 205.775,177.81 0.275,-0.01 c 1.965,-0.154 3.445,-1.876 3.294,-3.848 -0.15,-1.851 -1.716,-3.301 -3.563,-3.301 l -0.285,0.013 c -0.946,0.072 -1.817,0.518 -2.437,1.241 -0.625,0.724 -0.92,1.647 -0.848,2.604 0.142,1.85 1.711,3.301 3.564,3.301 z m 0,-1.035 0,0 v 0.029 -0.029 z"
   id="path6627"
   inkscape:connector-curvature="0"
   style="fill:#28a745" />
	<path
   d="m 209.469,180.378 -0.282,0.013 c -0.95,0.072 -1.82,0.514 -2.437,1.238 -0.625,0.727 -0.923,1.651 -0.851,2.603 0.144,1.851 1.709,3.304 3.563,3.304 l 0.278,-0.013 c 1.965,-0.15 3.442,-1.876 3.292,-3.845 -0.147,-1.853 -1.716,-3.3 -3.563,-3.3 z m -0.006,6.12 0,0 v 0.029 -0.029 z"
   id="path6629"
   inkscape:connector-curvature="0"
   style="fill:#28a745" />
	<path
   d="m 220.531,159.701 0.275,-0.007 c 1.965,-0.157 3.445,-1.88 3.292,-3.851 -0.147,-1.847 -1.713,-3.298 -3.563,-3.298 l -0.285,0.01 c -0.947,0.072 -1.814,0.517 -2.437,1.244 -0.622,0.724 -0.92,1.644 -0.845,2.6 0.138,1.854 1.706,3.302 3.563,3.302 z m 0,-1.035 0,0 v 0.033 -0.033 z"
   id="path6631"
   inkscape:connector-curvature="0"
   style="fill:#28a745" />
	<path
   d="m 224.553,153.668 0.278,-0.013 c 0.707,-0.053 1.346,-0.321 1.87,-0.717 0,0.036 -0.013,0.069 -0.01,0.108 0.141,1.854 1.706,3.301 3.563,3.301 l 0.141,-0.003 c -1.709,0.266 -3.045,1.687 -3.045,3.472 0,1.975 1.604,3.579 3.576,3.579 1.975,0 3.576,-1.604 3.576,-3.579 0,-1.942 -1.559,-3.514 -3.491,-3.563 1.716,-0.37 2.947,-1.955 2.81,-3.763 -0.144,-1.847 -1.709,-3.298 -3.562,-3.298 l -0.282,0.01 c -0.701,0.056 -1.317,0.367 -1.86,0.786 0,-0.059 0.013,-0.118 0.007,-0.18 -0.147,-1.851 -1.716,-3.298 -3.563,-3.298 l -0.282,0.01 c -0.95,0.075 -1.821,0.514 -2.437,1.241 -0.625,0.727 -0.924,1.65 -0.852,2.6 0.144,1.853 1.709,3.307 3.563,3.307 z m 0,-1.041 0,0 v 0.032 -0.032 z m 5.701,2.685 0,0 v 0.033 -0.033 z"
   id="path6633"
   inkscape:connector-curvature="0"
   style="fill:#28a745" />
	<path
   d="m 209.463,166.745 0.278,-0.01 c 1.677,-0.131 2.99,-1.415 3.246,-3.006 0,0.131 -0.053,0.249 -0.046,0.383 0.145,1.851 1.709,3.304 3.563,3.304 l 0.282,-0.013 c 1.965,-0.15 3.438,-1.876 3.288,-3.845 -0.145,-1.854 -1.713,-3.301 -3.563,-3.301 l -0.282,0.013 c -0.949,0.072 -1.82,0.514 -2.436,1.238 -0.484,0.563 -0.701,1.251 -0.776,1.965 0.017,-0.19 0.029,-0.386 0.017,-0.589 -0.147,-1.847 -1.716,-3.294 -3.563,-3.294 l -0.282,0.006 c -0.95,0.075 -1.82,0.518 -2.437,1.244 -0.625,0.727 -0.923,1.647 -0.851,2.601 0.143,1.853 1.708,3.304 3.562,3.304 z m 7.04,-0.367 0,0 v 0.029 -0.029 z m -7.04,-0.672 0,0 v 0.033 -0.033 z"
   id="path6635"
   inkscape:connector-curvature="0"
   style="fill:#28a745" />
	<path
   d="m 199.403,185.188 0.278,-0.01 c 1.965,-0.157 3.442,-1.88 3.292,-3.851 -0.147,-1.847 -1.717,-3.295 -3.563,-3.295 l -0.282,0.007 c -0.95,0.075 -1.82,0.517 -2.437,1.244 -0.625,0.727 -0.923,1.647 -0.851,2.6 0.144,1.854 1.709,3.305 3.563,3.305 z m 0,-1.038 0,0 v 0.033 -0.033 z"
   id="path6637"
   inkscape:connector-curvature="0"
   style="fill:#28a745" />
	<path
   d="m 153.998,325.8 -0.275,0.013 c -1.965,0.151 -3.445,1.873 -3.295,3.845 0.151,1.848 1.71,3.295 3.563,3.295 l 0.285,-0.006 c 1.965,-0.157 3.438,-1.881 3.288,-3.846 -0.144,-1.853 -1.709,-3.301 -3.566,-3.301 z m -0.006,6.117 h 0.006 l -0.006,0.033 v -0.033 z"
   id="path6639"
   inkscape:connector-curvature="0"
   style="fill:#28a745" />
	<path
   d="m 166.878,334.413 0.282,-0.007 c 1.965,-0.157 3.438,-1.88 3.284,-3.852 -0.141,-1.847 -1.706,-3.294 -3.566,-3.294 l -0.282,0.006 c -1.965,0.157 -3.438,1.88 -3.282,3.845 0.145,1.854 1.704,3.302 3.564,3.302 z m 0,-1.035 h 0.003 l -0.003,0.032 v -0.032 z"
   id="path6641"
   inkscape:connector-curvature="0"
   style="fill:#28a745" />
	<path
   d="m 158.494,323.35 0.282,-0.013 c 1.965,-0.15 3.438,-1.879 3.282,-3.844 -0.138,-1.854 -1.703,-3.302 -3.563,-3.302 l -0.281,0.014 c -1.965,0.15 -3.438,1.873 -3.285,3.838 0.143,1.853 1.706,3.307 3.565,3.307 z m 0,-1.04 0,0 v 0.032 -0.032 z"
   id="path6643"
   inkscape:connector-curvature="0"
   style="fill:#28a745" />
	<path
   d="m 180.35,296.347 0.285,-0.006 c 1.964,-0.157 3.441,-1.881 3.291,-3.846 -0.147,-1.847 -1.716,-3.301 -3.57,-3.301 l -0.282,0.014 c -1.958,0.156 -3.432,1.879 -3.281,3.844 0.145,1.847 1.71,3.295 3.557,3.295 z m 0,-1.035 h 0.006 l -0.006,0.033 v -0.033 z"
   id="path6645"
   inkscape:connector-curvature="0"
   style="fill:#28a745" />
	<path
   d="m 188.236,299.805 c 1.965,-0.15 3.438,-1.873 3.288,-3.845 -0.144,-1.854 -1.709,-3.301 -3.569,-3.301 l -0.275,0.014 c -1.965,0.15 -3.438,1.879 -3.288,3.844 0.147,1.848 1.709,3.302 3.562,3.302 l 0.282,-0.014 z m -0.282,-1.022 h 0.006 l -0.006,0.026 v -0.026 z"
   id="path6647"
   inkscape:connector-curvature="0"
   style="fill:#28a745" />
	<path
   d="m 181.365,296.91 -0.285,0.013 c -1.962,0.15 -3.432,1.873 -3.278,3.838 0.138,1.854 1.707,3.302 3.556,3.302 l 0.282,-0.013 c 1.965,-0.151 3.445,-1.874 3.292,-3.839 -0.148,-1.854 -1.713,-3.301 -3.567,-3.301 z m -0.007,6.117 h 0.007 l -0.007,0.026 v -0.026 z"
   id="path6649"
   inkscape:connector-curvature="0"
   style="fill:#28a745" />
	<path
   d="m 183.311,326.92 -0.281,0.013 c -0.95,0.072 -1.818,0.519 -2.437,1.245 -0.623,0.72 -0.924,1.644 -0.849,2.601 0.147,1.853 1.707,3.3 3.563,3.3 l 0.278,-0.006 c 1.965,-0.157 3.441,-1.88 3.288,-3.851 -0.144,-1.848 -1.709,-3.302 -3.562,-3.302 z m -0.003,6.124 0,0 v 0.032 -0.032 z"
   id="path6651"
   inkscape:connector-curvature="0"
   style="fill:#28a745" />
	<path
   d="m 180.573,325.014 c 1.958,-0.15 3.438,-1.88 3.285,-3.845 -0.147,-1.854 -1.713,-3.3 -3.566,-3.3 l -0.281,0.013 c -1.965,0.15 -3.436,1.873 -3.281,3.838 0.144,1.854 1.706,3.308 3.562,3.308 l 0.281,-0.014 z m -0.282,-1.029 h 0.003 l -0.003,0.033 v -0.033 z"
   id="path6653"
   inkscape:connector-curvature="0"
   style="fill:#28a745" />
	<path
   d="m 191.69,329.383 0.279,-0.007 c 1.965,-0.157 3.442,-1.879 3.288,-3.851 -0.145,-1.848 -1.709,-3.295 -3.563,-3.295 l -0.282,0.006 c -0.95,0.073 -1.817,0.519 -2.437,1.245 -0.622,0.727 -0.923,1.645 -0.848,2.601 0.142,1.853 1.706,3.301 3.563,3.301 z m 0,-1.035 0,0 v 0.032 -0.032 z"
   id="path6655"
   inkscape:connector-curvature="0"
   style="fill:#28a745" />
	<path
   d="m 202.763,340.562 -0.282,0.007 c -1.965,0.157 -3.438,1.879 -3.288,3.848 0.144,1.854 1.709,3.302 3.556,3.302 l 0.285,-0.015 c 1.965,-0.15 3.442,-1.873 3.292,-3.848 -0.148,-1.846 -1.71,-3.294 -3.563,-3.294 z m -0.013,6.115 c 0.007,0 0.007,0 0.007,0 l -0.007,0.033 v -0.033 z"
   id="path6657"
   inkscape:connector-curvature="0"
   style="fill:#28a745" />
	<path
   d="m 181.856,344.026 -0.281,0.008 c -1.965,0.16 -3.439,1.883 -3.288,3.848 0.147,1.854 1.709,3.301 3.569,3.301 l 0.275,-0.007 c 1.965,-0.157 3.445,-1.88 3.294,-3.851 -0.15,-1.847 -1.715,-3.299 -3.569,-3.299 z m 0,6.122 0,0 v 0.031 -0.031 z"
   id="path6659"
   inkscape:connector-curvature="0"
   style="fill:#28a745" />
	<path
   d="m 188.367,337.189 c 0.681,0.897 1.723,1.415 2.849,1.415 0.79,0 1.539,-0.256 2.168,-0.734 0.759,-0.576 1.245,-1.414 1.375,-2.364 0.131,-0.942 -0.118,-1.886 -0.694,-2.646 -1.16,-1.52 -3.478,-1.848 -5.017,-0.682 -1.566,1.193 -1.867,3.44 -0.681,5.011 z"
   id="path6661"
   inkscape:connector-curvature="0"
   style="fill:#28a745" />
	<path
   d="m 181.5,342.017 c 0.786,0 1.536,-0.255 2.165,-0.728 0.766,-0.582 1.25,-1.421 1.381,-2.37 0.125,-0.944 -0.118,-1.887 -0.694,-2.64 -1.166,-1.533 -3.491,-1.841 -5.011,-0.688 -0.766,0.577 -1.25,1.415 -1.382,2.365 -0.131,0.949 0.111,1.893 0.694,2.652 0.682,0.897 1.72,1.409 2.847,1.409 z"
   id="path6663"
   inkscape:connector-curvature="0"
   style="fill:#28a745" />
	<path
   d="m 198.086,343.681 c 0.128,-0.943 -0.118,-1.881 -0.694,-2.641 -1.166,-1.532 -3.498,-1.84 -5.017,-0.687 -0.76,0.576 -1.244,1.408 -1.375,2.357 -0.131,0.949 0.114,1.896 0.694,2.655 0.681,0.904 1.726,1.415 2.852,1.415 0.787,0 1.53,-0.249 2.159,-0.727 0.765,-0.581 1.251,-1.42 1.381,-2.372 z"
   id="path6665"
   inkscape:connector-curvature="0"
   style="fill:#28a745" />
	<path
   d="m 165.699,344.776 c -1.565,1.193 -1.867,3.446 -0.675,5.012 0.681,0.897 1.723,1.414 2.849,1.414 0.79,0 1.539,-0.255 2.168,-0.733 0.76,-0.576 1.245,-1.415 1.375,-2.364 0.128,-0.943 -0.118,-1.887 -0.694,-2.646 -1.165,-1.523 -3.478,-1.857 -5.023,-0.683 z"
   id="path6667"
   inkscape:connector-curvature="0"
   style="fill:#28a745" />
	<path
   d="m 173.142,350.757 c -1.568,1.192 -1.87,3.438 -0.678,5.01 0.681,0.897 1.723,1.415 2.849,1.415 0.786,0 1.539,-0.256 2.168,-0.733 1.565,-1.198 1.87,-3.445 0.681,-5.011 -1.152,-1.526 -3.477,-1.853 -5.02,-0.681 z"
   id="path6669"
   inkscape:connector-curvature="0"
   style="fill:#28a745" />
	<path
   d="m 161.206,353.266 c -1.572,1.191 -1.88,3.438 -0.688,5.01 0.681,0.897 1.722,1.415 2.849,1.415 0.786,0 1.539,-0.256 2.167,-0.733 0.76,-0.576 1.244,-1.414 1.375,-2.364 0.127,-0.943 -0.118,-1.887 -0.694,-2.646 -1.158,-1.521 -3.49,-1.842 -5.009,-0.682 z"
   id="path6671"
   inkscape:connector-curvature="0"
   style="fill:#28a745" />
	<path
   d="m 144.347,342.58 c -1.572,1.199 -1.883,3.448 -0.684,5.02 0.681,0.897 1.716,1.408 2.843,1.408 0.786,0 1.539,-0.249 2.167,-0.733 1.569,-1.191 1.873,-3.438 0.681,-5.007 -1.152,-1.527 -3.487,-1.847 -5.007,-0.688 z"
   id="path6673"
   inkscape:connector-curvature="0"
   style="fill:#28a745" />
	<path
   d="m 163.341,338.716 c 1.572,-1.186 1.873,-3.438 0.681,-5.011 -1.159,-1.533 -3.491,-1.847 -5.004,-0.688 -1.572,1.198 -1.887,3.444 -0.688,5.018 0.688,0.896 1.723,1.408 2.843,1.408 0.793,0 1.539,-0.249 2.168,-0.727 z"
   id="path6675"
   inkscape:connector-curvature="0"
   style="fill:#28a745" />
	<path
   d="m 217.401,345.15 0.278,-0.014 c 1.965,-0.15 3.441,-1.883 3.292,-3.848 -0.147,-1.846 -1.716,-3.294 -3.563,-3.294 l -0.281,0.007 c -0.957,0.079 -1.821,0.517 -2.443,1.244 -0.619,0.727 -0.917,1.65 -0.844,2.6 0.142,1.855 1.707,3.305 3.561,3.305 z m 0,-1.041 0,0 v 0.033 -0.033 z"
   id="path6677"
   inkscape:connector-curvature="0"
   style="fill:#28a745" />
	<path
   d="m 217.964,352.886 -0.285,0.006 c -0.953,0.073 -1.817,0.519 -2.44,1.238 -0.625,0.727 -0.923,1.651 -0.852,2.607 0.145,1.846 1.71,3.3 3.563,3.3 l 0.282,-0.013 c 1.965,-0.156 3.445,-1.873 3.294,-3.845 -0.15,-1.846 -1.714,-3.293 -3.562,-3.293 z m -0.013,6.11 c 0.006,0 0.006,0 0.006,0 l -0.006,0.033 v -0.033 z"
   id="path6679"
   inkscape:connector-curvature="0"
   style="fill:#28a745" />
	<path
   d="m 227.016,342.481 -0.282,0.013 c -0.957,0.072 -1.821,0.512 -2.443,1.239 -0.622,0.729 -0.923,1.652 -0.848,2.608 0.141,1.848 1.706,3.295 3.563,3.295 l 0.285,-0.006 c 1.965,-0.158 3.439,-1.881 3.288,-3.846 -0.144,-1.848 -1.713,-3.303 -3.563,-3.303 z m -0.01,6.121 c 0.003,0 0.003,0 0.003,0 l -0.003,0.033 v -0.033 z"
   id="path6681"
   inkscape:connector-curvature="0"
   style="fill:#28a745" />
	<path
   d="m 196.992,352.597 c -0.766,0.577 -1.25,1.415 -1.381,2.364 -0.125,0.95 0.125,1.888 0.7,2.646 0.681,0.898 1.72,1.408 2.846,1.408 0.786,0 1.536,-0.248 2.165,-0.728 1.572,-1.19 1.873,-3.438 0.688,-5.01 -1.16,-1.518 -3.482,-1.845 -5.018,-0.68 z"
   id="path6683"
   inkscape:connector-curvature="0"
   style="fill:#28a745" />
	<path
   d="m 188.504,348.091 c -0.76,0.577 -1.251,1.415 -1.375,2.365 -0.131,0.949 0.118,1.886 0.694,2.639 0.681,0.904 1.719,1.421 2.846,1.421 0.79,0 1.536,-0.255 2.171,-0.732 1.565,-1.199 1.867,-3.445 0.681,-5.011 -1.159,-1.52 -3.491,-1.841 -5.017,-0.682 z"
   id="path6685"
   inkscape:connector-curvature="0"
   style="fill:#28a745" />
	<path
   d="m 200.752,330.784 c -1.572,1.191 -1.88,3.438 -0.682,5.01 0.682,0.897 1.717,1.408 2.843,1.408 0.786,0 1.536,-0.249 2.165,-0.727 0.763,-0.576 1.254,-1.421 1.385,-2.364 0.125,-0.95 -0.125,-1.887 -0.701,-2.646 -1.156,-1.52 -3.484,-1.84 -5.01,-0.681 z"
   id="path6687"
   inkscape:connector-curvature="0"
   style="fill:#28a745" />
	<path
   d="m 213.759,346.578 c -1.16,-1.513 -3.491,-1.84 -5.014,-0.674 -1.572,1.191 -1.876,3.438 -0.681,5.01 0.681,0.897 1.719,1.408 2.846,1.408 0.786,0 1.533,-0.249 2.161,-0.727 1.573,-1.192 1.884,-3.439 0.688,-5.017 z"
   id="path6689"
   inkscape:connector-curvature="0"
   style="fill:#28a745" />
	<path
   d="m 350.766,269.625 c -3.078,-0.662 -6.021,0.517 -7.935,1.63 -2.312,-2.011 -4.919,-4.624 -5.574,-6.149 -0.138,-0.334 -0.229,-1.435 -0.288,-2.168 -0.17,-2.109 -0.366,-4.499 -1.944,-6.234 -2.126,-2.339 -4.86,-1.436 -6.498,-0.897 -0.107,0.038 -0.216,0.078 -0.334,0.111 0.229,-0.858 0.531,-1.821 0.773,-2.587 0.661,-2.149 1.421,-4.579 1.653,-6.806 0.337,-3.177 -1.948,-4.873 -3.042,-5.685 -0.229,-0.17 -0.465,-0.314 -0.551,-0.386 -0.812,-1.389 -1.516,-2.292 -1.983,-2.882 -0.04,-0.053 -0.079,-0.105 -0.111,-0.151 0.241,-0.661 0.792,-1.847 1.414,-3.183 l 0.145,-0.321 c 2.508,-5.403 2.449,-8.547 1.82,-11.055 2.021,-0.982 4.133,-2.974 5.96,-7.539 3.845,-9.612 -2.237,-21.073 -2.499,-21.558 l -0.994,-1.847 -2.087,0.249 c -1.553,0.187 -3.367,0.38 -4.376,0.452 -0.229,-0.243 -0.51,-0.603 -0.713,-0.904 l -1.474,-2.295 -37.983,18.355 -0.062,-44.333 c 0.32,-0.969 0.602,-2.548 -0.164,-4.042 -0.576,-1.113 -1.585,-1.879 -2.866,-2.187 -1.391,-0.763 -6.251,-5.109 -10.102,-8.862 -1.48,-1.722 -11.036,-12.248 -20.415,-9.205 -4.545,1.464 -7.041,-0.017 -9.241,-1.323 -1.016,-0.606 -1.979,-1.179 -3.098,-1.431 -3.622,-0.845 -25.992,6.595 -28.792,11.101 -0.537,0.871 -1.938,1.336 -3.294,1.788 -1.722,0.577 -3.871,1.29 -4.683,3.452 -0.242,0.642 -0.373,1.438 -0.569,2.643 -0.442,2.688 -1.474,8.985 -4.245,9.486 -6.876,1.251 -8.351,8.96 -8.979,12.254 -0.056,0.289 -0.099,0.541 -0.145,0.75 -0.976,0.946 -3.798,2.917 -6.052,3.049 -4.381,0.262 -10.387,3.596 -11.055,3.975 l -1.565,0.888 0.079,119.921 31.887,14.867 14.304,-4.886 35.22,39.052 96.757,-43.518 10.797,-27.272 c 0.916,-1.284 1.617,-3.819 -0.551,-8.502 -1.875,-4.041 -4.593,-5.396 -6.545,-5.815 z m -23.654,-7.119 c 1.35,-0.178 2.459,-0.544 3.353,-0.839 0.053,-0.02 0.105,-0.033 0.158,-0.053 0.098,0.583 0.154,1.311 0.195,1.827 0.115,1.396 0.23,2.844 0.771,4.1 0.979,2.28 3.383,4.867 5.511,6.865 l -57.288,28.07 -12.671,5.652 c -3.991,-3.759 -9.015,-9.012 -9.945,-11.219 -0.674,-1.592 -0.806,-6.248 -0.89,-9.327 -0.142,-5.069 -0.242,-6.733 -1.33,-8.017 -1.153,-1.355 -2.691,-3.157 -4.428,-5.174 l 22.733,-11.933 c 2.349,3.149 6.045,8.022 7.826,9.896 1.756,1.84 6.891,5.246 12.546,5.246 0.56,0 1.131,-0.033 1.703,-0.104 2.961,-0.38 7.13,-1.972 10.162,-7.42 l 6.707,-20.874 c 0.444,-0.799 0.792,-1.637 1.009,-2.535 0.255,-1.041 0.293,-2.05 0.252,-3.026 l 6.08,-3.15 c 0.184,0.275 0.374,0.563 0.617,0.872 0.401,0.523 0.91,1.172 1.519,2.207 0.612,1.042 1.486,1.696 2.188,2.214 0.17,0.131 0.39,0.295 0.551,0.426 -0.213,1.565 -0.8,3.452 -1.369,5.285 -1.205,3.878 -2.247,7.231 -0.308,9.536 0.582,0.689 1.931,1.802 4.348,1.475 z m -44.32,-19.492 c 3.038,5.501 8.704,13.087 16.924,13.093 h 0.007 c 1.342,0 2.691,-0.236 4.04,-0.642 l -3.785,11.867 c -1.421,2.438 -3.19,3.767 -5.403,4.048 -3.734,0.459 -7.893,-2.122 -8.999,-3.281 -1.703,-1.788 -6,-7.499 -8.403,-10.748 l 5.619,-14.337 z m 23.819,3.51 c -0.628,0.923 -1.657,1.755 -3.117,2.462 -1.3,0.629 -2.566,0.95 -3.771,0.95 h -0.007 c -5.725,0 -10.401,-7.29 -12.664,-12.084 l 13.207,-6.602 5.473,8.266 c 0.022,0.026 1.64,2.312 1.627,4.657 l -0.748,2.351 z m 21.994,-43.799 c 0.835,3.251 1.212,7.114 -0.065,10.311 -1.605,4.01 -2.95,4.363 -3.759,4.566 -3.8,0.982 -3.227,4.093 -3.072,4.702 0.092,0.374 0.213,0.747 0.344,1.146 0.487,1.467 1.044,3.131 -1.156,7.873 l -0.15,0.321 c -0.288,0.615 -0.544,1.172 -0.773,1.689 l -8.213,4.251 c -0.475,-0.891 -0.891,-1.494 -0.982,-1.618 l -8.39,-12.68 -22.907,11.455 -0.068,-0.026 -0.026,0.072 -0.141,0.072 0.056,0.151 -8.548,21.81 -24.331,12.765 c -2.623,-3.045 -5.41,-6.273 -8.01,-9.28 -2.037,-2.613 -2.771,-5.018 -2.253,-7.336 0.845,-3.739 5.017,-7.597 12.019,-11.121 l 80.425,-39.123 z m -5.845,-4.019 -77.314,37.607 c -8.878,4.467 -14.029,9.615 -15.306,15.3 -0.937,4.179 0.21,8.377 3.504,12.602 5.855,6.778 12.608,14.618 16.259,18.915 0.131,0.917 0.187,3.032 0.236,4.63 0.147,5.208 0.331,9.079 1.372,11.547 1.951,4.631 11.134,13.105 12.958,14.756 l 1.49,1.356 16.466,-7.355 61.592,-30.173 0.654,-0.433 c 0.832,-0.708 3.18,-2.148 4.785,-1.809 0.852,0.185 1.611,0.99 2.256,2.378 0.2,0.433 0.341,0.793 0.455,1.121 l -87.348,40.345 c -6.17,-6.039 -15.103,-15.654 -16.767,-19.812 -0.648,-1.618 -0.832,-6.006 -0.97,-9.209 -0.219,-5.161 -0.354,-7.015 -1.477,-8.312 l -29.944,-34.431 104.521,-50.517 c 0.721,0.679 1.592,1.262 2.578,1.494 z m -72.408,146.87 -52.685,-58.426 6.314,-15.619 h 0.138 v -0.348 l 7.538,-18.653 28.93,33.272 c 0.164,0.942 0.255,3.222 0.331,4.931 0.213,5.063 0.442,8.829 1.405,11.239 2.554,6.386 14.665,18.509 18.627,22.367 l -10.598,21.237 z m -50.949,-152.708 0,0 v 0.032 -0.032 z m 78.505,-30.371 0.076,48.259 -68.64,33.175 -1.074,0.518 -4.166,10.309 -0.053,-50.238 c 1.042,-0.275 2.05,-0.648 2.98,-1.11 1.14,-0.573 2.652,-0.881 4.106,-1.182 3.003,-0.623 8.023,-1.657 7.885,-6.916 -0.013,-0.563 -0.085,-1.241 -0.164,-1.985 -0.16,-1.559 -0.432,-4.159 0.295,-5.095 0.278,-0.357 1.755,-0.865 2.836,-1.235 1.749,-0.599 3.923,-1.346 6.117,-2.75 4.241,-2.722 3.478,-7.077 3.111,-9.173 -0.039,-0.206 -0.079,-0.465 -0.118,-0.701 0.279,-0.118 0.59,-0.249 0.855,-0.354 2.309,-0.949 5.807,-2.384 8.629,-5.508 1.441,-1.598 1.965,-3.76 2.515,-6.045 0.269,-1.107 0.544,-2.24 0.917,-3.255 2.259,-0.112 5.692,0.278 9.923,-1.565 4.289,-1.854 9.951,-3.976 12.62,-4.958 6.481,6.325 9.671,8.804 11.35,9.809 z m -62.073,20.311 0,0 v 0.032 -0.032 z m 36.888,-32.526 0,0 v 0.033 -0.033 z m 3.569,-2.823 c -0.091,-1.114 -0.727,-2.037 -1.598,-2.63 2.252,0.236 4.689,1.588 6.798,3.161 -1.932,0.727 -4.257,1.624 -6.549,2.554 0.903,-0.72 1.441,-1.854 1.349,-3.085 z m -67.618,43.063 0,0 v 0.033 -0.033 z m -6.87,-3.444 c 1.296,-0.079 2.613,-0.436 3.877,-0.93 -0.393,0.636 -0.636,1.35 -0.57,2.109 0.138,1.854 1.706,3.301 3.562,3.301 l 0.275,-0.006 c 1.965,-0.158 3.445,-1.88 3.291,-3.852 -0.134,-1.749 -1.556,-3.098 -3.275,-3.242 1.818,-1.166 3.246,-2.456 3.829,-3.333 0.494,-0.743 0.648,-1.539 0.897,-2.849 0.681,-3.556 1.641,-6.906 4.021,-7.339 7.051,-1.28 8.521,-10.253 9.229,-14.563 0.059,-0.34 0.104,-0.648 0.15,-0.904 0.292,-0.108 0.662,-0.235 0.969,-0.334 1.938,-0.648 4.866,-1.621 6.491,-4.25 2.024,-2.207 18.712,-8.193 22.399,-8.429 0.294,0.134 0.799,0.439 1.192,0.668 2.318,1.382 6.012,3.576 11.716,2.541 -0.491,0.688 -0.769,1.497 -0.7,2.351 0.141,1.854 1.709,3.301 3.563,3.301 l 0.275,-0.007 c 0.052,-0.007 0.102,-0.022 0.153,-0.026 -0.566,0.236 -1.126,0.472 -1.66,0.701 -2.377,1.032 -4.421,1.032 -6.226,1.032 -2.112,0 -5.308,0 -6.67,3.141 -0.714,1.644 -1.126,3.354 -1.487,4.859 -0.301,1.235 -0.707,2.928 -1.101,3.36 -1.88,2.083 -4.381,3.104 -6.392,3.93 -0.819,0.334 -1.513,0.648 -2.138,0.996 0.671,-0.708 1.058,-1.68 0.979,-2.728 -0.144,-1.851 -1.712,-3.298 -3.562,-3.298 l -0.282,0.01 c -0.95,0.075 -1.821,0.515 -2.437,1.242 -0.622,0.727 -0.923,1.65 -0.851,2.6 0.144,1.853 1.709,3.307 3.563,3.307 l 0.281,-0.013 c 0.419,-0.033 0.806,-0.15 1.166,-0.311 -1.913,1.798 -1.477,4.405 -1.192,6.029 0.406,2.306 0.242,2.521 -0.36,2.908 -1.565,1.005 -3.203,1.569 -4.794,2.109 -0.262,0.092 -0.518,0.19 -0.779,0.282 0.157,-0.452 0.229,-0.943 0.196,-1.451 -0.15,-1.85 -1.716,-3.298 -3.563,-3.298 l -0.285,0.01 c -0.946,0.075 -1.817,0.514 -2.437,1.241 -0.625,0.727 -0.92,1.65 -0.848,2.6 0.118,1.578 1.291,2.8 2.764,3.15 -0.255,0.242 -0.527,0.465 -0.753,0.753 -2.247,2.895 -1.834,6.883 -1.555,9.52 0.052,0.507 0.104,0.973 0.121,1.428 -0.563,0.298 -1.981,0.589 -2.954,0.789 -1.621,0.334 -3.438,0.73 -5.181,1.516 0.207,-0.497 0.311,-1.044 0.269,-1.614 -0.131,-1.683 -1.461,-2.98 -3.098,-3.206 0.734,-0.717 1.173,-1.729 1.088,-2.829 -0.147,-1.85 -1.717,-3.298 -3.563,-3.298 l -0.282,0.01 c -0.95,0.075 -1.82,0.514 -2.437,1.241 -0.625,0.727 -0.923,1.65 -0.851,2.6 0.131,1.703 1.48,3.013 3.131,3.223 -0.085,0.079 -0.197,0.125 -0.269,0.216 -0.622,0.724 -0.923,1.645 -0.852,2.6 0.066,0.865 0.465,1.622 1.035,2.201 -0.563,-0.072 -0.976,-0.19 -1.169,-0.295 -1.765,-4.12 -9.572,-7.869 -14.268,-6.851 -0.822,-0.151 -2.528,-1.867 -4.176,-4.031 0.944,-0.307 1.837,-0.549 2.535,-0.588 z m 43.083,-17.684 0,0 v 0.033 -0.033 z m -49.901,22.877 c 2.509,3.144 5.947,6.216 9.497,5.476 2.309,-0.471 6.92,2.06 7.545,3.173 0.786,2.171 2.912,3.579 5.849,4.011 l 0.075,65.06 -7.45,18.431 7.329,8.128 v 15.83 l -7.584,-3.536 c 1.906,-0.211 3.327,-1.899 3.177,-3.832 -0.145,-1.847 -1.71,-3.295 -3.567,-3.295 l -0.285,0.007 c -1.958,0.158 -3.432,1.88 -3.278,3.845 0.052,0.668 0.331,1.244 0.698,1.756 l -11.934,-5.562 -0.072,-109.492 z m 14.87,115.564 0,0 v 0.032 -0.032 z m 14.148,5.108 v -9.557 l 6.585,7.31 -6.585,2.247 z m 138.244,-6.334 -84.535,38.023 9.771,-19.573 82.555,-38.138 -7.791,19.688 z"
   id="path6691"
   inkscape:connector-curvature="0"
   style="fill:#28a745" />
</g>
</svg>