<?xml version="1.0" encoding="UTF-8" standalone="no"?>
<!-- Generator: Adobe Illustrator 16.0.0, SVG Export Plug-In . SVG Version: 6.00 Build 0)  -->

<svg
   xmlns:dc="http://purl.org/dc/elements/1.1/"
   xmlns:cc="http://creativecommons.org/ns#"
   xmlns:rdf="http://www.w3.org/1999/02/22-rdf-syntax-ns#"
   xmlns:svg="http://www.w3.org/2000/svg"
   xmlns="http://www.w3.org/2000/svg"
   xmlns:xlink="http://www.w3.org/1999/xlink"
   xmlns:sodipodi="http://sodipodi.sourceforge.net/DTD/sodipodi-0.dtd"
   xmlns:inkscape="http://www.inkscape.org/namespaces/inkscape"
   version="1.1"
   x="0px"
   y="0px"
   width="500px"
   height="500px"
   viewBox="0 0 500 500"
   enable-background="new 0 0 500 500"
   xml:space="preserve"
   id="svg6440"
   inkscape:version="0.48.4 r9939"
   sodipodi:docname="ganzglas@2x.svg"><metadata
   id="metadata6469"><rdf:RDF><cc:Work
       rdf:about=""><dc:format>image/svg+xml</dc:format><dc:type
         rdf:resource="http://purl.org/dc/dcmitype/StillImage" /></cc:Work></rdf:RDF></metadata><defs
   id="defs6467" /><sodipodi:namedview
   pagecolor="#ffffff"
   bordercolor="#666666"
   borderopacity="1"
   objecttolerance="10"
   gridtolerance="10"
   guidetolerance="10"
   inkscape:pageopacity="0"
   inkscape:pageshadow="2"
   inkscape:window-width="640"
   inkscape:window-height="480"
   id="namedview6465"
   showgrid="false"
   inkscape:zoom="0.472"
   inkscape:cx="250"
   inkscape:cy="250"
   inkscape:window-x="0"
   inkscape:window-y="0"
   inkscape:window-maximized="0"
   inkscape:current-layer="svg6440" />
<g
   id="Layer_1"
   transform="matrix(1.7682433,0,0,1.7682433,-190.02219,-189.639)">
	<g
   id="bg">
		<path
   d="m 385.533,341.896 c 0,23.922 -19.396,43.317 -43.313,43.317 H 157.638 c -23.922,0 -43.314,-19.396 -43.314,-43.317 V 157.314 C 114.324,133.392 133.716,114 157.638,114 H 342.22 c 23.917,0 43.313,19.392 43.313,43.314 v 184.582 z"
   id="path6444"
   inkscape:connector-curvature="0"
   style="fill:#ffffff" />
		<g
   id="g6446">
			<g
   id="g6448">
				<defs
   id="defs6450">
					<path
   id="SVGID_1_"
   d="m 385.533,341.896 c 0,23.922 -19.396,43.317 -43.313,43.317 H 157.638 c -23.922,0 -43.314,-19.396 -43.314,-43.317 V 157.314 C 114.324,133.392 133.716,114 157.638,114 H 342.22 c 23.917,0 43.313,19.392 43.313,43.314 v 184.582 z"
   inkscape:connector-curvature="0" />
				</defs>
				<clipPath
   id="SVGID_2_">
					<use
   xlink:href="#SVGID_1_"
   overflow="visible"
   id="use6454"
   style="overflow:visible"
   x="0"
   y="0"
   width="500"
   height="500" />
				</clipPath>
				<ellipse
   clip-path="url(#SVGID_2_)"
   cx="250.634"
   cy="376.95099"
   rx="204.146"
   ry="82.195"
   id="ellipse6456"
   sodipodi:cx="250.634"
   sodipodi:cy="376.95099"
   sodipodi:rx="204.146"
   sodipodi:ry="82.195"
   style="fill:#f5f5f5"
   d="m 454.78,376.95099 c 0,45.39504 -91.39928,82.195 -204.146,82.195 -112.74672,0 -204.145993,-36.79996 -204.145993,-82.195 0,-45.39505 91.399273,-82.195 204.145993,-82.195 112.74672,0 204.146,36.79995 204.146,82.195 z" />
			</g>
		</g>
		<path
   d="M 342.22,390.252 H 157.638 c -26.666,0 -48.357,-21.688 -48.357,-48.355 V 157.314 c 0,-26.661 21.691,-48.355 48.357,-48.355 H 342.22 c 26.663,0 48.356,21.694 48.356,48.355 v 184.581 c 0,26.667 -21.693,48.357 -48.356,48.357 z M 157.638,119.043 c -21.103,0 -38.271,17.168 -38.271,38.271 v 184.581 c 0,21.104 17.168,38.275 38.271,38.275 H 342.22 c 21.1,0 38.271,-17.173 38.271,-38.275 V 157.314 c 0,-21.103 -17.172,-38.271 -38.271,-38.271 H 157.638 z"
   id="path6458"
   inkscape:connector-curvature="0"
   style="fill:#28a745" />
	</g>
	<g
   id="Layer_2">
	</g>
</g>
<g
   id="Layer_2_1_"
   transform="matrix(1.7682433,0,0,1.7682433,-190.02219,-189.639)">
</g>
<g
   id="Layer_3"
   transform="matrix(1.7682433,0,0,1.7682433,-190.02219,-189.639)">
	<path
   d="m 267.271,198.568 c -1.902,-1.792 -3.166,-2.979 -3.166,-6.716 0,-6.015 0.02,-24.658 0.025,-32.096 1.283,-0.451 2.206,-1.676 2.206,-3.116 0,-0.207 -0.02,-0.408 -0.055,-0.604 l -0.026,-7.988 c -0.003,-1.416 -0.899,-2.62 -2.15,-3.087 -0.148,-2.288 -1.928,-3.917 -4.346,-3.917 h -17.404 c -2.409,0 -4.188,1.619 -4.343,3.899 -0.464,0.163 -0.893,0.427 -1.248,0.784 -0.619,0.622 -0.967,1.465 -0.967,2.342 l 0.032,8.581 c 0.007,1.435 0.922,2.655 2.206,3.106 -0.006,7.443 -0.026,26.082 -0.026,32.096 0,3.737 -1.261,4.923 -3.166,6.716 -0.342,0.319 -0.677,0.638 -1.009,0.967 -0.132,0.132 -13.151,13.332 -13.151,28.863 v 109.646 c 0,7.248 0.806,12.007 4.926,14.886 3.701,2.589 12.583,5.2 24.09,5.2 h 2.708 c 11.517,0 20.399,-2.611 24.098,-5.2 4.12,-2.886 4.926,-7.645 4.926,-14.886 V 228.398 c 0,-15.532 -13.019,-28.731 -13.147,-28.863 -0.329,-0.329 -0.671,-0.648 -1.013,-0.967 z m -39.985,38.874 c 9.853,2.368 23.469,1.749 29.939,1.261 v 77.47 c -4.984,0.903 -16.946,2.334 -29.939,-1.45 v -77.281 z m 47.543,100.603 c 0,6.661 -0.81,8.563 -2.108,9.473 -1.593,1.119 -8.348,4.011 -20.312,4.011 H 249.7 c -11.961,0 -18.706,-2.892 -20.302,-4.011 -1.338,-0.932 -2.112,-2.779 -2.112,-9.473 v -16.469 c 6.522,1.693 12.713,2.257 17.978,2.257 9.254,0 15.679,-1.686 16.117,-1.805 1.444,-0.388 2.447,-1.696 2.447,-3.186 v -83.748 c 0,-0.938 -0.406,-1.832 -1.103,-2.458 -0.697,-0.626 -1.65,-0.925 -2.56,-0.822 -0.226,0.021 -21.356,2.265 -32.88,-1.217 v -2.199 c 0,-10.646 8.096,-21.074 11.217,-24.193 0.281,-0.28 0.571,-0.551 0.861,-0.825 2.212,-2.081 5.249,-4.932 5.249,-11.528 0,-7.58 0.029,-35.21 0.029,-35.21 0,-0.874 -0.345,-1.715 -0.964,-2.336 -0.354,-0.356 -0.79,-0.622 -1.254,-0.785 l -0.009,-2.352 c 1.276,-0.457 2.192,-1.677 2.192,-3.11 v -0.413 h 12.906 v 0.413 c 0,1.42 0.893,2.631 2.15,3.097 l 0.013,2.391 c -1.251,0.471 -2.141,1.677 -2.141,3.09 0,0 -0.032,27.635 -0.032,35.215 0,6.596 3.03,9.447 5.248,11.528 0.291,0.274 0.581,0.545 0.864,0.825 3.121,3.119 11.214,13.548 11.214,24.193 v 109.647 z"
   id="path6463"
   inkscape:connector-curvature="0"
   style="fill:#28a745" />
</g>
</svg>