<?xml version="1.0" encoding="UTF-8" standalone="no"?>
<!-- Generator: Adobe Illustrator 16.0.0, SVG Export Plug-In . SVG Version: 6.00 Build 0)  -->

<svg
   xmlns:dc="http://purl.org/dc/elements/1.1/"
   xmlns:cc="http://creativecommons.org/ns#"
   xmlns:rdf="http://www.w3.org/1999/02/22-rdf-syntax-ns#"
   xmlns:svg="http://www.w3.org/2000/svg"
   xmlns="http://www.w3.org/2000/svg"
   xmlns:xlink="http://www.w3.org/1999/xlink"
   xmlns:sodipodi="http://sodipodi.sourceforge.net/DTD/sodipodi-0.dtd"
   xmlns:inkscape="http://www.inkscape.org/namespaces/inkscape"
   version="1.1"
   id="Layer_1"
   x="0px"
   y="0px"
   width="500px"
   height="500px"
   viewBox="0 0 500 500"
   enable-background="new 0 0 500 500"
   xml:space="preserve"
   inkscape:version="0.48.4 r9939"
   sodipodi:docname="getraenkekartons@2x.svg"><metadata
   id="metadata3512"><rdf:RDF><cc:Work
       rdf:about=""><dc:format>image/svg+xml</dc:format><dc:type
         rdf:resource="http://purl.org/dc/dcmitype/StillImage" /></cc:Work></rdf:RDF></metadata><defs
   id="defs3510" /><sodipodi:namedview
   pagecolor="#ffffff"
   bordercolor="#666666"
   borderopacity="1"
   objecttolerance="10"
   gridtolerance="10"
   guidetolerance="10"
   inkscape:pageopacity="0"
   inkscape:pageshadow="2"
   inkscape:window-width="830"
   inkscape:window-height="610"
   id="namedview3508"
   showgrid="false"
   inkscape:zoom="0.472"
   inkscape:cx="250"
   inkscape:cy="250"
   inkscape:window-x="0"
   inkscape:window-y="0"
   inkscape:window-maximized="0"
   inkscape:current-layer="Layer_1" />
<g
   id="Layer_1_1_"
   transform="matrix(1.7682397,0,0,1.7682354,-193.235,-190.05917)">
	<g
   id="bg">
		<path
   d="m 385.533,341.896 c 0,23.922 -19.396,43.317 -43.313,43.317 H 157.638 c -23.922,0 -43.313,-19.396 -43.313,-43.317 V 157.314 C 114.325,133.392 133.717,114 157.638,114 H 342.22 c 23.917,0 43.313,19.393 43.313,43.314 v 184.582 z"
   id="path3390"
   inkscape:connector-curvature="0"
   style="fill:#ffffff" />
		<g
   id="g3392">
			<g
   id="g3394">
				<g
   id="g3396">
					<defs
   id="defs3398">
						<path
   id="SVGID_1_"
   d="m 385.533,341.896 c 0,23.922 -19.396,43.317 -43.313,43.317 H 157.638 c -23.922,0 -43.313,-19.396 -43.313,-43.317 V 157.314 C 114.325,133.392 133.717,114 157.638,114 H 342.22 c 23.917,0 43.313,19.393 43.313,43.314 v 184.582 z"
   inkscape:connector-curvature="0" />
					</defs>
					<clipPath
   id="SVGID_2_">
						<use
   xlink:href="#SVGID_1_"
   overflow="visible"
   id="use3402"
   style="overflow:visible"
   x="0"
   y="0"
   width="500"
   height="500" />
					</clipPath>
					<ellipse
   clip-path="url(#SVGID_2_)"
   cx="250.634"
   cy="376.95099"
   rx="204.146"
   ry="82.195"
   id="ellipse3404"
   sodipodi:cx="250.634"
   sodipodi:cy="376.95099"
   sodipodi:rx="204.146"
   sodipodi:ry="82.195"
   style="fill:#f5f5f5"
   d="m 454.78,376.95099 c 0,45.39504 -91.39928,82.195 -204.146,82.195 -112.74672,0 -204.145993,-36.79996 -204.145993,-82.195 0,-45.39505 91.399273,-82.195 204.145993,-82.195 112.74672,0 204.146,36.79995 204.146,82.195 z" />
				</g>
			</g>
		</g>
		<path
   d="M 342.22,390.253 H 157.638 c -26.666,0 -48.357,-21.688 -48.357,-48.355 V 157.314 c 0,-26.661 21.691,-48.355 48.357,-48.355 H 342.22 c 26.663,0 48.356,21.694 48.356,48.355 v 184.581 c 0,26.667 -21.693,48.358 -48.356,48.358 z M 157.638,119.043 c -21.103,0 -38.271,17.168 -38.271,38.271 v 184.581 c 0,21.104 17.168,38.275 38.271,38.275 H 342.22 c 21.1,0 38.271,-17.174 38.271,-38.275 V 157.314 c 0,-21.104 -17.173,-38.271 -38.271,-38.271 H 157.638 z"
   id="path3406"
   inkscape:connector-curvature="0"
   style="fill:#28a745" />
	</g>
	<g
   id="Layer_2">
	</g>
</g>
<g
   id="Layer_2_1_"
   transform="matrix(1.7682397,0,0,1.7682354,-193.235,-190.05917)">
</g>
<g
   id="g3410"
   transform="matrix(1.7682397,0,0,1.7682354,-193.235,-190.05917)">
	<path
   d="m 199.631,177.507 c 0.444,0.59 1.233,0.537 1.565,0.305 0.325,-0.212 0.975,-0.657 1.101,-0.716 8.729,-5.758 18.388,-9.817 28.695,-12.112 33.269,-7.376 67.907,5.585 88.245,33.007 3.356,4.503 6.248,9.326 8.636,14.341 2.746,5.797 4.855,11.979 6.288,18.334 5.082,23.02 0.465,47.335 -12.696,66.937 l -6.606,-5.055 c -0.504,-0.371 -1.141,-0.443 -1.697,-0.172 -0.556,0.271 -0.916,0.836 -0.916,1.445 v 26.652 c 0,0.505 0.253,0.969 0.638,1.274 0.397,0.304 0.902,0.411 1.366,0.292 l 27.673,-5.645 c 0.598,-0.153 1.062,-0.624 1.194,-1.222 0.132,-0.604 -0.093,-1.227 -0.597,-1.612 0,0 -6.54,-4.842 -6.514,-4.882 16.396,-23.893 22.194,-53.679 15.919,-81.954 -1.697,-7.721 -4.259,-15.177 -7.575,-22.208 -2.891,-6.076 -6.408,-11.913 -10.453,-17.379 -18.042,-24.337 -45.676,-39.68 -75.805,-42.107 -10.371,-0.829 -20.818,-0.106 -31.046,2.162 -13.286,2.952 -25.65,8.332 -36.754,16.012 -0.412,0.279 -0.412,0.326 -0.75,0.571 -0.398,0.292 -0.597,0.956 -0.279,1.419 0.279,0.365 0.451,0.578 0.451,0.578 l 9.227,10.938 c 0,0.001 0.351,0.332 0.69,0.797 z"
   id="path3412"
   inkscape:connector-curvature="0"
   style="fill:#28a745" />
	<path
   d="m 300.213,320.93 c -0.438,-0.597 -1.234,-0.537 -1.565,-0.299 -0.318,0.206 -0.969,0.644 -1.088,0.717 -8.743,5.744 -18.374,9.805 -28.722,12.099 -33.249,7.39 -67.894,-5.565 -88.231,-32.993 -3.35,-4.511 -6.249,-9.34 -8.637,-14.354 -2.746,-5.798 -4.855,-11.967 -6.269,-18.321 -5.101,-23.024 -0.484,-47.322 12.676,-66.936 l 6.613,5.048 c 0.497,0.378 1.141,0.438 1.711,0.166 0.557,-0.279 0.895,-0.823 0.895,-1.453 v -26.646 c 0,-0.491 -0.239,-0.969 -0.63,-1.26 -0.398,-0.299 -0.902,-0.411 -1.373,-0.292 l -27.673,5.645 c -0.591,0.139 -1.055,0.617 -1.181,1.228 -0.126,0.597 0.1,1.233 0.59,1.599 0,0 6.54,4.849 6.494,4.888 -16.377,23.88 -22.182,53.676 -15.906,81.955 1.724,7.707 4.278,15.177 7.602,22.194 2.878,6.076 6.395,11.927 10.434,17.385 18.042,24.324 45.676,39.674 75.804,42.108 10.381,0.842 20.806,0.1 31.046,-2.156 13.294,-2.958 25.658,-8.338 36.762,-16.006 0.398,-0.292 0.398,-0.339 0.756,-0.598 0.386,-0.271 0.57,-0.941 0.266,-1.393 -0.266,-0.364 -0.45,-0.591 -0.45,-0.591 l -9.247,-10.931 c 0,0 -0.332,-0.345 -0.677,-0.803 z"
   id="path3414"
   inkscape:connector-curvature="0"
   style="fill:#28a745" />
	<g
   id="g3416">
		<g
   id="g3418">
			<g
   id="g3420">
				<g
   id="g3422">
					<g
   id="g3424">
						<g
   id="g3426">
							<path
   d="m 237.967,204.358 c -0.415,0 -0.63,0.113 -0.63,0.63 V 305.43 c 0,1.047 0.289,1.213 0.584,1.292 0.265,0.087 0.563,0.141 0.948,0.22 l 0.142,0.026 30.955,5.009 3.516,0.497 c 0.126,0.014 0.252,0.025 0.384,0.025 1.114,0 1.234,-0.908 1.234,-1.3 0.02,-0.483 0.02,-2.772 0.02,-2.772 v -99.041 c 0,-1.135 -0.146,-1.393 -0.815,-1.466 -2.321,-0.259 -3.608,-0.385 -3.608,-0.385 l -30.711,-2.979 c -0.007,0 -0.796,-0.086 -1.161,-0.105 -0.354,-0.047 -0.725,-0.087 -0.858,-0.093 z"
   id="path3428"
   inkscape:connector-curvature="0"
   style="fill:#28a745" />
						</g>
					</g>
				</g>
			</g>
		</g>
	</g>
	<g
   id="g3430">
		<g
   id="g3432">
			<g
   id="g3434">
				<g
   id="g3436">
					<g
   id="g3438">
						<g
   id="g3440">
							<g
   id="g3442">
								<path
   d="m 239.681,198.932 c 0.017,0 0.193,0.013 0.435,0.04 0.252,0.02 0.583,0.053 0.909,0.086 l 2.732,0.259 c 3.068,0.278 7.217,0.657 11.178,1.041 2.891,0.272 5.869,0.564 8.676,0.836 3.184,0.312 6.155,0.604 8.517,0.823 1.552,0.152 2.169,0.212 3.184,0.305 l 0.219,0.026 c 0.272,0.04 1.373,0.113 1.87,-0.504 0.379,-0.431 0.937,-1.061 1.043,-1.194 0.013,-0.013 0.019,-0.026 0.026,-0.04 l 5.625,-6.494 c 0,-0.007 0.796,-0.896 0.995,-1.154 0.146,-0.179 0.186,-0.332 0.159,-0.398 -0.034,-0.086 -0.213,-0.206 -0.604,-0.245 -0.576,-0.073 -2.043,-0.219 -2.043,-0.219 l -32.516,-3.058 c -0.003,0 -1.084,-0.1 -1.715,-0.126 -0.352,0 -1.081,0.166 -1.363,0.497 -0.249,0.266 -0.766,0.862 -0.769,0.862 l -5.738,6.58 c -0.02,0.027 -0.75,0.776 -1.367,1.519 -0.146,0.159 -0.189,0.285 -0.186,0.319 0.008,0.013 0.094,0.166 0.733,0.239 -0.003,0 -0.003,0 0,0 z"
   id="path3444"
   inkscape:connector-curvature="0"
   style="fill:#28a745" />
							</g>
						</g>
					</g>
				</g>
			</g>
		</g>
	</g>
	<g
   id="g3446">
		<g
   id="g3448">
			<g
   id="g3450">
				<g
   id="g3452">
					<g
   id="g3454">
						<g
   id="g3456">
							<g
   id="g3458">
								<path
   d="m 249.121,173.937 c -0.697,0 -0.945,0.239 -0.945,0.929 v 7.449 c 0,0.279 0.08,0.942 0.816,1.035 0.216,0.053 0.945,0.133 1.383,0.179 l 0.397,0.047 c 0.047,0 2.469,0.219 8.866,0.81 9.632,0.875 24.191,2.208 24.828,2.248 0.285,0.046 0.465,0.066 0.656,0.046 0.246,-0.04 0.457,-0.219 0.53,-0.365 0.086,-0.192 0.1,-0.537 0.094,-0.677 v -7.416 c 0,-0.464 -0.179,-1.042 -1.016,-1.147 -0.371,-0.066 -1.306,-0.126 -1.313,-0.126 -1.372,-0.126 -33.414,-2.945 -34.044,-3.005 -0.09,-0.007 -0.172,-0.007 -0.252,-0.007 z"
   id="path3460"
   inkscape:connector-curvature="0"
   style="fill:#28a745" />
							</g>
						</g>
					</g>
				</g>
			</g>
		</g>
	</g>
	<g
   id="g3462">
		<g
   id="g3464">
			<g
   id="g3466">
				<path
   d="m 195.787,257.177 c 0.013,0.027 0.026,0.054 0.042,0.087 0.08,0.226 0.266,0.598 0.266,0.598 l 4.799,9.454 c 0.026,0.039 0.046,0.072 0.066,0.099 0.014,-0.02 0.03,-0.039 0.05,-0.06 l 5.605,-7.681 c 0.007,-0.007 0.441,-0.585 0.67,-0.917 0.05,-0.066 0.076,-0.112 0.09,-0.146 -0.037,-0.007 -0.103,-0.02 -0.215,-0.033 l -0.803,-0.093 -10.013,-1.248 0,0 c -0.003,0 -0.251,-0.02 -0.557,-0.06 z"
   id="path3468"
   inkscape:connector-curvature="0"
   style="fill:#28a745" />
			</g>
		</g>
	</g>
	<g
   id="g3470">
		<g
   id="g3472">
			<g
   id="g3474">
				<path
   d="m 231.65,252.238 c -0.481,0.179 -2.601,1.003 -3.978,1.539 l -9.939,3.831 c -0.315,0.126 -0.547,0.22 -0.723,0.279 l -0.203,0.073 c -0.007,0 -0.132,0.046 -0.139,0.053 -0.126,0.06 -0.212,0.093 -0.212,0.783 0,0.505 -0.014,1.533 -0.014,1.533 v 44.149 c -0.003,0.207 -0.006,0.438 0,0.678 0.006,0.292 0.037,0.444 0.06,0.524 0.1,-0.021 0.229,-0.08 0.302,-0.113 1.977,-0.896 10.563,-4.723 13.575,-6.05 l 0.763,-0.332 c 0.07,-0.032 0.149,-0.065 0.219,-0.105 0.103,-0.066 0.272,-0.306 0.272,-0.458 l 0.013,-0.464 c 0.007,-0.232 0.007,-0.298 0,-0.724 l 0.004,-45.196 z"
   id="path3476"
   inkscape:connector-curvature="0"
   style="fill:#28a745" />
			</g>
		</g>
	</g>
	<g
   id="g3478">
		<g
   id="g3480">
			<path
   d="m 192.331,261.769 v 41.245 c 0,0.192 0.053,0.404 0.438,0.537 0.202,0.06 0.451,0.087 0.451,0.087 0.212,0.032 16.619,2.924 17.1,2.997 l 0.093,0.007 c 0.368,0 0.415,-0.305 0.422,-0.338 0.066,-0.432 0.069,-0.863 0.069,-0.875 v -42.785 l -8.049,11.045 c -0.275,0.392 -0.896,1.254 -1.095,1.486 -0.129,0.159 -0.269,0.357 -0.444,0.616 -0.152,0.213 -0.501,0.684 -1.005,0.684 -0.239,0 -0.58,-0.106 -0.842,-0.598 -0.053,-0.086 -0.09,-0.146 -0.116,-0.179 -0.033,-0.034 -0.06,-0.073 -0.083,-0.12 l -6.939,-13.809 z"
   id="path3482"
   inkscape:connector-curvature="0"
   style="fill:#28a745" />
		</g>
	</g>
	<g
   id="g3484">
		<g
   id="g3486">
			<g
   id="g3488">
				<g
   id="g3490">
					<g
   id="g3492">
						<g
   id="g3494">
							<g
   id="g3496">
								<g
   id="g3498">
									<g
   id="g3500">
										<path
   d="m 282.98,203.953 c 0,0 -0.119,0.146 -0.889,1.035 l -0.836,0.975 c -0.53,0.57 -0.551,0.889 -0.557,1.612 l 0.006,102.676 c 0,0.644 0.008,0.724 0.04,0.922 0.021,0.066 0.126,0.073 0.152,0.073 v 0.518 l 0.014,-0.518 c 0.278,-0.039 0.504,-0.158 0.703,-0.266 1.891,-1.008 2.547,-1.354 2.825,-1.473 l -0.006,-0.006 10.4,-5.168 c 0.008,0 0.989,-0.497 2.023,-1.081 0.988,-0.576 0.988,-1.425 0.988,-2.335 v -97.462 c 0,-1.001 -0.126,-1.207 -0.623,-1.598 l -4.478,-3.655 c -0.04,-0.034 -0.232,-0.186 -0.491,-0.392 -0.915,-0.716 -1.824,-1.433 -2.037,-1.632 -0.139,-0.119 -0.238,-0.153 -0.271,-0.153 -0.093,0 -0.245,0.12 -0.41,0.325 -0.227,0.272 -1.778,2.05 -1.885,2.149 l -4.683,5.465 c 0.015,-0.004 0.015,-0.011 0.015,-0.011 z"
   id="path3502"
   inkscape:connector-curvature="0"
   style="fill:#28a745" />
									</g>
								</g>
							</g>
						</g>
					</g>
				</g>
			</g>
		</g>
	</g>
	<path
   d="m 231.304,245.961 c -0.252,-0.026 -1.757,-0.251 -1.757,-0.251 l -13.943,-1.599 c 0,0 -0.199,-0.053 -0.703,-0.113 -1.042,-0.133 -1.499,0.04 -1.811,0.119 -0.305,0.066 -0.643,0.199 -0.776,0.252 -0.724,0.279 -1.738,0.65 -2.919,1.062 l -0.112,-0.345 c -0.63,-1.87 -3.98,-12.364 -5.075,-15.741 -0.172,-0.537 -0.896,-1.856 -1.679,-2.494 -0.948,-0.783 -2.308,-1.439 -4.218,-1.373 -1.579,0.053 -2.885,0.862 -4.093,1.751 -1.379,1.062 -10.049,8.132 -10.102,8.172 -0.67,0.637 -1.054,1.499 -1.094,2.467 -0.027,1.107 0.451,2.282 1.333,3.204 0.902,0.962 2.096,1.505 3.23,1.505 1.134,0 2.361,-0.835 2.361,-0.835 0.085,-0.066 1.923,-1.552 3.734,-3.025 0.577,-0.438 1.552,-1.234 1.758,-1.413 0.285,-0.239 1.492,-1.26 1.639,-1.366 0.231,-0.219 0.292,0.007 0.338,0.133 0.1,0.312 0.458,1.473 0.537,1.811 0.106,0.319 0.69,2.249 0.69,2.249 l 2.646,8.198 c -2.308,0.83 -4.51,1.612 -6.195,2.236 -0.239,0.093 -0.916,0.371 -1.731,0.677 -0.604,0.219 -0.717,0.491 0.1,0.577 0.392,0.047 0.995,0.146 1.207,0.166 4.186,0.505 16.397,2.012 16.723,2.071 0.212,0.026 0.624,0.073 0.796,0.073 0.299,0 0.916,-0.126 1.101,-0.179 l 0.504,-0.174 16.292,-6.356 c 0,0 0.756,-0.318 0.995,-0.411 0.199,-0.08 0.312,-0.153 0.478,-0.213 0.662,-0.318 0.475,-0.722 -0.254,-0.835 z m -23.853,2.767 c -0.04,0.126 -0.093,0.219 -0.179,0.312 -0.239,0.219 -0.59,0.358 -0.982,0.411 -0.186,0.04 -0.518,0.04 -0.67,0.04 -0.384,0 -0.67,-0.066 -0.822,-0.105 -0.08,-0.034 -0.126,-0.066 -0.186,-0.106 l -0.08,-0.081 c -0.06,-0.06 -0.099,-0.158 -0.125,-0.191 l -5.506,-17.114 c 0,0 -0.106,-0.326 -0.139,-0.431 -0.066,-0.186 -0.219,-0.219 -0.312,-0.113 -0.139,0.086 -0.431,0.325 -0.431,0.325 l -9.3,7.509 c -0.033,-0.558 -0.279,-1.155 -0.723,-1.646 -0.338,-0.385 -0.763,-0.65 -1.181,-0.796 2.183,-1.758 8.557,-6.846 9.326,-7.482 0.531,-0.425 1.274,-0.968 2.023,-1.075 0.372,-0.08 0.876,-0.066 1.387,0.066 0.483,0.113 0.895,0.385 1.161,0.61 0.351,0.319 0.637,0.716 0.869,1.42 0.637,1.923 5.791,17.989 5.831,18.135 0.039,0.066 0.066,0.172 0.039,0.312 z"
   id="path3504"
   inkscape:connector-curvature="0"
   style="fill:#28a745" />
	<path
   d="M 197.262,235.872"
   id="path3506"
   inkscape:connector-curvature="0"
   style="fill:#28a745" />
</g>
</svg>