<?xml version="1.0" encoding="UTF-8" standalone="no"?>
<!-- Generator: Adobe Illustrator 16.0.0, SVG Export Plug-In . SVG Version: 6.00 Build 0)  -->

<svg
   xmlns:dc="http://purl.org/dc/elements/1.1/"
   xmlns:cc="http://creativecommons.org/ns#"
   xmlns:rdf="http://www.w3.org/1999/02/22-rdf-syntax-ns#"
   xmlns:svg="http://www.w3.org/2000/svg"
   xmlns="http://www.w3.org/2000/svg"
   xmlns:xlink="http://www.w3.org/1999/xlink"
   xmlns:sodipodi="http://sodipodi.sourceforge.net/DTD/sodipodi-0.dtd"
   xmlns:inkscape="http://www.inkscape.org/namespaces/inkscape"
   version="1.1"
   x="0px"
   y="0px"
   width="500px"
   height="500px"
   viewBox="0 0 500 500"
   enable-background="new 0 0 500 500"
   xml:space="preserve"
   id="svg5036"
   inkscape:version="0.48.4 r9939"
   sodipodi:docname="glas@2x.svg"><metadata
   id="metadata5089"><rdf:RDF><cc:Work
       rdf:about=""><dc:format>image/svg+xml</dc:format><dc:type
         rdf:resource="http://purl.org/dc/dcmitype/StillImage" /></cc:Work></rdf:RDF></metadata><defs
   id="defs5087" /><sodipodi:namedview
   pagecolor="#ffffff"
   bordercolor="#666666"
   borderopacity="1"
   objecttolerance="10"
   gridtolerance="10"
   guidetolerance="10"
   inkscape:pageopacity="0"
   inkscape:pageshadow="2"
   inkscape:window-width="640"
   inkscape:window-height="480"
   id="namedview5085"
   showgrid="false"
   inkscape:zoom="0.472"
   inkscape:cx="250"
   inkscape:cy="250"
   inkscape:window-x="0"
   inkscape:window-y="0"
   inkscape:window-maximized="0"
   inkscape:current-layer="svg5036" />
<g
   id="bg"
   transform="matrix(1.7682433,0,0,1.7682433,-190.00524,-189.52035)">
	<path
   d="m 385.533,341.896 c 0,23.922 -19.396,43.318 -43.313,43.318 H 157.638 c -23.922,0 -43.314,-19.396 -43.314,-43.318 V 157.314 C 114.324,133.392 133.716,114 157.638,114 H 342.22 c 23.917,0 43.313,19.392 43.313,43.314 v 184.582 z"
   id="path5039"
   inkscape:connector-curvature="0"
   style="fill:#ffffff" />
	<g
   id="g5041">
		<defs
   id="defs5043">
			<path
   id="SVGID_1_"
   d="m 385.533,341.896 c 0,23.922 -19.396,43.318 -43.313,43.318 H 157.638 c -23.922,0 -43.314,-19.396 -43.314,-43.318 V 157.314 C 114.324,133.392 133.716,114 157.638,114 H 342.22 c 23.917,0 43.313,19.392 43.313,43.314 v 184.582 z"
   inkscape:connector-curvature="0" />
		</defs>
		<clipPath
   id="SVGID_2_">
			<use
   xlink:href="#SVGID_1_"
   overflow="visible"
   id="use5047"
   style="overflow:visible"
   x="0"
   y="0"
   width="500"
   height="500" />
		</clipPath>
		<ellipse
   clip-path="url(#SVGID_2_)"
   cx="250.634"
   cy="376.95099"
   rx="204.146"
   ry="82.195"
   id="ellipse5049"
   sodipodi:cx="250.634"
   sodipodi:cy="376.95099"
   sodipodi:rx="204.146"
   sodipodi:ry="82.195"
   style="fill:#f5f5f5"
   d="m 454.78,376.95099 c 0,45.39504 -91.39928,82.195 -204.146,82.195 -112.74672,0 -204.145993,-36.79996 -204.145993,-82.195 0,-45.39505 91.399273,-82.195 204.145993,-82.195 112.74672,0 204.146,36.79995 204.146,82.195 z" />
	</g>
	<path
   d="M 342.22,390.252 H 157.638 c -26.666,0 -48.357,-21.688 -48.357,-48.356 V 157.314 c 0,-26.661 21.691,-48.355 48.357,-48.355 H 342.22 c 26.663,0 48.356,21.694 48.356,48.355 v 184.581 c 0,26.668 -21.693,48.357 -48.356,48.357 z M 157.638,119.043 c -21.103,0 -38.271,17.168 -38.271,38.271 v 184.581 c 0,21.103 17.168,38.275 38.271,38.275 H 342.22 c 21.099,0 38.271,-17.173 38.271,-38.275 V 157.314 c 0,-21.103 -17.172,-38.271 -38.271,-38.271 H 157.638 z"
   id="path5051"
   inkscape:connector-curvature="0"
   style="fill:#28a745" />
</g>
<g
   id="Layer_2"
   transform="matrix(1.7682433,0,0,1.7682433,-190.00524,-189.52035)">
</g>
<g
   id="Layer_3"
   transform="matrix(1.7682433,0,0,1.7682433,-190.00524,-189.52035)">
	<path
   d="m 336.438,222.552 c -2.343,-5.021 -4.551,-9.764 -5.312,-12.877 -1.842,-7.548 -1.894,-19.532 -1.894,-20.875 v -19.862 l 1.348,-1.623 v -10.342 l -1.447,-1.52 c 0.01,-0.237 0.013,-0.47 0.013,-0.675 0,-3.718 -2.567,-5.043 -4.968,-5.043 h -17.859 c -2.4,0 -4.965,1.325 -4.965,5.043 0,0.205 0.003,0.438 0.01,0.675 l -1.447,1.52 v 10.342 l 1.351,1.623 V 188.8 c 0,1.343 -0.051,13.327 -1.893,20.875 -0.761,3.113 -2.969,7.856 -5.312,12.877 -2.433,5.218 -5.196,11.135 -7.055,16.749 -1.822,5.498 -3.177,10.003 -4.095,14.321 -1.989,-0.021 -4.165,-0.028 -6.56,-0.028 -2.574,0 -5.347,0.008 -8.325,0.033 h -3.616 c -2.979,-0.025 -2.674,-0.033 -5.247,-0.033 -21.711,0 -29.233,0.821 -30.7,1.664 -3.065,1.352 -3.065,3.965 -3.065,4.953 l 0.048,2.494 c -0.947,0.551 -2.054,2.287 -2.054,3.787 0,0.549 0.183,1.123 0.503,1.602 0.802,1.229 2.503,0.91 2.645,3.189 -0.414,1.303 -0.783,2.295 -1.823,3.373 -1.175,1.225 -2.638,2.746 -3.389,5.109 -0.054,0.215 -0.112,0.486 -0.112,0.805 0,9.115 0.642,30.09 1.079,43.488 l 0.446,13.91 c 0.787,4.209 3.787,7.811 5.562,9.967 l 0.562,0.672 c 0.205,0.289 0.488,0.535 0.831,0.721 4.801,2.779 16.043,4.191 33.405,4.225 l 2.35,-0.01 3.254,0.016 c 4.91,0 9.316,-0.115 13.254,-0.334 0.953,5.842 4.108,7.693 7.183,8.678 l 0.202,0.064 c 2.256,0.732 8.064,0.957 24.881,0.957 h 2.048 c 16.813,0 22.625,-0.225 24.882,-0.957 l 0.198,-0.064 c 3.579,-1.148 7.267,-3.453 7.478,-11.861 0.196,-7.939 0.206,-81.617 0.206,-82.359 0,-9.91 -1.788,-17.045 -5.546,-28.381 -1.859,-5.615 -4.619,-11.532 -7.055,-16.75 z m -54.974,45.13 c 0,0.693 0.006,64.754 0.167,79.873 -3.81,0.209 -8.094,0.316 -12.779,0.316 h -5.261 c -15.503,0 -26.694,-1.209 -30.433,-3.129 -1.021,-1.039 -4.153,-4.209 -4.711,-7.402 0.009,-0.232 -0.016,-3.402 -0.106,-5.854 l -0.215,-6.914 c -0.436,-13.35 -1.088,-34.262 -1.155,-43.299 0.35,-0.977 1.079,-1.777 2.009,-2.76 1.71,-1.791 2.875,-4.256 2.988,-8.971 0,-0.988 -0.437,-7.949 -0.437,-8.77 l 0.292,-0.508 c 1.136,-0.393 6.226,-1.156 32.545,-0.973 h 3.706 c 5.508,-0.041 10.077,-0.035 13.887,-0.004 -0.33,2.676 -0.497,5.406 -0.497,8.395 z m 6.155,0 c 0,-2.971 0.17,-5.658 0.523,-8.299 9.232,0.203 11.727,0.623 12.474,0.883 l 0.296,0.508 c 0,0.82 -0.437,7.781 -0.437,8.77 0.115,4.715 1.28,7.18 2.991,8.971 0.927,0.982 1.655,1.783 2.005,2.76 -0.063,9.037 -0.719,29.949 -1.155,43.299 l -0.215,6.914 c -0.086,2.451 -0.112,5.621 -0.105,5.854 -0.556,3.193 -3.688,6.363 -4.711,7.402 -1.952,0.998 -5.947,1.807 -11.506,2.35 -0.157,-15.635 -0.16,-78.725 -0.16,-79.412 z m 55.062,82.214 c -0.132,5.299 -1.711,5.807 -3.241,6.293 l -0.231,0.078 c -2.07,0.648 -16.691,0.648 -22.934,0.648 h -2.048 c -6.241,0 -20.863,0 -22.933,-0.648 l -0.234,-0.078 c -1.188,-0.375 -2.404,-0.779 -2.949,-3.42 6.97,-0.693 11.874,-1.84 14.637,-3.441 0.341,-0.186 0.626,-0.432 0.832,-0.721 l 0.558,-0.672 c 1.778,-2.156 4.775,-5.758 5.565,-9.967 l 0.442,-13.91 c 0.437,-13.398 1.078,-34.373 1.078,-43.488 0,-0.318 -0.054,-0.59 -0.112,-0.805 -0.747,-2.363 -2.211,-3.885 -3.389,-5.109 -1.04,-1.078 -1.409,-2.07 -1.823,-3.373 0.139,-2.279 1.846,-1.961 2.648,-3.189 0.32,-0.479 0.5,-1.053 0.5,-1.602 0,-1.5 -1.104,-3.236 -2.054,-3.787 l 0.048,-2.494 c 0,-0.988 0,-3.602 -3.064,-4.953 -1.113,-0.643 -3.96,-1.268 -14.798,-1.533 0.854,-3.722 2.07,-7.699 3.685,-12.575 1.749,-5.284 4.429,-11.035 6.797,-16.105 2.577,-5.528 4.801,-10.299 5.699,-13.977 2.003,-8.216 2.064,-20.854 2.064,-22.268 v -21.998 l -1.354,-1.621 v -5.845 l 1.572,-1.648 -0.077,-1.277 c 0,-0.01 -0.016,-0.302 -0.032,-0.667 h 15.437 c -0.016,0.366 -0.032,0.658 -0.035,0.667 l -0.073,1.277 1.572,1.648 v 5.845 l -1.352,1.621 V 188.8 c 0,1.414 0.055,14.052 2.058,22.268 0.898,3.678 3.122,8.448 5.699,13.977 2.369,5.07 5.049,10.821 6.801,16.105 3.626,10.945 5.247,17.37 5.247,26.532 -10e-4,0.742 -0.011,74.343 -0.206,82.214 z"
   id="path5055"
   inkscape:connector-curvature="0"
   style="fill:#28a745" />
	<path
   d="m 157.471,172.099 c 3.925,0 7.025,-0.766 10.083,-2.67 v -13.102 h -10.876 l 0.873,5.276 h 3.187 v 4.687 c -0.693,0.307 -1.785,0.46 -2.658,0.46 -3.321,0 -4.759,-2.708 -4.759,-8.331 0,-6.896 1.967,-8.835 5.151,-8.835 2.016,0 3.893,0.896 5.331,2.243 l 3.928,-4.217 c -2.539,-2.25 -5.937,-3.452 -9.435,-3.452 -8.729,0 -12.567,6.588 -12.567,14.491 -0.001,10.472 6.636,13.45 11.742,13.45 z"
   id="path5057"
   inkscape:connector-curvature="0"
   style="fill:#28a745" />
	<polygon
   points="173.838,171.639 188.363,171.639 189.676,166.29 180.642,166.29 180.642,144.625 173.838,144.625 "
   id="polygon5059"
   style="fill:#28a745" />
	<path
   d="m 201.062,144.625 -8.556,27.014 h 7.205 l 1.482,-5.389 h 6.547 l 1.448,5.389 h 7.333 l -8.039,-27.014 h -7.42 z m 1.489,16.895 1.389,-6.2 c 0.309,-1.314 0.53,-2.672 0.568,-3.796 h 0.093 c 0.045,1.125 0.212,2.482 0.52,3.796 l 1.403,6.2 h -3.973 z"
   id="path5061"
   inkscape:connector-curvature="0"
   style="fill:#28a745" />
	<path
   d="m 229.127,166.905 c -2.664,0 -5.022,-0.961 -6.896,-2.202 l -2.889,4.841 c 2.536,1.55 5.899,2.555 9.824,2.555 6.377,0 11.531,-3.177 11.531,-9.066 0,-5.037 -3.318,-6.743 -6.38,-7.713 l -3.087,-0.968 c -1.71,-0.541 -2.937,-1.353 -2.937,-2.829 0,-1.55 1.483,-2.288 3.277,-2.288 2.006,0 3.845,0.855 5.59,1.782 l 3.097,-4.458 c -2.311,-1.433 -5.681,-2.4 -9.301,-2.4 -5.802,0 -10.08,3.413 -10.08,8.561 0,5.077 3.405,6.552 6.46,7.677 l 2.182,0.81 c 1.967,0.743 3.572,1.167 3.572,2.835 0,1.823 -1.566,2.863 -3.963,2.863 z"
   id="path5063"
   inkscape:connector-curvature="0"
   style="fill:#28a745" />
	<path
   d="m 158.825,192.977 c -0.436,1.742 -0.882,2.904 -1.309,5.228 h -0.093 c -0.481,-2.323 -0.825,-3.563 -1.216,-5.228 l -3.148,-13.914 h -7.545 l 8.075,27.013 h 7.725 l 8.338,-27.013 h -7.205 l -3.622,13.914 z"
   id="path5065"
   inkscape:connector-curvature="0"
   style="fill:#28a745" />
	<polygon
   points="181.033,184.371 189.152,184.371 189.852,179.063 174.226,179.063 174.226,206.076 189.932,206.076 189.932,200.65 181.033,200.65 181.033,194.641 187.67,194.641 187.67,189.443 181.033,189.443 "
   id="polygon5067"
   style="fill:#28a745" />
	<path
   d="m 209.098,194.099 c 2.708,-0.583 5.411,-2.788 5.411,-7.319 0,-4.384 -2.445,-7.717 -10.777,-7.717 h -8.562 v 27.016 h 6.813 v -10.66 c 1.486,0 2.221,0.385 3.232,3.177 l 2.702,7.482 h 7.984 c -0.863,-2.023 -3.139,-7.014 -4.095,-9.068 -0.66,-1.402 -1.79,-2.642 -2.708,-2.911 z m -5.414,-3.68 h -1.701 v -6.084 h 1.653 c 2.317,0 3.408,0.658 3.408,2.824 0,2.018 -0.745,3.26 -3.36,3.26 z"
   id="path5069"
   inkscape:connector-curvature="0"
   style="fill:#28a745" />
	<path
   d="m 239.162,186.78 c 0,-4.384 -2.439,-7.717 -10.78,-7.717 h -8.556 v 27.016 h 6.807 v -10.66 c 1.483,0 2.224,0.385 3.238,3.177 l 2.702,7.482 h 7.985 c -0.876,-2.023 -3.142,-7.014 -4.099,-9.068 -0.658,-1.402 -1.791,-2.643 -2.711,-2.912 2.712,-0.582 5.414,-2.787 5.414,-7.318 z m -10.825,3.639 h -1.704 v -6.084 h 1.659 c 2.311,0 3.408,0.658 3.408,2.824 0.001,2.018 -0.744,3.26 -3.363,3.26 z"
   id="path5071"
   inkscape:connector-curvature="0"
   style="fill:#28a745" />
	<polygon
   points="258.537,189.443 251.896,189.443 251.896,184.371 260.022,184.371 260.716,179.063 245.096,179.063 245.096,206.076 260.812,206.076 260.812,200.65 251.896,200.65 251.896,194.641 258.537,194.641 "
   id="polygon5073"
   style="fill:#28a745" />
	<path
   d="m 158.825,227.411 c -0.436,1.749 -0.882,2.912 -1.309,5.231 h -0.093 c -0.481,-2.319 -0.825,-3.562 -1.216,-5.231 L 153.059,213.5 h -7.545 l 8.075,27.011 h 7.725 l 8.338,-27.011 h -7.205 l -3.622,13.911 z"
   id="path5075"
   inkscape:connector-curvature="0"
   style="fill:#28a745" />
	<polygon
   points="181.033,218.805 189.152,218.805 189.852,213.5 174.226,213.5 174.226,240.511 189.932,240.511 189.932,235.09 181.033,235.09 181.033,229.08 187.67,229.08 187.67,223.884 181.033,223.884 "
   id="polygon5077"
   style="fill:#28a745" />
	<polygon
   points="207.127,218.771 213.244,218.771 214.117,213.5 194.075,213.5 194.075,218.771 200.228,218.771 200.228,240.516 207.127,240.516 "
   id="polygon5079"
   style="fill:#28a745" />
	<path
   d="m 225.286,229.856 c 1.486,0 2.227,0.385 3.231,3.176 l 2.699,7.484 h 7.998 c -0.876,-2.015 -3.152,-7.017 -4.108,-9.071 -0.658,-1.395 -1.794,-2.635 -2.708,-2.909 2.708,-0.583 5.417,-2.788 5.417,-7.319 0,-4.384 -2.449,-7.717 -10.786,-7.717 h -8.546 v 27.016 h 6.804 v -10.66 z m 0,-11.085 h 1.659 c 2.314,0 3.411,0.661 3.411,2.827 0,2.016 -0.757,3.256 -3.376,3.256 h -1.694 v -6.083 z"
   id="path5081"
   inkscape:connector-curvature="0"
   style="fill:#28a745" />
	<path
   d="m 254.913,240.978 c 9.474,0 11.878,-7.251 11.878,-14.997 0,-5.933 -3.02,-12.945 -12.061,-12.945 -6.98,0 -11.816,5.037 -11.816,14.644 0,8.109 4.278,13.298 11.999,13.298 z m -0.128,-22.94 c 2.927,0 4.403,1.433 4.403,8.721 0,7.125 -1.349,9.102 -4.275,9.102 -2.792,0 -4.357,-1.938 -4.357,-9.033 0,-5.152 1.129,-8.79 4.229,-8.79 z"
   id="path5083"
   inkscape:connector-curvature="0"
   style="fill:#28a745" />
</g>
</svg>