<?xml version="1.0" encoding="UTF-8" standalone="no"?>
<!-- Generator: Adobe Illustrator 16.0.0, SVG Export Plug-In . SVG Version: 6.00 Build 0)  -->

<svg
   xmlns:dc="http://purl.org/dc/elements/1.1/"
   xmlns:cc="http://creativecommons.org/ns#"
   xmlns:rdf="http://www.w3.org/1999/02/22-rdf-syntax-ns#"
   xmlns:svg="http://www.w3.org/2000/svg"
   xmlns="http://www.w3.org/2000/svg"
   xmlns:xlink="http://www.w3.org/1999/xlink"
   xmlns:sodipodi="http://sodipodi.sourceforge.net/DTD/sodipodi-0.dtd"
   xmlns:inkscape="http://www.inkscape.org/namespaces/inkscape"
   version="1.1"
   x="0px"
   y="0px"
   width="500px"
   height="500px"
   viewBox="0 0 500 500"
   enable-background="new 0 0 500 500"
   xml:space="preserve"
   id="svg6094"
   inkscape:version="0.48.4 r9939"
   sodipodi:docname="grubengut@2x.svg"><metadata
   id="metadata6125"><rdf:RDF><cc:Work
       rdf:about=""><dc:format>image/svg+xml</dc:format><dc:type
         rdf:resource="http://purl.org/dc/dcmitype/StillImage" /></cc:Work></rdf:RDF></metadata><defs
   id="defs6123" /><sodipodi:namedview
   pagecolor="#ffffff"
   bordercolor="#666666"
   borderopacity="1"
   objecttolerance="10"
   gridtolerance="10"
   guidetolerance="10"
   inkscape:pageopacity="0"
   inkscape:pageshadow="2"
   inkscape:window-width="640"
   inkscape:window-height="480"
   id="namedview6121"
   showgrid="false"
   inkscape:zoom="0.472"
   inkscape:cx="250"
   inkscape:cy="250"
   inkscape:window-x="0"
   inkscape:window-y="0"
   inkscape:window-maximized="0"
   inkscape:current-layer="svg6094" />
<g
   id="Layer_1"
   transform="matrix(1.7682433,0,0,1.7682433,-189.76796,-189.87629)">
	<g
   id="bg">
		<path
   d="m 385.533,341.896 c 0,23.922 -19.396,43.317 -43.313,43.317 H 157.638 c -23.922,0 -43.314,-19.396 -43.314,-43.317 V 157.314 C 114.324,133.392 133.716,114 157.638,114 H 342.22 c 23.917,0 43.313,19.392 43.313,43.314 v 184.582 z"
   id="path6098"
   inkscape:connector-curvature="0"
   style="fill:#ffffff" />
		<g
   id="g6100">
			<g
   id="g6102">
				<defs
   id="defs6104">
					<path
   id="SVGID_1_"
   d="m 385.533,341.896 c 0,23.922 -19.396,43.317 -43.313,43.317 H 157.638 c -23.922,0 -43.314,-19.396 -43.314,-43.317 V 157.314 C 114.324,133.392 133.716,114 157.638,114 H 342.22 c 23.917,0 43.313,19.392 43.313,43.314 v 184.582 z"
   inkscape:connector-curvature="0" />
				</defs>
				<clipPath
   id="SVGID_2_">
					<use
   xlink:href="#SVGID_1_"
   overflow="visible"
   id="use6108"
   style="overflow:visible"
   x="0"
   y="0"
   width="500"
   height="500" />
				</clipPath>
				<ellipse
   clip-path="url(#SVGID_2_)"
   cx="250.634"
   cy="376.95099"
   rx="204.146"
   ry="82.195"
   id="ellipse6110"
   sodipodi:cx="250.634"
   sodipodi:cy="376.95099"
   sodipodi:rx="204.146"
   sodipodi:ry="82.195"
   style="fill:#f5f5f5"
   d="m 454.78,376.95099 c 0,45.39504 -91.39928,82.195 -204.146,82.195 -112.74672,0 -204.145993,-36.79996 -204.145993,-82.195 0,-45.39505 91.399273,-82.195 204.145993,-82.195 112.74672,0 204.146,36.79995 204.146,82.195 z" />
			</g>
		</g>
		<path
   d="M 342.22,390.252 H 157.638 c -26.666,0 -48.357,-21.688 -48.357,-48.355 V 157.314 c 0,-26.661 21.691,-48.355 48.357,-48.355 H 342.22 c 26.663,0 48.356,21.694 48.356,48.355 v 184.581 c 0,26.667 -21.693,48.357 -48.356,48.357 z M 157.638,119.043 c -21.103,0 -38.271,17.168 -38.271,38.271 v 184.581 c 0,21.104 17.168,38.275 38.271,38.275 H 342.22 c 21.1,0 38.271,-17.173 38.271,-38.275 V 157.314 c 0,-21.103 -17.172,-38.271 -38.271,-38.271 H 157.638 z"
   id="path6112"
   inkscape:connector-curvature="0"
   style="fill:#28a745" />
	</g>
	<g
   id="Layer_2">
	</g>
</g>
<g
   id="Layer_2_1_"
   transform="matrix(1.7682433,0,0,1.7682433,-189.76796,-189.87629)">
</g>
<g
   id="Layer_3"
   transform="matrix(1.7682433,0,0,1.7682433,-189.76796,-189.87629)">
	<path
   d="m 309.893,197.035 c -16.51,0 -33.697,3.122 -43.02,9.044 l -15.927,-62.649 -112.454,17.521 17.229,82.703 17.246,-28.568 -2.711,31.046 12.436,-8.681 -2.084,14.346 14.938,-4.928 -12.146,8.805 8.312,3.855 -24.564,1.239 -5.843,8.35 11.587,49.351 16.445,-6.146 c 0.12,1.114 0.24,2.243 0.363,3.38 2.472,23.635 11.57,33.965 11.66,34.055 1.663,1.649 6.422,5.601 14.706,6.524 1.67,0.185 3.45,0.288 5.264,0.288 6.936,0 14.46,-1.515 18.779,-5.841 3.56,-3.567 6.306,-9.476 7.538,-12.438 22.432,-2.945 27.557,-12.079 29.247,-22.621 7.846,3.601 19.19,5.676 32.417,5.771 0.366,0 0.727,0.008 1.088,0.008 24.09,0 40.114,-5.805 43.023,-15.837 l 1.875,-9.29 c 0.25,-0.821 0.415,-1.664 0.415,-2.546 0,-3.293 -1.928,-7.922 -10.67,-11.872 l 8.835,-44.78 c 3.796,-2.662 6.083,-5.833 6.083,-9.521 V 216.27 c 0,-12.497 -25.797,-19.235 -50.067,-19.235 z m -43.906,28.823 c 3.958,2.752 9.567,4.931 16.059,6.52 l 1.961,5.505 c -11.419,-2.739 -18.02,-6.971 -18.02,-10.28 v -1.745 z m -80.365,53.033 h -0.031 c 0,0.056 0.004,0.127 0.004,0.185 -0.004,0.121 -0.038,0.23 -0.038,0.35 0,0.411 0.076,0.801 0.144,1.198 0.13,1.321 0.332,2.64 0.359,2.774 0.01,0.121 1.222,10.117 2.591,22.592 l -11.354,4.245 -9.356,-39.84 2.534,-3.617 46.5,-2.345 -21.442,-9.935 35.741,-25.905 -43.129,14.221 2.705,-18.579 -13.303,9.284 3.875,-44.383 -22.866,37.879 -12.7,-60.964 85.613,-13.338 -28.405,67.975 c -0.452,1.07 0.055,2.302 1.126,2.752 0.264,0.109 0.537,0.161 0.812,0.161 0.821,0 1.602,-0.484 1.937,-1.292 l 29.405,-70.358 9.517,-1.482 -18.903,43.924 c -0.452,1.068 0.041,2.306 1.102,2.763 0.274,0.117 0.555,0.173 0.832,0.173 0.818,0 1.588,-0.478 1.934,-1.272 l 17.062,-39.651 6.243,24.57 -20.32,61.68 c -0.37,1.104 0.232,2.292 1.334,2.653 0.22,0.076 0.446,0.107 0.658,0.107 0.89,0 1.711,-0.561 2,-1.446 l 18.255,-55.406 2.01,7.909 -11.939,38.345 c -0.343,1.109 0.273,2.287 1.383,2.631 0.205,0.067 0.417,0.096 0.622,0.096 0.897,0 1.732,-0.577 2.009,-1.479 l 9.904,-31.805 1.657,6.532 c -1.182,1.684 -1.89,3.5 -1.89,5.477 0,0.219 0.068,0.421 0.082,0.639 h -0.082 v 10.693 c 0,3.612 2.211,6.723 5.856,9.349 l 7.367,35.523 -14.847,5.554 c -1.678,-8.775 -19.039,-13.37 -36.23,-13.37 -17.747,-0.001 -35.67,4.896 -36.338,14.233 z m 88.677,-0.307 0.562,2.689 c -4.902,2.103 -8.325,4.634 -10.085,7.498 -2.588,-0.658 -5.381,-0.853 -7.626,-0.938 0.277,-0.993 0.603,-2.104 0.909,-3.17 l 16.24,-6.079 z m -82.47,1.322 c -0.021,-0.274 -0.041,-0.516 -0.048,-0.728 0.548,-2.978 11.132,-8.353 30.179,-8.353 19.556,0 30.227,5.676 30.227,8.599 0,2.917 -10.671,8.6 -30.227,8.6 -18.547,0 -29.084,-5.103 -30.131,-8.118 z m 79.453,30.874 c -0.906,9.708 -1.769,18.876 -26.176,21.608 l -1.903,0.213 -0.651,1.801 c -0.818,2.243 -3.628,8.781 -6.812,11.967 -3.169,3.168 -10.803,4.688 -18.991,3.786 -6.531,-0.733 -10.099,-3.836 -10.967,-4.698 -0.083,-0.089 -7.75,-9.35 -9.948,-30.396 -0.178,-1.672 -0.353,-3.335 -0.534,-4.979 -0.15,-1.465 -0.312,-2.923 -0.472,-4.34 -0.744,-6.789 -1.438,-12.858 -1.938,-17.095 3.759,1.965 8.674,3.408 14.145,4.334 l 2.752,7.742 0.506,1.594 -0.821,4.226 c -0.076,0.39 -0.042,0.793 0.103,1.16 l 3.197,8.26 -0.322,3.293 c -0.042,0.403 0.038,0.814 0.229,1.17 l 1.989,3.836 c 0.37,0.718 1.106,1.129 1.869,1.129 0.322,0 0.657,-0.076 0.961,-0.232 1.038,-0.541 1.435,-1.809 0.9,-2.842 l -1.698,-3.271 0.308,-3.172 c 0.027,-0.328 -0.013,-0.655 -0.136,-0.964 l -3.156,-8.162 0.801,-4.155 c 0.075,-0.35 0.051,-0.703 -0.058,-1.037 l -0.14,-0.455 2.834,-7.045 c 1.595,0.083 3.197,0.137 4.807,0.137 10.735,0 21.518,-1.801 28.536,-5.278 -0.248,1.062 -0.253,1.375 -0.253,1.596 0,3.252 3.245,3.367 5.854,3.456 2.566,0.09 6.861,0.24 9.111,1.455 3.327,1.798 7.023,5.166 6.074,15.358 z m 5.067,-11.131 c -1.149,-3.378 -3.139,-6.079 -5.941,-8.168 0.954,-1.222 2.79,-2.629 5.74,-4.018 l 2.749,13.275 c -0.886,-0.349 -1.757,-0.705 -2.548,-1.089 z m 33.003,15.623 c -13.449,-0.096 -24.996,-2.355 -31.825,-6.136 0.031,-0.772 0.052,-1.542 0.031,-2.279 8.376,3.103 19.834,4.899 32.231,4.899 14.289,0 28.674,-2.421 37.443,-7.123 -2.201,5.494 -14.48,10.838 -37.88,10.639 z m 40.195,-21.497 c 0,2.085 -2.917,4.581 -8.175,6.737 l 2.431,-12.352 c 4.142,2.115 5.744,4.208 5.744,5.615 z m -14.429,6.608 -0.466,2.319 c -6.521,1.711 -14.942,2.89 -24.863,2.89 -8.848,0 -17.259,-1.008 -24.152,-2.73 l -12.875,-62.09 c 3.762,1.539 8.161,2.783 12.909,3.742 l -0.603,3.127 c -0.075,0.389 -0.041,0.791 0.104,1.159 l 3.36,8.67 -0.349,3.472 c -0.028,0.305 0.013,0.616 0.116,0.906 l 5.072,14.279 c 0.309,0.862 1.116,1.399 1.982,1.399 0.236,0 0.469,-0.038 0.709,-0.119 1.095,-0.39 1.663,-1.597 1.273,-2.688 l -4.917,-13.84 0.344,-3.499 c 0.034,-0.328 -0.011,-0.658 -0.131,-0.964 l -3.319,-8.571 0.499,-2.584 c 6.419,1.028 13.296,1.575 20.08,1.575 13.395,0 27.235,-2.063 36.971,-6.004 l -11.744,59.551 z m 18.677,-72.781 c 0,5.327 -17.105,13.065 -43.902,13.065 -6.969,0 -13.254,-0.531 -18.783,-1.396 l 1.962,-4.858 c 5.46,0.716 11.174,1.095 16.821,1.095 17.048,0 34.812,-3.341 43.902,-9.65 v 1.744 z m -43.902,1.74 c -26.807,0 -43.905,-7.742 -43.905,-13.072 0,-5.33 17.099,-13.068 43.905,-13.068 26.797,0 43.902,7.738 43.902,13.068 0,5.33 -17.106,13.072 -43.902,13.072 z"
   id="path6117"
   inkscape:connector-curvature="0"
   style="fill:#28a745" />
	<path
   d="m 259.723,297.082 c -1.088,-0.411 -2.17,-0.616 -3.228,-0.616 -4.153,0 -6.764,3.15 -7.657,5.013 l -0.24,0.506 -0.048,0.555 c -0.9,10.14 -3.416,22.791 -3.444,22.914 l -0.739,3.69 h 3.765 c 0.356,0 3.598,-0.054 9.126,-2.129 6.175,-2.323 9.614,-7.47 10.509,-15.737 0.774,-7.213 -1.862,-11.855 -8.044,-14.196 z m 1.91,13.536 c -0.811,7.496 -3.765,9.57 -6.544,10.618 -1.172,0.437 -2.209,0.767 -3.102,1.013 0.814,-4.539 2.02,-11.848 2.646,-18.458 0.435,-0.602 1.414,-1.506 2.903,-0.938 3.07,1.163 4.639,2.743 4.097,7.765 z"
   id="path6119"
   inkscape:connector-curvature="0"
   style="fill:#28a745" />
</g>
</svg>