<?xml version="1.0" encoding="UTF-8" standalone="no"?>
<!-- Generator: Adobe Illustrator 16.0.0, SVG Export Plug-In . SVG Version: 6.00 Build 0)  -->

<svg
   xmlns:dc="http://purl.org/dc/elements/1.1/"
   xmlns:cc="http://creativecommons.org/ns#"
   xmlns:rdf="http://www.w3.org/1999/02/22-rdf-syntax-ns#"
   xmlns:svg="http://www.w3.org/2000/svg"
   xmlns="http://www.w3.org/2000/svg"
   xmlns:xlink="http://www.w3.org/1999/xlink"
   xmlns:sodipodi="http://sodipodi.sourceforge.net/DTD/sodipodi-0.dtd"
   xmlns:inkscape="http://www.inkscape.org/namespaces/inkscape"
   version="1.1"
   x="0px"
   y="0px"
   width="500px"
   height="500px"
   viewBox="0 0 500 500"
   enable-background="new 0 0 500 500"
   xml:space="preserve"
   id="svg5937"
   inkscape:version="0.48.4 r9939"
   sodipodi:docname="gruengut@2x.svg"><metadata
   id="metadata5966"><rdf:RDF><cc:Work
       rdf:about=""><dc:format>image/svg+xml</dc:format><dc:type
         rdf:resource="http://purl.org/dc/dcmitype/StillImage" /></cc:Work></rdf:RDF></metadata><defs
   id="defs5964" /><sodipodi:namedview
   pagecolor="#ffffff"
   bordercolor="#666666"
   borderopacity="1"
   objecttolerance="10"
   gridtolerance="10"
   guidetolerance="10"
   inkscape:pageopacity="0"
   inkscape:pageshadow="2"
   inkscape:window-width="640"
   inkscape:window-height="480"
   id="namedview5962"
   showgrid="false"
   inkscape:zoom="0.472"
   inkscape:cx="250"
   inkscape:cy="250"
   inkscape:window-x="0"
   inkscape:window-y="0"
   inkscape:window-maximized="0"
   inkscape:current-layer="svg5937" />
<g
   id="Layer_1"
   transform="matrix(1.7682433,0,0,1.7682433,-189.76796,-189.639)">
	<g
   id="bg">
		<path
   d="m 385.533,341.896 c 0,23.922 -19.396,43.317 -43.313,43.317 H 157.638 c -23.922,0 -43.314,-19.396 -43.314,-43.317 V 157.314 C 114.324,133.392 133.716,114 157.638,114 H 342.22 c 23.917,0 43.313,19.392 43.313,43.314 v 184.582 z"
   id="path5941"
   inkscape:connector-curvature="0"
   style="fill:#ffffff" />
		<g
   id="g5943">
			<g
   id="g5945">
				<defs
   id="defs5947">
					<path
   id="SVGID_1_"
   d="m 385.533,341.896 c 0,23.922 -19.396,43.317 -43.313,43.317 H 157.638 c -23.922,0 -43.314,-19.396 -43.314,-43.317 V 157.314 C 114.324,133.392 133.716,114 157.638,114 H 342.22 c 23.917,0 43.313,19.392 43.313,43.314 v 184.582 z"
   inkscape:connector-curvature="0" />
				</defs>
				<clipPath
   id="SVGID_2_">
					<use
   xlink:href="#SVGID_1_"
   overflow="visible"
   id="use5951"
   style="overflow:visible"
   x="0"
   y="0"
   width="500"
   height="500" />
				</clipPath>
				<ellipse
   clip-path="url(#SVGID_2_)"
   cx="250.634"
   cy="376.95099"
   rx="204.146"
   ry="82.195"
   id="ellipse5953"
   sodipodi:cx="250.634"
   sodipodi:cy="376.95099"
   sodipodi:rx="204.146"
   sodipodi:ry="82.195"
   style="fill:#f5f5f5"
   d="m 454.78,376.95099 c 0,45.39504 -91.39928,82.195 -204.146,82.195 -112.74672,0 -204.145993,-36.79996 -204.145993,-82.195 0,-45.39505 91.399273,-82.195 204.145993,-82.195 112.74672,0 204.146,36.79995 204.146,82.195 z" />
			</g>
		</g>
		<path
   d="M 342.22,390.252 H 157.638 c -26.666,0 -48.357,-21.688 -48.357,-48.355 V 157.314 c 0,-26.661 21.691,-48.355 48.357,-48.355 H 342.22 c 26.663,0 48.356,21.694 48.356,48.355 v 184.581 c 0,26.667 -21.693,48.357 -48.356,48.357 z M 157.638,119.043 c -21.103,0 -38.271,17.168 -38.271,38.271 v 184.581 c 0,21.104 17.168,38.275 38.271,38.275 H 342.22 c 21.1,0 38.271,-17.173 38.271,-38.275 V 157.314 c 0,-21.103 -17.172,-38.271 -38.271,-38.271 H 157.638 z"
   id="path5955"
   inkscape:connector-curvature="0"
   style="fill:#28a745" />
	</g>
	<g
   id="Layer_2">
	</g>
</g>
<g
   id="Layer_2_1_"
   transform="matrix(1.7682433,0,0,1.7682433,-189.76796,-189.639)">
</g>
<g
   id="Layer_3"
   transform="matrix(1.7682433,0,0,1.7682433,-189.76796,-189.639)">
	<path
   d="m 294.788,198.956 c -8.382,0 -15.792,2.351 -21.719,6.784 l -19.65,-19.512 v -18.301 l 10.638,-29.319 h -31.402 l 10.18,28.092 v 19.951 l -18.809,18.589 c -6.564,-5.134 -15.528,-8.034 -25.182,-8.034 -6.872,0 -13.878,1.459 -20.265,4.22 -7.375,3.187 -13.835,8.476 -20.342,16.653 -18.45,23.21 -11.281,63.288 -10.966,64.985 0.388,2.066 1.958,3.706 4.004,4.185 0.439,0.104 10.875,2.5 23.932,2.5 14.764,0 26.955,-3.171 35.893,-9.145 -2.744,7.406 -4.353,15.764 -4.417,24.721 -0.232,30.294 36.869,53.516 38.444,54.492 0.856,0.522 1.814,0.781 2.777,0.781 0.969,0 1.944,-0.259 2.797,-0.795 1.567,-0.976 38.425,-24.262 38.425,-54.439 0,-8.608 -1.518,-16.739 -4.153,-24.012 8.949,6.188 21.071,9.365 36.268,9.365 13.057,0 23.501,-2.39 23.936,-2.493 1.962,-0.458 3.497,-1.989 3.954,-3.952 0.421,-1.801 10.018,-44.327 -11.326,-65.663 -12.49,-12.491 -28.171,-19.653 -43.017,-19.653 z m -128.263,25.711 c 5.373,-6.761 10.539,-11.062 16.248,-13.528 5.08,-2.192 10.633,-3.348 16.071,-3.348 6.761,0 12.936,1.802 17.552,4.993 l -59.792,59.084 c -0.928,-12.246 -0.73,-33.814 9.921,-47.201 z m 42.932,43.777 c -8.86,8.867 -23.516,10.727 -34.25,10.727 -3.765,0 -7.313,-0.225 -10.403,-0.536 l 58.547,-57.85 c 6.458,12.839 1.118,32.652 -13.894,47.659 z m 33.377,76.706 c -9.919,-7.84 -25.702,-22.957 -25.573,-39.741 0.174,-22.099 11.243,-40.452 25.573,-44.022 v 83.763 z m 0,-94.575 c -3.919,0.626 -7.665,1.951 -11.146,3.927 6.458,-14.776 6.477,-30.19 -0.594,-41.369 l 11.74,-11.603 v 49.045 z m 10.585,-49.436 12.377,12.291 c -7.397,11.056 -7.646,26.502 -1.353,41.375 -3.452,-2.041 -7.155,-3.429 -11.024,-4.126 v -49.54 z m 0,143.612 V 261.47 c 14.265,3.805 25.128,22.021 25.128,43.895 0,16.48 -15.229,31.409 -25.128,39.386 z M 321.24,280.14 c -10.734,0 -25.395,-1.859 -34.253,-10.713 -15.293,-15.299 -20.572,-35.584 -13.537,-48.396 l 58.928,58.5 c -3.253,0.344 -7.051,0.609 -11.138,0.609 z m 19.075,-7.634 -59.638,-59.211 c 3.895,-2.468 8.69,-3.76 14.11,-3.76 11.89,0 25.174,6.188 35.534,16.554 11.91,11.906 11.436,33.895 9.994,46.417 z"
   id="path5960"
   inkscape:connector-curvature="0"
   style="fill:#28a745" />
</g>
</svg>