<?xml version="1.0" encoding="UTF-8" standalone="no"?>
<!-- Generator: Adobe Illustrator 16.0.0, SVG Export Plug-In . SVG Version: 6.00 Build 0)  -->

<svg
   xmlns:dc="http://purl.org/dc/elements/1.1/"
   xmlns:cc="http://creativecommons.org/ns#"
   xmlns:rdf="http://www.w3.org/1999/02/22-rdf-syntax-ns#"
   xmlns:svg="http://www.w3.org/2000/svg"
   xmlns="http://www.w3.org/2000/svg"
   xmlns:xlink="http://www.w3.org/1999/xlink"
   xmlns:sodipodi="http://sodipodi.sourceforge.net/DTD/sodipodi-0.dtd"
   xmlns:inkscape="http://www.inkscape.org/namespaces/inkscape"
   version="1.1"
   x="0px"
   y="0px"
   width="500px"
   height="500px"
   viewBox="0 0 500 500"
   enable-background="new 0 0 500 500"
   xml:space="preserve"
   id="svg5815"
   inkscape:version="0.48.4 r9939"
   sodipodi:docname="hauskehricht@2x.svg"><metadata
   id="metadata5856"><rdf:RDF><cc:Work
       rdf:about=""><dc:format>image/svg+xml</dc:format><dc:type
         rdf:resource="http://purl.org/dc/dcmitype/StillImage" /></cc:Work></rdf:RDF></metadata><defs
   id="defs5854" /><sodipodi:namedview
   pagecolor="#ffffff"
   bordercolor="#666666"
   borderopacity="1"
   objecttolerance="10"
   gridtolerance="10"
   guidetolerance="10"
   inkscape:pageopacity="0"
   inkscape:pageshadow="2"
   inkscape:window-width="640"
   inkscape:window-height="480"
   id="namedview5852"
   showgrid="false"
   inkscape:zoom="0.472"
   inkscape:cx="250"
   inkscape:cy="250"
   inkscape:window-x="0"
   inkscape:window-y="0"
   inkscape:window-maximized="0"
   inkscape:current-layer="svg5815" />
<g
   id="Layer_1"
   transform="matrix(1.7682433,0,0,1.7682433,-189.64931,-189.52035)">
	<g
   id="bg">
		<path
   d="m 385.533,341.896 c 0,23.922 -19.396,43.317 -43.313,43.317 H 157.638 c -23.922,0 -43.314,-19.396 -43.314,-43.317 V 157.314 C 114.324,133.392 133.716,114 157.638,114 H 342.22 c 23.917,0 43.313,19.392 43.313,43.314 v 184.582 z"
   id="path5819"
   inkscape:connector-curvature="0"
   style="fill:#ffffff" />
		<g
   id="g5821">
			<g
   id="g5823">
				<defs
   id="defs5825">
					<path
   id="SVGID_1_"
   d="m 385.533,341.896 c 0,23.922 -19.396,43.317 -43.313,43.317 H 157.638 c -23.922,0 -43.314,-19.396 -43.314,-43.317 V 157.314 C 114.324,133.392 133.716,114 157.638,114 H 342.22 c 23.917,0 43.313,19.392 43.313,43.314 v 184.582 z"
   inkscape:connector-curvature="0" />
				</defs>
				<clipPath
   id="SVGID_2_">
					<use
   xlink:href="#SVGID_1_"
   overflow="visible"
   id="use5829"
   style="overflow:visible"
   x="0"
   y="0"
   width="500"
   height="500" />
				</clipPath>
				<ellipse
   clip-path="url(#SVGID_2_)"
   cx="250.634"
   cy="376.95099"
   rx="204.146"
   ry="82.195"
   id="ellipse5831"
   sodipodi:cx="250.634"
   sodipodi:cy="376.95099"
   sodipodi:rx="204.146"
   sodipodi:ry="82.195"
   style="fill:#f5f5f5"
   d="m 454.78,376.95099 c 0,45.39504 -91.39928,82.195 -204.146,82.195 -112.74672,0 -204.145993,-36.79996 -204.145993,-82.195 0,-45.39505 91.399273,-82.195 204.145993,-82.195 112.74672,0 204.146,36.79995 204.146,82.195 z" />
			</g>
		</g>
		<path
   d="M 342.22,390.252 H 157.638 c -26.666,0 -48.357,-21.688 -48.357,-48.355 V 157.314 c 0,-26.661 21.691,-48.355 48.357,-48.355 H 342.22 c 26.663,0 48.356,21.694 48.356,48.355 v 184.581 c 0,26.667 -21.693,48.357 -48.356,48.357 z M 157.638,119.043 c -21.103,0 -38.271,17.168 -38.271,38.271 v 184.581 c 0,21.104 17.168,38.275 38.271,38.275 H 342.22 c 21.1,0 38.271,-17.173 38.271,-38.275 V 157.314 c 0,-21.103 -17.172,-38.271 -38.271,-38.271 H 157.638 z"
   id="path5833"
   inkscape:connector-curvature="0"
   style="fill:#28a745" />
	</g>
	<g
   id="Layer_2">
	</g>
</g>
<g
   id="Layer_2_1_"
   transform="matrix(1.7682433,0,0,1.7682433,-189.64931,-189.52035)">
</g>
<g
   id="Layer_3"
   transform="matrix(1.7682433,0,0,1.7682433,-189.64931,-189.52035)">
	<path
   d="m 222.963,308.298 v -56.927 c -7.274,7.318 -11.776,17.392 -11.776,28.488 0,10.81 4.431,20.992 11.776,28.439 z"
   id="path5838"
   inkscape:connector-curvature="0"
   style="fill:#28a745" />
	<path
   d="m 230.244,275.172 12.269,-6.928 c -2.219,-6.097 -2.273,-11.802 -0.144,-17.033 2.126,-5.219 6.106,-9.029 10.067,-11.738 -0.272,-0.006 -0.542,-0.039 -0.82,-0.039 -8.116,0 -15.666,2.427 -22.005,6.563 h 0.634 v 29.175 z"
   id="path5840"
   inkscape:connector-curvature="0"
   style="fill:#28a745" />
	<path
   d="m 249.096,253.983 c -1.281,3.157 -1.297,6.717 -0.115,10.61 l 28.274,-15.97 c -3.801,-3.125 -8.187,-5.545 -12.951,-7.121 -3.426,1.269 -12.238,5.137 -15.208,12.481 z"
   id="path5842"
   inkscape:connector-curvature="0"
   style="fill:#28a745" />
	<path
   d="m 330.311,225.744 -1.043,-1.178 c -6.139,-6.922 -26.979,-29.52 -37.621,-29.52 -1.94,0 -5.73,-0.058 -10.63,-0.135 -4.194,-0.064 -9.099,-0.134 -14.314,-0.192 8.244,-5.18 33.378,-22.143 34.553,-22.937 l 2.879,-1.94 -16.326,-21.452 -3.698,-4.482 -2.4,3.913 c -4.201,6.845 -25.191,41.065 -26.043,42.75 -0.199,0.391 -0.337,0.794 -0.442,1.197 -2.92,-5.936 -15.592,-31.543 -19.719,-37.749 l -1.822,-2.74 -26.594,17.885 3.548,2.785 c 1.018,0.794 20.574,16.118 29.021,22.668 -17.962,0.147 -22.912,0.826 -25.012,1.357 -9.567,2.382 -36.167,23.911 -39.17,26.357 l -1.521,1.242 7.54,86.293 c -5.539,4.508 -17.206,14.862 -17.206,22.041 0,7.678 8.254,20.606 9.195,22.06 l 1.089,1.685 140.002,0.249 h 4.921 l 1.102,-1.178 c 10.873,-11.654 16.387,-19.332 16.387,-22.815 0,-3.317 -4.54,-10.092 -13.485,-20.151 l 6.809,-86.013 z m -45.491,-70.451 9.888,12.993 c -9.35,6.301 -23.396,15.701 -30.02,19.94 4.559,-7.518 13.127,-21.509 20.132,-32.933 z m -66.583,14.273 13.518,-9.093 c 4.387,7.658 12.679,24.269 16.348,31.678 -0.487,0.026 -0.852,-0.032 -0.909,-0.032 -0.01,0 -0.01,0 -0.01,0 -1.69,-1.223 -18.054,-14.017 -28.947,-22.553 z m 32.396,157.801 c -26.293,0 -47.604,-21.311 -47.604,-47.61 0,-26.286 21.311,-47.597 47.604,-47.597 26.292,0 47.604,21.311 47.604,47.597 -0.001,26.3 -21.312,47.61 -47.604,47.61 z"
   id="path5844"
   inkscape:connector-curvature="0"
   style="fill:#28a745" />
	<path
   d="m 245.631,274.84 -15.387,8.683 v 29.814 l -0.02,0.819 c 1.819,1.172 3.292,1.883 4.898,2.606 14.441,-11.826 21.005,-23.243 10.509,-41.922 z"
   id="path5846"
   inkscape:connector-curvature="0"
   style="fill:#28a745" />
	<path
   d="m 264.291,264.299 21.811,36.564 c 3.746,-6.128 5.948,-13.3 5.948,-21.004 0,-9.849 -3.551,-18.884 -9.432,-25.901 l -18.327,10.341 z"
   id="path5848"
   inkscape:connector-curvature="0"
   style="fill:#28a745" />
	<path
   d="m 251.974,271.254 c 12.51,22.271 3.737,36.916 -8.73,48.141 2.737,0.576 5.532,0.896 8.372,0.896 11.782,0 22.364,-5.084 29.761,-13.152 l -23.418,-39.267 -5.985,3.382 z"
   id="path5850"
   inkscape:connector-curvature="0"
   style="fill:#28a745" />
</g>
</svg>