<?xml version="1.0" encoding="UTF-8" standalone="no"?>
<!-- Generator: Adobe Illustrator 16.0.0, SVG Export Plug-In . SVG Version: 6.00 Build 0)  -->

<svg
   xmlns:dc="http://purl.org/dc/elements/1.1/"
   xmlns:cc="http://creativecommons.org/ns#"
   xmlns:rdf="http://www.w3.org/1999/02/22-rdf-syntax-ns#"
   xmlns:svg="http://www.w3.org/2000/svg"
   xmlns="http://www.w3.org/2000/svg"
   xmlns:xlink="http://www.w3.org/1999/xlink"
   xmlns:sodipodi="http://sodipodi.sourceforge.net/DTD/sodipodi-0.dtd"
   xmlns:inkscape="http://www.inkscape.org/namespaces/inkscape"
   version="1.1"
   x="0px"
   y="0px"
   width="500px"
   height="500px"
   viewBox="0 0 500 500"
   enable-background="new 0 0 500 500"
   xml:space="preserve"
   id="svg5694"
   inkscape:version="0.48.4 r9939"
   sodipodi:docname="inertstoffe@2x.svg"><metadata
   id="metadata5748"><rdf:RDF><cc:Work
       rdf:about=""><dc:format>image/svg+xml</dc:format><dc:type
         rdf:resource="http://purl.org/dc/dcmitype/StillImage" /></cc:Work></rdf:RDF></metadata><defs
   id="defs5746" /><sodipodi:namedview
   pagecolor="#ffffff"
   bordercolor="#666666"
   borderopacity="1"
   objecttolerance="10"
   gridtolerance="10"
   guidetolerance="10"
   inkscape:pageopacity="0"
   inkscape:pageshadow="2"
   inkscape:window-width="640"
   inkscape:window-height="480"
   id="namedview5744"
   showgrid="false"
   inkscape:zoom="0.472"
   inkscape:cx="250"
   inkscape:cy="250"
   inkscape:window-x="0"
   inkscape:window-y="0"
   inkscape:window-maximized="0"
   inkscape:current-layer="svg5694" />
<g
   id="Layer_1"
   transform="matrix(1.7682433,0,0,1.7682433,-190.00524,-189.40171)">
	<g
   id="bg">
		<path
   d="m 385.533,341.896 c 0,23.922 -19.396,43.317 -43.313,43.317 H 157.638 c -23.922,0 -43.314,-19.396 -43.314,-43.317 V 157.314 C 114.324,133.392 133.716,114 157.638,114 H 342.22 c 23.917,0 43.313,19.392 43.313,43.314 v 184.582 z"
   id="path5698"
   inkscape:connector-curvature="0"
   style="fill:#ffffff" />
		<g
   id="g5700">
			<g
   id="g5702">
				<defs
   id="defs5704">
					<path
   id="SVGID_1_"
   d="m 385.533,341.896 c 0,23.922 -19.396,43.317 -43.313,43.317 H 157.638 c -23.922,0 -43.314,-19.396 -43.314,-43.317 V 157.314 C 114.324,133.392 133.716,114 157.638,114 H 342.22 c 23.917,0 43.313,19.392 43.313,43.314 v 184.582 z"
   inkscape:connector-curvature="0" />
				</defs>
				<clipPath
   id="SVGID_2_">
					<use
   xlink:href="#SVGID_1_"
   overflow="visible"
   id="use5708"
   style="overflow:visible"
   x="0"
   y="0"
   width="500"
   height="500" />
				</clipPath>
				<ellipse
   clip-path="url(#SVGID_2_)"
   cx="250.634"
   cy="376.95099"
   rx="204.146"
   ry="82.195"
   id="ellipse5710"
   sodipodi:cx="250.634"
   sodipodi:cy="376.95099"
   sodipodi:rx="204.146"
   sodipodi:ry="82.195"
   style="fill:#f5f5f5"
   d="m 454.78,376.95099 c 0,45.39504 -91.39928,82.195 -204.146,82.195 -112.74672,0 -204.145993,-36.79996 -204.145993,-82.195 0,-45.39505 91.399273,-82.195 204.145993,-82.195 112.74672,0 204.146,36.79995 204.146,82.195 z" />
			</g>
		</g>
		<path
   d="M 342.22,390.252 H 157.638 c -26.666,0 -48.357,-21.688 -48.357,-48.355 V 157.314 c 0,-26.661 21.691,-48.355 48.357,-48.355 H 342.22 c 26.663,0 48.356,21.694 48.356,48.355 v 184.581 c 0,26.667 -21.693,48.357 -48.356,48.357 z M 157.638,119.043 c -21.103,0 -38.271,17.168 -38.271,38.271 v 184.581 c 0,21.104 17.168,38.275 38.271,38.275 H 342.22 c 21.1,0 38.271,-17.173 38.271,-38.275 V 157.314 c 0,-21.103 -17.172,-38.271 -38.271,-38.271 H 157.638 z"
   id="path5712"
   inkscape:connector-curvature="0"
   style="fill:#28a745" />
	</g>
	<g
   id="Layer_2">
	</g>
</g>
<g
   id="Layer_2_1_"
   transform="matrix(1.7682433,0,0,1.7682433,-190.00524,-189.40171)">
</g>
<g
   id="Layer_3"
   transform="matrix(1.7682433,0,0,1.7682433,-190.00524,-189.40171)">
	<g
   id="inertstoffe">
		<path
   d="m 198.277,273.579 c 0,11.317 -13.096,20.486 -29.259,20.486 -16.164,0 -29.26,-9.169 -29.26,-20.486 0,-11.316 13.096,-20.485 29.26,-20.485 16.163,0 29.259,9.169 29.259,20.485 z"
   id="path5718"
   inkscape:connector-curvature="0"
   style="fill:#28a745" />
		<path
   d="m 351.51,197.395 c 0,11.317 -15.943,20.488 -35.61,20.488 -19.671,0 -35.625,-9.171 -35.625,-20.488 0,-11.319 15.954,-20.491 35.625,-20.491 19.666,0 35.61,9.172 35.61,20.491 z"
   id="path5720"
   inkscape:connector-curvature="0"
   style="fill:#28a745" />
		<path
   d="m 349.441,280.274 c 0,7.146 -9.068,12.927 -20.266,12.927 -11.188,0 -20.251,-5.781 -20.251,-12.927 0,-7.135 9.063,-12.921 20.251,-12.921 11.198,10e-4 20.266,5.787 20.266,12.921 z"
   id="path5722"
   inkscape:connector-curvature="0"
   style="fill:#28a745" />
		<path
   d="m 234.382,306.477 c 0,7.994 -9.069,14.46 -20.261,14.46 -11.192,0 -20.261,-6.466 -20.261,-14.46 0,-7.994 9.069,-14.47 20.261,-14.47 11.192,0 20.261,6.475 20.261,14.47 z"
   id="path5724"
   inkscape:connector-curvature="0"
   style="fill:#28a745" />
		<path
   d="m 222.865,204.61 c 0,7.137 -10.053,12.921 -22.469,12.921 -12.401,0 -22.464,-5.784 -22.464,-12.921 0,-7.143 10.063,-12.924 22.464,-12.924 12.416,0.001 22.469,5.782 22.469,12.924 z"
   id="path5726"
   inkscape:connector-curvature="0"
   style="fill:#28a745" />
		<path
   d="m 187.145,233.407 c 0,4.874 -4.517,8.827 -10.083,8.827 -5.571,0 -10.093,-3.953 -10.093,-8.827 0,-4.876 4.522,-8.826 10.093,-8.826 5.566,0 10.083,3.95 10.083,8.826 z"
   id="path5728"
   inkscape:connector-curvature="0"
   style="fill:#28a745" />
		<path
   d="m 317.509,314.74 c -2.044,3.208 -6.681,3.928 -10.358,1.594 -3.667,-2.333 -4.986,-6.83 -2.952,-10.048 2.043,-3.212 6.68,-3.927 10.353,-1.599 3.671,2.339 4.995,6.835 2.957,10.053 z"
   id="path5730"
   inkscape:connector-curvature="0"
   style="fill:#28a745" />
		<path
   d="m 244.425,330.34 c 1.459,3.513 -0.615,7.725 -4.637,9.398 -4.018,1.664 -8.454,0.175 -9.918,-3.343 -1.459,-3.518 0.599,-7.725 4.622,-9.394 4.022,-1.673 8.464,-0.174 9.933,3.339 z"
   id="path5732"
   inkscape:connector-curvature="0"
   style="fill:#28a745" />
		<path
   d="m 285.971,167.171 c -0.24,3.797 -3.947,6.667 -8.294,6.396 -4.348,-0.272 -7.67,-3.575 -7.44,-7.373 0.24,-3.8 3.947,-6.665 8.295,-6.396 4.341,0.271 7.668,3.576 7.439,7.373 z"
   id="path5734"
   inkscape:connector-curvature="0"
   style="fill:#28a745" />
		<path
   d="m 342.421,243.74 c 0,6.793 -6.29,12.291 -14.05,12.291 -7.76,0 -14.051,-5.498 -14.051,-12.291 0,-6.793 6.291,-12.294 14.051,-12.294 7.76,0 14.05,5.501 14.05,12.294 z"
   id="path5736"
   inkscape:connector-curvature="0"
   style="fill:#28a745" />
		<path
   d="m 264.23,187.942 c 0,6.79 -6.295,12.292 -14.05,12.292 -7.765,0 -14.055,-5.501 -14.055,-12.292 0,-6.793 6.291,-12.294 14.055,-12.294 7.756,0 14.05,5.501 14.05,12.294 z"
   id="path5738"
   inkscape:connector-curvature="0"
   style="fill:#28a745" />
		<path
   d="m 288.738,318.638 c 0,6.796 -6.28,12.297 -14.045,12.297 -7.754,0 -14.055,-5.501 -14.055,-12.297 0,-6.79 6.301,-12.291 14.055,-12.291 7.765,0 14.045,5.501 14.045,12.291 z"
   id="path5740"
   inkscape:connector-curvature="0"
   style="fill:#28a745" />
		<path
   d="m 298.651,251.422 c 0,20.019 -20.176,36.248 -45.073,36.248 -24.893,0 -45.073,-16.229 -45.073,-36.248 0,-20.021 20.181,-36.249 45.073,-36.249 24.898,0 45.073,16.228 45.073,36.249 z"
   id="path5742"
   inkscape:connector-curvature="0"
   style="fill:#28a745" />
	</g>
</g>
</svg>