<?xml version="1.0" encoding="UTF-8" standalone="no"?>
<!DOCTYPE svg PUBLIC "-//W3C//DTD SVG 1.1//EN" "http://www.w3.org/Graphics/SVG/1.1/DTD/svg11.dtd">
<svg width="100%" height="100%" viewBox="0 0 64 64" version="1.1" xmlns="http://www.w3.org/2000/svg" xmlns:xlink="http://www.w3.org/1999/xlink" xml:space="preserve" xmlns:serif="http://www.serif.com/" style="fill-rule:evenodd;clip-rule:evenodd;stroke-linejoin:round;stroke-miterlimit:2;">
    <g transform="matrix(1,0,0,1,-301.142,-197.818)">
        <g transform="matrix(0,61.4473,61.4473,0,333.009,198.961)">
            <path d="M0,-0.34C0,-0.428 0.071,-0.5 0.16,-0.5L0.84,-0.5C0.928,-0.5 1,-0.428 1,-0.34L1,0.34C1,0.428 0.928,0.5 0.84,0.5L0.16,0.5C0.071,0.5 0,0.428 0,0.34L0,-0.34Z" style="fill:url(#_Linear1);fill-rule:nonzero;"/>
        </g>
        <g transform="matrix(1,0,0,1,312.098,259.265)">
            <path d="M0,-59.162C-4.781,-59.162 -8.671,-55.272 -8.671,-50.491L-8.671,-8.671C-8.671,-3.89 -4.781,0 0,0L41.82,0C46.601,0 50.49,-3.89 50.49,-8.671L50.49,-50.491C50.49,-55.272 46.601,-59.162 41.82,-59.162L0,-59.162ZM41.82,2.285L0,2.285C-6.042,2.285 -10.956,-2.629 -10.956,-8.671L-10.956,-50.491C-10.956,-56.532 -6.042,-61.447 0,-61.447L41.82,-61.447C47.861,-61.447 52.776,-56.532 52.776,-50.491L52.776,-8.671C52.776,-2.629 47.861,2.285 41.82,2.285" style="fill:#28a745"/>
        </g>
        <g transform="matrix(1,0,0,1,338.404,219.304)">
            <path d="M0,15.437L2.038,5.166L-0.036,1.664L-4.607,0L-8.447,1.351L-13.503,10.522L0,15.437Z" style="fill:#28a745"/>
        </g>
        <g transform="matrix(1,0,0,1,339.923,230.724)">
            <path d="M0,6.462L0.242,5.798L-17.509,-0.664L-17.992,0.664L-9.099,3.902L-1.361,6.719L-0.242,7.126L-0.241,7.123L-0.24,7.123L0,6.462Z" style="fill:#28a745"/>
        </g>
        <g transform="matrix(1,0,0,1,339.264,237.093)">
            <path d="M0,8.125C-8.565,11.46 -18.246,7.204 -21.581,-1.361C-21.635,-1.499 -21.683,-1.638 -21.733,-1.777C-19.622,-0.527 -17.16,0.931 -17.16,0.931C-16.454,1.349 -15.541,1.116 -15.123,0.408C-14.704,-0.299 -14.938,-1.211 -15.645,-1.629L-23.753,-6.43C-24.147,-6.663 -24.625,-6.702 -25.05,-6.536C-25.477,-6.371 -25.802,-6.018 -25.935,-5.581L-28.661,3.438C-28.898,4.224 -28.454,5.054 -27.667,5.292C-26.881,5.53 -26.051,5.085 -25.813,4.299C-25.813,4.299 -25.075,1.856 -24.395,-0.394C-24.38,-0.357 -24.368,-0.319 -24.353,-0.281C-20.423,9.812 -9.014,14.827 1.079,10.898C7.828,8.27 12.301,2.297 13.354,-4.389L10.562,-6.042C10.046,0.107 6.127,5.74 0,8.125" style="fill:#28a745"/>
        </g>
        <g transform="matrix(1,0,0,1,354.836,219.444)">
            <path d="M0,-2.459C-0.786,-2.697 -1.616,-2.252 -1.854,-1.466C-1.854,-1.466 -2.592,0.976 -3.273,3.226C-3.287,3.189 -3.3,3.151 -3.314,3.114C-7.244,-6.98 -18.653,-11.995 -28.747,-8.065C-35.496,-5.437 -39.969,0.536 -41.021,7.223L-38.229,8.876C-37.714,2.726 -33.794,-2.907 -27.668,-5.293C-19.102,-8.627 -9.421,-4.372 -6.086,4.193C-6.032,4.332 -5.984,4.471 -5.934,4.611C-8.046,3.361 -10.507,1.903 -10.507,1.903C-11.214,1.485 -12.126,1.718 -12.544,2.425C-12.963,3.132 -12.73,4.044 -12.023,4.463L-3.915,9.264C-3.521,9.497 -3.043,9.536 -2.618,9.37C-2.191,9.204 -1.865,8.852 -1.733,8.415L0.993,-0.605C1.231,-1.391 0.786,-2.221 0,-2.459" style="fill:#28a745"/>
        </g>
    </g>
    <defs>
        <linearGradient id="_Linear1" x1="0" y1="0" x2="1" y2="0" gradientUnits="userSpaceOnUse" gradientTransform="matrix(1,0,0,-1,0,-1.42952e-05)"><stop offset="0" style="stop-color:white;stop-opacity:1"/><stop offset="1" style="stop-color:rgb(230,230,230);stop-opacity:1"/></linearGradient>
    </defs>
</svg>
