<?xml version="1.0" encoding="UTF-8" standalone="no"?>
<!-- Generator: Adobe Illustrator 16.0.0, SVG Export Plug-In . SVG Version: 6.00 Build 0)  -->

<svg
   xmlns:dc="http://purl.org/dc/elements/1.1/"
   xmlns:cc="http://creativecommons.org/ns#"
   xmlns:rdf="http://www.w3.org/1999/02/22-rdf-syntax-ns#"
   xmlns:svg="http://www.w3.org/2000/svg"
   xmlns="http://www.w3.org/2000/svg"
   xmlns:xlink="http://www.w3.org/1999/xlink"
   xmlns:sodipodi="http://sodipodi.sourceforge.net/DTD/sodipodi-0.dtd"
   xmlns:inkscape="http://www.inkscape.org/namespaces/inkscape"
   version="1.1"
   x="0px"
   y="0px"
   width="500px"
   height="500px"
   viewBox="0 0 500 500"
   enable-background="new 0 0 500 500"
   xml:space="preserve"
   id="svg5612"
   inkscape:version="0.48.4 r9939"
   sodipodi:docname="karton@2x.svg"><metadata
   id="metadata5636"><rdf:RDF><cc:Work
       rdf:about=""><dc:format>image/svg+xml</dc:format><dc:type
         rdf:resource="http://purl.org/dc/dcmitype/StillImage" /></cc:Work></rdf:RDF></metadata><defs
   id="defs5634" /><sodipodi:namedview
   pagecolor="#ffffff"
   bordercolor="#666666"
   borderopacity="1"
   objecttolerance="10"
   gridtolerance="10"
   guidetolerance="10"
   inkscape:pageopacity="0"
   inkscape:pageshadow="2"
   inkscape:window-width="640"
   inkscape:window-height="480"
   id="namedview5632"
   showgrid="false"
   inkscape:zoom="0.472"
   inkscape:cx="250"
   inkscape:cy="250"
   inkscape:window-x="0"
   inkscape:window-y="0"
   inkscape:window-maximized="0"
   inkscape:current-layer="svg5612" />
<g
   id="bg"
   transform="matrix(1.7682433,0,0,1.7682433,-190.12389,-189.87629)">
	<path
   d="m 385.533,341.896 c 0,23.922 -19.396,43.318 -43.313,43.318 H 157.638 c -23.922,0 -43.314,-19.396 -43.314,-43.318 V 157.314 C 114.324,133.392 133.716,114 157.638,114 H 342.22 c 23.917,0 43.313,19.392 43.313,43.314 v 184.582 z"
   id="path5615"
   inkscape:connector-curvature="0"
   style="fill:#ffffff" />
	<g
   id="g5617">
		<defs
   id="defs5619">
			<path
   id="SVGID_1_"
   d="m 385.533,341.896 c 0,23.922 -19.396,43.318 -43.313,43.318 H 157.638 c -23.922,0 -43.314,-19.396 -43.314,-43.318 V 157.314 C 114.324,133.392 133.716,114 157.638,114 H 342.22 c 23.917,0 43.313,19.392 43.313,43.314 v 184.582 z"
   inkscape:connector-curvature="0" />
		</defs>
		<clipPath
   id="SVGID_2_">
			<use
   xlink:href="#SVGID_1_"
   overflow="visible"
   id="use5623"
   style="overflow:visible"
   x="0"
   y="0"
   width="500"
   height="500" />
		</clipPath>
		<ellipse
   clip-path="url(#SVGID_2_)"
   cx="250.634"
   cy="376.95099"
   rx="204.146"
   ry="82.195"
   id="ellipse5625"
   sodipodi:cx="250.634"
   sodipodi:cy="376.95099"
   sodipodi:rx="204.146"
   sodipodi:ry="82.195"
   style="fill:#f5f5f5"
   d="m 454.78,376.95099 c 0,45.39504 -91.39928,82.195 -204.146,82.195 -112.74672,0 -204.145993,-36.79996 -204.145993,-82.195 0,-45.39505 91.399273,-82.195 204.145993,-82.195 112.74672,0 204.146,36.79995 204.146,82.195 z" />
	</g>
	<path
   d="M 342.22,390.252 H 157.638 c -26.666,0 -48.357,-21.688 -48.357,-48.356 V 157.314 c 0,-26.661 21.691,-48.355 48.357,-48.355 H 342.22 c 26.663,0 48.356,21.694 48.356,48.355 v 184.581 c 0,26.668 -21.693,48.357 -48.356,48.357 z M 157.638,119.043 c -21.103,0 -38.271,17.168 -38.271,38.271 v 184.581 c 0,21.103 17.168,38.275 38.271,38.275 H 342.22 c 21.099,0 38.271,-17.173 38.271,-38.275 V 157.314 c 0,-21.103 -17.172,-38.271 -38.271,-38.271 H 157.638 z"
   id="path5627"
   inkscape:connector-curvature="0"
   style="fill:#28a745" />
</g>
<g
   id="Layer_2"
   transform="matrix(1.7682433,0,0,1.7682433,-190.12389,-189.87629)">
	<path
   d="m 325.504,231.246 -0.597,-0.262 0.211,-3.326 23.458,-44.604 -80.813,-31.44 -18.966,39.988 -25.709,-38.164 -76.774,39.878 29.9,45.813 -28.875,35.417 31.769,15.415 1.447,29.454 71.412,38.276 67.778,-46.945 1.665,-25.782 34.606,-21.766 -30.946,-31.679 0.434,-0.273 z m -3.519,44.858 -7.517,4.729 -31.062,19.534 -26.138,-26.201 60.08,-37.788 1.497,-0.941 5.415,5.546 20.382,20.869 -22.657,14.252 z m -163.33,-4.057 18.457,-22.636 5.184,-6.355 1.749,0.806 65.152,29.987 -26.328,29.356 -36.787,-17.851 -7.376,-3.582 -20.051,-9.725 z m 91.976,-65.521 59.079,25.692 0.432,0.191 -56.525,35.553 -61.374,-28.248 1.075,-0.61 57.313,-32.578 z m 20.764,-45.78 67.066,26.089 -20.416,38.828 -0.148,2.272 -64.969,-28.254 18.467,-38.935 z m -114.721,35.291 64.032,-33.259 25.569,37.951 -63.119,35.878 -26.482,-40.57 z m 29.809,97.509 38.122,18.495 24.762,-27.606 -1.135,63.102 -60.691,-32.534 -1.058,-21.457 z m 126.3,13.268 -57.334,39.717 1.128,-62.869 25.793,25.857 31.526,-19.83 -1.113,17.125 z"
   id="path5630"
   inkscape:connector-curvature="0"
   style="fill:#28a745" />
</g>
</svg>