<?xml version="1.0" encoding="UTF-8" standalone="no"?>
<!-- Generator: Adobe Illustrator 16.0.0, SVG Export Plug-In . SVG Version: 6.00 Build 0)  -->

<svg
   xmlns:dc="http://purl.org/dc/elements/1.1/"
   xmlns:cc="http://creativecommons.org/ns#"
   xmlns:rdf="http://www.w3.org/1999/02/22-rdf-syntax-ns#"
   xmlns:svg="http://www.w3.org/2000/svg"
   xmlns="http://www.w3.org/2000/svg"
   xmlns:xlink="http://www.w3.org/1999/xlink"
   xmlns:sodipodi="http://sodipodi.sourceforge.net/DTD/sodipodi-0.dtd"
   xmlns:inkscape="http://www.inkscape.org/namespaces/inkscape"
   version="1.1"
   x="0px"
   y="0px"
   width="500px"
   height="500px"
   viewBox="0 0 500 500"
   enable-background="new 0 0 500 500"
   xml:space="preserve"
   id="svg4881"
   inkscape:version="0.48.4 r9939"
   sodipodi:docname="korken@2x.svg"><metadata
   id="metadata4918"><rdf:RDF><cc:Work
       rdf:about=""><dc:format>image/svg+xml</dc:format><dc:type
         rdf:resource="http://purl.org/dc/dcmitype/StillImage" /></cc:Work></rdf:RDF></metadata><defs
   id="defs4916" /><sodipodi:namedview
   pagecolor="#ffffff"
   bordercolor="#666666"
   borderopacity="1"
   objecttolerance="10"
   gridtolerance="10"
   guidetolerance="10"
   inkscape:pageopacity="0"
   inkscape:pageshadow="2"
   inkscape:window-width="640"
   inkscape:window-height="480"
   id="namedview4914"
   showgrid="false"
   inkscape:zoom="0.472"
   inkscape:cx="250"
   inkscape:cy="250"
   inkscape:window-x="0"
   inkscape:window-y="0"
   inkscape:window-maximized="0"
   inkscape:current-layer="svg4881" />
<g
   id="Layer_1"
   transform="matrix(1.7682433,0,0,1.7682433,-190.00524,-189.639)">
	<g
   id="bg">
		<path
   d="m 385.533,341.896 c 0,23.922 -19.396,43.317 -43.313,43.317 H 157.638 c -23.922,0 -43.314,-19.396 -43.314,-43.317 V 157.314 C 114.324,133.392 133.716,114 157.638,114 H 342.22 c 23.917,0 43.313,19.392 43.313,43.314 v 184.582 z"
   id="path4885"
   inkscape:connector-curvature="0"
   style="fill:#ffffff" />
		<g
   id="g4887">
			<g
   id="g4889">
				<defs
   id="defs4891">
					<path
   id="SVGID_1_"
   d="m 385.533,341.896 c 0,23.922 -19.396,43.317 -43.313,43.317 H 157.638 c -23.922,0 -43.314,-19.396 -43.314,-43.317 V 157.314 C 114.324,133.392 133.716,114 157.638,114 H 342.22 c 23.917,0 43.313,19.392 43.313,43.314 v 184.582 z"
   inkscape:connector-curvature="0" />
				</defs>
				<clipPath
   id="SVGID_2_">
					<use
   xlink:href="#SVGID_1_"
   overflow="visible"
   id="use4895"
   style="overflow:visible"
   x="0"
   y="0"
   width="500"
   height="500" />
				</clipPath>
				<ellipse
   clip-path="url(#SVGID_2_)"
   cx="250.634"
   cy="376.95099"
   rx="204.146"
   ry="82.195"
   id="ellipse4897"
   sodipodi:cx="250.634"
   sodipodi:cy="376.95099"
   sodipodi:rx="204.146"
   sodipodi:ry="82.195"
   style="fill:#f5f5f5"
   d="m 454.78,376.95099 c 0,45.39504 -91.39928,82.195 -204.146,82.195 -112.74672,0 -204.145993,-36.79996 -204.145993,-82.195 0,-45.39505 91.399273,-82.195 204.145993,-82.195 112.74672,0 204.146,36.79995 204.146,82.195 z" />
			</g>
		</g>
		<path
   d="M 342.22,390.252 H 157.638 c -26.666,0 -48.357,-21.688 -48.357,-48.355 V 157.314 c 0,-26.661 21.691,-48.355 48.357,-48.355 H 342.22 c 26.663,0 48.356,21.694 48.356,48.355 v 184.581 c 0,26.667 -21.693,48.357 -48.356,48.357 z M 157.638,119.043 c -21.103,0 -38.271,17.168 -38.271,38.271 v 184.581 c 0,21.104 17.168,38.275 38.271,38.275 H 342.22 c 21.1,0 38.271,-17.173 38.271,-38.275 V 157.314 c 0,-21.103 -17.172,-38.271 -38.271,-38.271 H 157.638 z"
   id="path4899"
   inkscape:connector-curvature="0"
   style="fill:#28a745" />
	</g>
	<g
   id="Layer_2">
	</g>
</g>
<g
   id="Layer_2_1_"
   transform="matrix(1.7682433,0,0,1.7682433,-190.00524,-189.639)">
</g>
<g
   id="Layer_3"
   transform="matrix(1.7682433,0,0,1.7682433,-190.00524,-189.639)">
	<path
   d="m 251.26,150.356 c -34.941,0 -62.312,15.108 -62.312,34.388 0,0.109 0.021,0.218 0.03,0.323 h -0.026 l 9.636,132.274 c 1.746,19.376 24.385,33.99 52.654,33.99 28.619,0 51.259,-14.649 52.655,-34.069 l 9.661,-132.195 h -0.013 c 0,-0.105 0.03,-0.214 0.03,-0.323 0.001,-19.28 -27.378,-34.388 -62.315,-34.388 z m 43.718,166.26 c -1.038,14.444 -20.249,25.777 -43.735,25.777 -25.93,0 -42.604,-13.148 -43.743,-25.786 l -5.612,-77.022 c 0.236,0.288 0.437,0.593 0.747,0.82 l 1.436,1.065 c 6.908,5.114 13.423,9.941 23.146,10.752 0.131,0.009 0.253,0.018 0.375,0.018 2.304,0 4.259,-1.771 4.442,-4.102 0.209,-2.453 -1.615,-4.617 -4.076,-4.827 -7.192,-0.593 -12.21,-4.312 -18.564,-9.024 l -1.458,-1.082 c -1.99,-1.458 -4.783,-1.039 -6.249,0.951 -0.079,0.113 -0.101,0.244 -0.17,0.358 l -2.221,-30.556 c 11.067,9.217 30.01,15.178 51.965,15.178 21.941,0 40.89,-5.961 51.957,-15.169 l -8.24,112.649 z m 9.626,-131.558 c -0.376,13.659 -24.639,25.14 -53.345,25.14 -28.723,0 -52.978,-11.485 -53.344,-25.149 l -0.026,-0.367 c 0.07,-12.275 21.497,-25.389 53.37,-25.389 31.874,0 53.292,13.113 53.371,25.389 l -0.026,0.376 z"
   id="path4904"
   inkscape:connector-curvature="0"
   style="fill:#28a745" />
	<path
   d="m 257.814,284.603 c 1.99,0.394 4.028,0.585 6.053,0.585 6,0 11.813,-1.685 15.602,-4.713 1.924,-1.545 2.238,-4.355 0.697,-6.284 -1.535,-1.929 -4.354,-2.234 -6.279,-0.698 -2.526,2.025 -8.409,3.535 -14.318,2.348 -2.417,-0.497 -4.773,1.074 -5.263,3.5 -0.48,2.426 1.083,4.773 3.508,5.262 z"
   id="path4906"
   inkscape:connector-curvature="0"
   style="fill:#28a745" />
	<path
   d="m 272.722,261.404 c 0.258,0 0.523,-0.018 0.794,-0.069 15.767,-2.828 21.144,-8.161 25.682,-13.834 1.541,-1.92 1.227,-4.739 -0.698,-6.284 -1.925,-1.536 -4.734,-1.23 -6.279,0.698 -3.203,4.015 -6.52,8.152 -20.283,10.622 -2.427,0.437 -4.05,2.758 -3.604,5.193 0.382,2.165 2.267,3.674 4.388,3.674 z"
   id="path4908"
   inkscape:connector-curvature="0"
   style="fill:#28a745" />
	<path
   d="m 281.672,300.566 c -2.71,2.924 -5.791,4.441 -10.303,5.088 -2.444,0.349 -4.146,2.609 -3.797,5.054 0.323,2.233 2.23,3.84 4.425,3.84 0.21,0 0.419,-0.018 0.633,-0.044 6.533,-0.934 11.49,-3.43 15.601,-7.863 1.676,-1.807 1.571,-4.635 -0.239,-6.311 -1.816,-1.684 -4.644,-1.57 -6.32,0.236 z"
   id="path4910"
   inkscape:connector-curvature="0"
   style="fill:#28a745" />
	<path
   d="m 236.754,311.249 c -8.143,-0.629 -9.998,-1.083 -13.908,-10.535 -0.942,-2.277 -3.561,-3.368 -5.834,-2.417 -2.287,0.942 -3.369,3.552 -2.426,5.83 5.219,12.611 10.168,15.16 21.488,16.033 0.109,0.008 0.227,0.008 0.34,0.008 2.317,0 4.272,-1.78 4.451,-4.119 0.192,-2.461 -1.649,-4.609 -4.111,-4.8 z"
   id="path4912"
   inkscape:connector-curvature="0"
   style="fill:#28a745" />
</g>
</svg>