<?xml version="1.0" encoding="UTF-8" standalone="no"?>
<!-- Generator: Adobe Illustrator 16.0.0, SVG Export Plug-In . SVG Version: 6.00 Build 0)  -->

<svg
   xmlns:dc="http://purl.org/dc/elements/1.1/"
   xmlns:cc="http://creativecommons.org/ns#"
   xmlns:rdf="http://www.w3.org/1999/02/22-rdf-syntax-ns#"
   xmlns:svg="http://www.w3.org/2000/svg"
   xmlns="http://www.w3.org/2000/svg"
   xmlns:xlink="http://www.w3.org/1999/xlink"
   xmlns:sodipodi="http://sodipodi.sourceforge.net/DTD/sodipodi-0.dtd"
   xmlns:inkscape="http://www.inkscape.org/namespaces/inkscape"
   version="1.1"
   x="0px"
   y="0px"
   width="500px"
   height="500px"
   viewBox="0 0 500 500"
   enable-background="new 0 0 500 500"
   xml:space="preserve"
   id="svg4529"
   inkscape:version="0.48.4 r9939"
   sodipodi:docname="kunststoffe@2x.svg"><metadata
   id="metadata4560"><rdf:RDF><cc:Work
       rdf:about=""><dc:format>image/svg+xml</dc:format><dc:type
         rdf:resource="http://purl.org/dc/dcmitype/StillImage" /></cc:Work></rdf:RDF></metadata><defs
   id="defs4558" /><sodipodi:namedview
   pagecolor="#ffffff"
   bordercolor="#666666"
   borderopacity="1"
   objecttolerance="10"
   gridtolerance="10"
   guidetolerance="10"
   inkscape:pageopacity="0"
   inkscape:pageshadow="2"
   inkscape:window-width="640"
   inkscape:window-height="480"
   id="namedview4556"
   showgrid="false"
   inkscape:zoom="0.472"
   inkscape:cx="250"
   inkscape:cy="250"
   inkscape:window-x="0"
   inkscape:window-y="0"
   inkscape:window-maximized="0"
   inkscape:current-layer="svg4529" />
<g
   id="Layer_1"
   transform="matrix(1.7682433,0,0,1.7682433,-192.00524,-189.99493)">
	<g
   id="bg">
		<path
   d="m 385.533,341.896 c 0,23.922 -19.396,43.317 -43.313,43.317 H 157.638 c -23.922,0 -43.314,-19.396 -43.314,-43.317 V 157.314 C 114.324,133.392 133.716,114 157.638,114 H 342.22 c 23.917,0 43.313,19.392 43.313,43.314 v 184.582 z"
   id="path4533"
   inkscape:connector-curvature="0"
   style="fill:#ffffff" />
		<g
   id="g4535">
			<g
   id="g4537">
				<defs
   id="defs4539">
					<path
   id="SVGID_1_"
   d="m 385.533,341.896 c 0,23.922 -19.396,43.317 -43.313,43.317 H 157.638 c -23.922,0 -43.314,-19.396 -43.314,-43.317 V 157.314 C 114.324,133.392 133.716,114 157.638,114 H 342.22 c 23.917,0 43.313,19.392 43.313,43.314 v 184.582 z"
   inkscape:connector-curvature="0" />
				</defs>
				<clipPath
   id="SVGID_2_">
					<use
   xlink:href="#SVGID_1_"
   overflow="visible"
   id="use4543"
   style="overflow:visible"
   x="0"
   y="0"
   width="500"
   height="500" />
				</clipPath>
				<ellipse
   clip-path="url(#SVGID_2_)"
   cx="250.634"
   cy="376.95099"
   rx="204.146"
   ry="82.195"
   id="ellipse4545"
   sodipodi:cx="250.634"
   sodipodi:cy="376.95099"
   sodipodi:rx="204.146"
   sodipodi:ry="82.195"
   style="fill:#f5f5f5"
   d="m 454.78,376.95099 c 0,45.39504 -91.39928,82.195 -204.146,82.195 -112.74672,0 -204.145993,-36.79996 -204.145993,-82.195 0,-45.39505 91.399273,-82.195 204.145993,-82.195 112.74672,0 204.146,36.79995 204.146,82.195 z" />
			</g>
		</g>
		<path
   d="M 342.22,390.252 H 157.638 c -26.666,0 -48.357,-21.688 -48.357,-48.355 V 157.314 c 0,-26.661 21.691,-48.355 48.357,-48.355 H 342.22 c 26.663,0 48.356,21.694 48.356,48.355 v 184.581 c 0,26.667 -21.693,48.357 -48.356,48.357 z M 157.638,119.043 c -21.103,0 -38.271,17.168 -38.271,38.271 v 184.581 c 0,21.104 17.168,38.275 38.271,38.275 H 342.22 c 21.1,0 38.271,-17.173 38.271,-38.275 V 157.314 c 0,-21.103 -17.172,-38.271 -38.271,-38.271 H 157.638 z"
   id="path4547"
   inkscape:connector-curvature="0"
   style="fill:#28a745" />
	</g>
	<g
   id="Layer_2">
	</g>
</g>
<g
   id="Layer_2_1_"
   transform="matrix(1.7682433,0,0,1.7682433,-192.00524,-189.99493)">
</g>
<g
   id="Layer_3"
   transform="matrix(1.7682433,0,0,1.7682433,-192.00524,-189.99493)">
	<path
   d="m 270.603,188.298 -1.771,-1.958 c 0.039,-0.036 0.071,-0.068 0.104,-0.098 0.356,-0.327 0.68,-0.629 0.971,-0.958 1.195,-1.444 0.981,-3.571 0.795,-4.269 l -0.597,-2.26 h -39.501 l -0.532,2.373 c -0.316,1.412 -0.047,3.385 1.208,4.556 0.237,0.231 0.475,0.463 0.7,0.688 -0.285,0.326 -0.676,0.759 -1.213,1.323 -2.005,2.046 -3.996,4.253 -5.973,6.626 -4.065,5.144 -7.059,10.697 -8.902,16.535 -1.971,6.434 -2.923,13.073 -2.826,19.688 l -0.006,2.053 0.136,76.978 0.227,11.047 0.553,5.464 c 0.353,3.257 1.155,6.442 2.357,9.395 0.313,0.83 0.712,1.696 1.128,2.462 l 2.376,4.858 h 62.559 l 2.15,-7.522 c 1.613,-5.39 2.35,-9.169 2.827,-14.473 0.294,-3.648 0.415,-7.404 0.364,-11.124 l -0.142,-76.716 0.147,-2.344 0.007,-0.166 c 0.098,-14.015 -3.967,-26.519 -11.776,-36.189 -1.715,-2.077 -3.552,-4.115 -5.37,-5.969 z m 10.958,64.489 h -62.253 v 6.075 h 62.262 l 0.021,8.815 h -62.283 v 6.075 H 281.6 l 0.015,8.116 h -62.307 v 6.075 h 62.318 l 0.039,21.785 c 0.047,3.565 -0.068,7.131 -0.342,10.56 -0.436,4.824 -1.115,8.295 -2.604,13.278 l -0.901,3.159 h -54.189 l -0.761,-1.561 c -0.344,-0.635 -0.629,-1.255 -0.876,-1.907 -1.018,-2.498 -1.682,-5.132 -1.974,-7.813 l -0.522,-5.072 -0.223,-10.869 -0.136,-76.906 0.006,-2.088 c -0.089,-6.034 0.773,-12.043 2.552,-17.847 1.612,-5.107 4.26,-10.01 7.815,-14.513 1.823,-2.186 3.705,-4.271 5.663,-6.271 2.102,-2.213 2.956,-3.381 3.26,-4.47 l 0.062,-0.282 c 0.136,-0.774 0.077,-1.554 -0.181,-2.296 h 24.174 c -0.294,0.783 -0.386,1.673 -0.08,2.658 l 0.118,0.32 c 0.332,0.76 0.777,1.459 1.344,2.101 l 2.308,2.551 c 1.783,1.821 3.504,3.732 5.094,5.654 6.882,8.517 10.478,19.658 10.406,32.218 l -0.154,2.45 0.037,20.005 z"
   id="path4552"
   inkscape:connector-curvature="0"
   style="fill:#28a745" />
	<polygon
   points="230.862,156.95 230.782,173.226 236.857,173.256 236.857,173.241 267.408,173.241 270.446,173.256 270.526,156.95 "
   id="polygon4554"
   style="fill:#28a745" />
</g>
</svg>