<?xml version="1.0" encoding="UTF-8" standalone="no"?>
<!-- Generator: Adobe Illustrator 16.0.0, SVG Export Plug-In . SVG Version: 6.00 Build 0)  -->

<svg
   xmlns:dc="http://purl.org/dc/elements/1.1/"
   xmlns:cc="http://creativecommons.org/ns#"
   xmlns:rdf="http://www.w3.org/1999/02/22-rdf-syntax-ns#"
   xmlns:svg="http://www.w3.org/2000/svg"
   xmlns="http://www.w3.org/2000/svg"
   xmlns:xlink="http://www.w3.org/1999/xlink"
   xmlns:sodipodi="http://sodipodi.sourceforge.net/DTD/sodipodi-0.dtd"
   xmlns:inkscape="http://www.inkscape.org/namespaces/inkscape"
   version="1.1"
   x="0px"
   y="0px"
   width="500px"
   height="500px"
   viewBox="0 0 500 500"
   enable-background="new 0 0 500 500"
   xml:space="preserve"
   id="svg4621"
   inkscape:version="0.48.4 r9939"
   sodipodi:docname="kunststoff@2x.svg"><metadata
   id="metadata4656"><rdf:RDF><cc:Work
       rdf:about=""><dc:format>image/svg+xml</dc:format><dc:type
         rdf:resource="http://purl.org/dc/dcmitype/StillImage" /></cc:Work></rdf:RDF></metadata><defs
   id="defs4654" /><sodipodi:namedview
   pagecolor="#ffffff"
   bordercolor="#666666"
   borderopacity="1"
   objecttolerance="10"
   gridtolerance="10"
   guidetolerance="10"
   inkscape:pageopacity="0"
   inkscape:pageshadow="2"
   inkscape:window-width="640"
   inkscape:window-height="480"
   id="namedview4652"
   showgrid="false"
   inkscape:zoom="0.472"
   inkscape:cx="250"
   inkscape:cy="250"
   inkscape:window-x="0"
   inkscape:window-y="0"
   inkscape:window-maximized="0"
   inkscape:current-layer="svg4621" />
<g
   id="Layer_1"
   transform="matrix(1.7682433,0,0,1.7682433,-189.8866,-189.639)">
	<g
   id="bg">
		<path
   d="m 385.533,341.896 c 0,23.922 -19.396,43.317 -43.313,43.317 H 157.638 c -23.922,0 -43.314,-19.396 -43.314,-43.317 V 157.314 C 114.324,133.392 133.716,114 157.638,114 H 342.22 c 23.917,0 43.313,19.392 43.313,43.314 v 184.582 z"
   id="path4625"
   inkscape:connector-curvature="0"
   style="fill:#ffffff" />
		<g
   id="g4627">
			<g
   id="g4629">
				<defs
   id="defs4631">
					<path
   id="SVGID_1_"
   d="m 385.533,341.896 c 0,23.922 -19.396,43.317 -43.313,43.317 H 157.638 c -23.922,0 -43.314,-19.396 -43.314,-43.317 V 157.314 C 114.324,133.392 133.716,114 157.638,114 H 342.22 c 23.917,0 43.313,19.392 43.313,43.314 v 184.582 z"
   inkscape:connector-curvature="0" />
				</defs>
				<clipPath
   id="SVGID_2_">
					<use
   xlink:href="#SVGID_1_"
   overflow="visible"
   id="use4635"
   style="overflow:visible"
   x="0"
   y="0"
   width="500"
   height="500" />
				</clipPath>
				<ellipse
   clip-path="url(#SVGID_2_)"
   cx="250.634"
   cy="376.95099"
   rx="204.146"
   ry="82.195"
   id="ellipse4637"
   sodipodi:cx="250.634"
   sodipodi:cy="376.95099"
   sodipodi:rx="204.146"
   sodipodi:ry="82.195"
   style="fill:#f5f5f5"
   d="m 454.78,376.95099 c 0,45.39504 -91.39928,82.195 -204.146,82.195 -112.74672,0 -204.145993,-36.79996 -204.145993,-82.195 0,-45.39505 91.399273,-82.195 204.145993,-82.195 112.74672,0 204.146,36.79995 204.146,82.195 z" />
			</g>
		</g>
		<path
   d="M 342.22,390.252 H 157.638 c -26.666,0 -48.357,-21.688 -48.357,-48.355 V 157.314 c 0,-26.661 21.691,-48.355 48.357,-48.355 H 342.22 c 26.663,0 48.356,21.694 48.356,48.355 v 184.581 c 0,26.667 -21.693,48.357 -48.356,48.357 z M 157.638,119.043 c -21.103,0 -38.271,17.168 -38.271,38.271 v 184.581 c 0,21.104 17.168,38.275 38.271,38.275 H 342.22 c 21.1,0 38.271,-17.173 38.271,-38.275 V 157.314 c 0,-21.103 -17.172,-38.271 -38.271,-38.271 H 157.638 z"
   id="path4639"
   inkscape:connector-curvature="0"
   style="fill:#28a745" />
	</g>
	<g
   id="Layer_2">
	</g>
</g>
<g
   id="Layer_2_1_"
   transform="matrix(1.7682433,0,0,1.7682433,-189.8866,-189.639)">
</g>
<g
   id="Layer_3"
   transform="matrix(1.7682433,0,0,1.7682433,-189.8866,-189.639)">
	<path
   d="m 327.198,269.568 -0.003,-14.559 c 0.073,-1.802 0.107,-3.589 0.107,-5.376 0,-9.453 -0.702,-18.231 -2.087,-26.077 -0.375,-2.156 -0.82,-4.292 -1.366,-6.545 -0.602,-2.469 -1.346,-4.932 -2.201,-7.324 -0.696,-1.913 -1.392,-3.619 -2.094,-5.135 -0.744,-1.701 -1.607,-3.478 -2.637,-5.453 -1.426,-2.702 -2.994,-5.418 -4.653,-8.058 -3.234,-5.192 -7.202,-11.32 -12.155,-17.386 -0.594,-0.723 -1.001,-1.28 -1.395,-1.808 -0.626,-0.855 -1.224,-1.663 -2.295,-2.869 l -1.061,-1.197 h -37.349 l -1.061,1.197 c -1.735,1.958 -2.535,2.949 -3.94,4.685 l -0.448,0.549 c -2.633,3.255 -4.666,6.33 -6.819,9.585 -0.671,1.016 -1.354,2.052 -2.078,3.116 -4.615,6.869 -8.169,13.424 -10.726,19.58 -0.145,-0.15 -0.287,-0.313 -0.433,-0.459 l -1.433,-1.593 c 0.265,-0.243 0.513,-0.494 0.75,-0.758 1.284,-1.551 1.153,-3.77 0.904,-4.73 l -0.694,-2.664 h -40.419 l -0.633,2.769 c -0.354,1.558 -0.059,3.742 1.348,5.063 0.119,0.118 0.238,0.233 0.355,0.348 -0.235,0.261 -0.525,0.571 -0.88,0.943 -2.019,2.064 -4.024,4.283 -6.019,6.683 -4.118,5.203 -7.147,10.83 -9.015,16.756 -1.994,6.504 -2.956,13.216 -2.858,19.886 l -0.005,2.059 0.137,77.207 0.229,11.081 0.553,5.522 c 0.365,3.325 1.184,6.566 2.396,9.543 0.322,0.849 0.729,1.739 1.149,2.519 l 2.523,5.161 h 63.442 l 1.638,-5.725 h 64.132 c 1.329,0 2.626,0.014 3.854,0.021 1.127,0.014 2.198,0.028 3.192,0.028 l 0,0 c 5.186,0 7.603,-0.271 9.157,-1.948 0.79,-0.849 1.179,-1.954 1.106,-2.845 l -0.115,-79.906 c 0.005,-0.641 -0.036,-1.274 -0.1,-1.886 z m -87.43,82.341 -0.8,2.796 H 227.301 185.34 l -0.629,-1.287 c -0.314,-0.591 -0.595,-1.183 -0.855,-1.871 -1,-2.448 -1.655,-5.05 -1.944,-7.692 l -0.522,-5.063 -0.223,-10.865 -0.043,-24.644 h 44.674 7.123 9.74 l 0.043,24.866 c 0.049,3.568 -0.069,7.123 -0.341,10.545 -0.348,3.854 -0.847,6.768 -1.78,10.301 -0.245,0.925 -0.502,1.87 -0.815,2.914 z m -58.739,-101.114 0.005,-2.108 c -0.087,-5.981 0.77,-11.957 2.537,-17.723 1.598,-5.064 4.224,-9.933 7.743,-14.384 1.815,-2.177 3.692,-4.257 5.603,-6.211 2.212,-2.302 3.112,-3.553 3.446,-4.773 l 0.073,-0.334 c 0.106,-0.619 0.099,-1.241 -0.024,-1.85 h 22.877 c -0.146,0.696 -0.136,1.468 0.122,2.295 l 0.141,0.382 c 0.356,0.814 0.834,1.56 1.436,2.242 l 2.329,2.581 c 1.009,1.029 1.982,2.08 2.93,3.144 0.735,0.828 1.46,1.655 2.146,2.483 1.238,1.53 2.329,3.179 3.349,4.869 4.624,7.679 7.044,16.916 6.98,27.002 l -0.158,2.671 0.031,17.159 h -9.4 -7.123 -45.012 l -0.031,-17.445 z m 0.042,23.997 h 44.892 7.123 9.522 l 0.014,7.692 h -9.58 -7.123 -44.834 l -0.014,-7.692 z m 0.026,14.245 h 44.782 7.123 9.632 l 0.014,7.692 h -9.689 -7.123 -44.725 l -0.014,-7.692 z m 132.934,59.964 c -1.248,-0.007 -2.566,-0.021 -3.923,-0.021 h -62.19 c 0.748,-3.165 1.219,-6.086 1.541,-9.689 0.292,-3.672 0.416,-7.449 0.367,-11.191 l -0.146,-76.811 0.158,-2.637 c 0.098,-13.974 -3.919,-26.452 -11.614,-36.19 0.04,-0.111 0.07,-0.229 0.11,-0.341 2.367,-6.512 6.15,-13.656 11.238,-21.23 0.732,-1.078 1.428,-2.132 2.11,-3.165 2.059,-3.109 3.999,-6.044 6.413,-9.028 l 0.452,-0.556 c 1.008,-1.249 1.689,-2.094 2.681,-3.238 h 30.873 c 0.327,0.414 0.598,0.783 0.876,1.165 0.459,0.619 0.936,1.266 1.621,2.101 4.695,5.746 8.507,11.634 11.63,16.652 1.571,2.504 3.054,5.057 4.386,7.582 0.945,1.815 1.735,3.457 2.451,5.079 0.644,1.391 1.26,2.908 1.885,4.625 0.77,2.149 1.434,4.361 1.979,6.594 0.508,2.087 0.922,4.076 1.272,6.08 1.312,7.449 1.979,15.81 1.979,24.853 0,1.69 -0.031,3.38 -0.104,5.231 v 14.892 l 0.021,0.396 c 0.049,0.417 0.084,0.862 0.084,1.308 l 0.118,77.5 c -1.203,0.067 -3.548,0.074 -6.268,0.039 z"
   id="path4644"
   inkscape:connector-curvature="0"
   style="fill:#28a745" />
	<path
   d="m 289.621,190.905 c -0.379,0 -0.762,0.028 -1.134,0.083 -3.488,0.529 -8.037,3.693 -9.874,15.734 -1.23,8.07 -1.001,18.455 0.647,29.236 1.683,11.045 5.411,25.743 18.217,25.743 0.974,0 1.989,-0.083 3.108,-0.258 3.332,-0.507 8.014,-1.863 10.135,-7.721 1.669,-4.604 1.662,-11.56 -0.021,-22.563 -2.966,-19.392 -10.826,-40.254 -21.078,-40.254 z m 14.404,60.391 c -0.713,1.961 -1.77,2.691 -4.51,3.108 -0.759,0.119 -1.427,0.174 -2.038,0.174 -2.233,0 -8.17,0 -11.178,-19.698 -1.541,-10.086 -1.767,-19.706 -0.647,-27.079 1.189,-7.802 3.384,-9.691 3.969,-9.774 2.987,0 10.652,12.07 14.032,34.21 1.458,9.494 1.579,15.727 0.372,19.059 z"
   id="path4646"
   inkscape:connector-curvature="0"
   style="fill:#28a745" />
	<path
   d="m 296.204,162.662 v -18.7 h -0.007 c -0.185,-3.082 -2.786,-5.53 -5.954,-5.53 h -26.487 c -3.108,0 -5.731,2.361 -5.995,5.363 v 0.059 c -0.015,0.149 0,18.808 0,18.808 h 38.443 z"
   id="path4648"
   inkscape:connector-curvature="0"
   style="fill:#28a745" />
	<polygon
   points="190.753,172.577 190.753,189.757 232.512,189.792 232.512,172.577 "
   id="polygon4650"
   style="fill:#28a745" />
</g>
</svg>