<?xml version="1.0" encoding="UTF-8" standalone="no"?>
<!-- Generator: Adobe Illustrator 16.0.0, SVG Export Plug-In . SVG Version: 6.00 Build 0)  -->

<svg
   xmlns:dc="http://purl.org/dc/elements/1.1/"
   xmlns:cc="http://creativecommons.org/ns#"
   xmlns:rdf="http://www.w3.org/1999/02/22-rdf-syntax-ns#"
   xmlns:svg="http://www.w3.org/2000/svg"
   xmlns="http://www.w3.org/2000/svg"
   xmlns:xlink="http://www.w3.org/1999/xlink"
   xmlns:sodipodi="http://sodipodi.sourceforge.net/DTD/sodipodi-0.dtd"
   xmlns:inkscape="http://www.inkscape.org/namespaces/inkscape"
   version="1.1"
   x="0px"
   y="0px"
   width="500px"
   height="500px"
   viewBox="0 0 500 500"
   enable-background="new 0 0 500 500"
   xml:space="preserve"
   id="svg4431"
   inkscape:version="0.48.4 r9939"
   sodipodi:docname="leuchtstofflampen@2x.svg"><metadata
   id="metadata4470"><rdf:RDF><cc:Work
       rdf:about=""><dc:format>image/svg+xml</dc:format><dc:type
         rdf:resource="http://purl.org/dc/dcmitype/StillImage" /></cc:Work></rdf:RDF></metadata><defs
   id="defs4468" /><sodipodi:namedview
   pagecolor="#ffffff"
   bordercolor="#666666"
   borderopacity="1"
   objecttolerance="10"
   gridtolerance="10"
   guidetolerance="10"
   inkscape:pageopacity="0"
   inkscape:pageshadow="2"
   inkscape:window-width="640"
   inkscape:window-height="480"
   id="namedview4466"
   showgrid="false"
   inkscape:zoom="0.472"
   inkscape:cx="250"
   inkscape:cy="250"
   inkscape:window-x="0"
   inkscape:window-y="0"
   inkscape:window-maximized="0"
   inkscape:current-layer="svg4431" />
<g
   id="Layer_1"
   transform="matrix(1.7682433,0,0,1.7682433,-190.12389,-189.52035)">
	<g
   id="bg">
		<path
   d="m 385.533,341.896 c 0,23.922 -19.396,43.317 -43.313,43.317 H 157.638 c -23.922,0 -43.314,-19.396 -43.314,-43.317 V 157.314 C 114.324,133.392 133.716,114 157.638,114 H 342.22 c 23.917,0 43.313,19.392 43.313,43.314 v 184.582 z"
   id="path4435"
   inkscape:connector-curvature="0"
   style="fill:#ffffff" />
		<g
   id="g4437">
			<g
   id="g4439">
				<defs
   id="defs4441">
					<path
   id="SVGID_1_"
   d="m 385.533,341.896 c 0,23.922 -19.396,43.317 -43.313,43.317 H 157.638 c -23.922,0 -43.314,-19.396 -43.314,-43.317 V 157.314 C 114.324,133.392 133.716,114 157.638,114 H 342.22 c 23.917,0 43.313,19.392 43.313,43.314 v 184.582 z"
   inkscape:connector-curvature="0" />
				</defs>
				<clipPath
   id="SVGID_2_">
					<use
   xlink:href="#SVGID_1_"
   overflow="visible"
   id="use4445"
   style="overflow:visible"
   x="0"
   y="0"
   width="500"
   height="500" />
				</clipPath>
				<ellipse
   clip-path="url(#SVGID_2_)"
   cx="250.634"
   cy="376.95099"
   rx="204.146"
   ry="82.195"
   id="ellipse4447"
   sodipodi:cx="250.634"
   sodipodi:cy="376.95099"
   sodipodi:rx="204.146"
   sodipodi:ry="82.195"
   style="fill:#f5f5f5"
   d="m 454.78,376.95099 c 0,45.39504 -91.39928,82.195 -204.146,82.195 -112.74672,0 -204.145993,-36.79996 -204.145993,-82.195 0,-45.39505 91.399273,-82.195 204.145993,-82.195 112.74672,0 204.146,36.79995 204.146,82.195 z" />
			</g>
		</g>
		<path
   d="M 342.22,390.252 H 157.638 c -26.666,0 -48.357,-21.688 -48.357,-48.355 V 157.314 c 0,-26.661 21.691,-48.355 48.357,-48.355 H 342.22 c 26.663,0 48.356,21.694 48.356,48.355 v 184.581 c 0,26.667 -21.693,48.357 -48.356,48.357 z M 157.638,119.043 c -21.103,0 -38.271,17.168 -38.271,38.271 v 184.581 c 0,21.104 17.168,38.275 38.271,38.275 H 342.22 c 21.1,0 38.271,-17.173 38.271,-38.275 V 157.314 c 0,-21.103 -17.172,-38.271 -38.271,-38.271 H 157.638 z"
   id="path4449"
   inkscape:connector-curvature="0"
   style="fill:#28a745" />
	</g>
	<g
   id="Layer_2">
	</g>
</g>
<g
   id="Layer_2_1_"
   transform="matrix(1.7682433,0,0,1.7682433,-190.12389,-189.52035)">
</g>
<g
   id="Layer_3"
   transform="matrix(1.7682433,0,0,1.7682433,-190.12389,-189.52035)">
	<path
   d="m 306.394,159.004 c 0.025,-0.035 2.717,-3.535 5.383,-6.63 2.685,-3.114 -0.501,-6.147 -0.501,-6.147 -2.09,-1.823 -5.607,0.981 -5.607,0.981 l -5.458,7.025 -2.629,-2.028 -3.849,-3.149 c 0,0 4.287,-5.349 5.276,-6.83 0.988,-1.486 1.846,-3.42 -0.686,-5.778 -2.532,-2.358 -5.555,1.076 -5.555,1.076 l -5.427,6.785 -5.614,-4.331 -141.784,183.823 2.711,2.092 2.564,2.23 c 0,0 -4.337,5.871 -6.384,8.594 -2.043,2.707 1.102,5.326 1.102,5.326 2.968,2.309 5.817,-0.971 5.817,-0.971 l 6.193,-7.658 6.199,5.08 c 0,0 -3.355,4.184 -5.799,7.639 -2.438,3.455 0.437,5.607 0.437,5.607 2.618,2.145 5.308,0.004 5.308,0.004 l 6.619,-8.219 4.772,3.174 0.058,-0.074 0.723,0.557 141.779,-183.822 -5.648,-4.356 z M 172.598,333.619 152.51,318.041 277.847,155.548 l 20.466,15.081 -125.715,162.99 z"
   id="path4454"
   inkscape:connector-curvature="0"
   style="fill:#28a745" />
	<path
   d="m 316.896,207.965 h -0.313 c -23.22,0 -39.437,15.387 -39.437,37.418 0,13.085 6.885,21.634 12.417,28.501 4.341,5.379 7.768,9.633 7.411,14.582 l 0.087,0.008 0.558,18.791 10.387,12.408 h 17.915 l 10.828,-12.963 v -21.098 c 0.819,-3.809 3.68,-7.404 7.166,-11.729 5.533,-6.867 12.418,-15.416 12.418,-28.501 0,-22.029 -16.217,-37.417 -39.437,-37.417 z m -6.829,76.623 -4.249,-0.039 v -42.766 c 0,-1.172 0.957,-2.124 2.128,-2.124 1.17,0 2.121,0.952 2.121,2.124 v 42.805 z m 17.412,0.043 h -4.249 v -42.848 c 0,-1.172 0.954,-2.124 2.124,-2.124 1.174,0 2.125,0.952 2.125,2.124 v 42.848 z m 11.842,-14.445 c -2.578,3.197 -5.051,6.314 -6.716,9.654 v -38.057 c 0,-3.998 -3.251,-7.25 -7.251,-7.25 -3.996,0 -7.251,3.251 -7.251,7.25 v 42.842 l -2.91,-0.006 v -42.836 c 0,-3.998 -3.248,-7.25 -7.247,-7.25 -4,0 -7.254,3.251 -7.254,7.25 v 37.682 c -1.659,-3.195 -4.05,-6.197 -6.534,-9.279 -5.464,-6.785 -11.116,-13.795 -11.116,-24.802 0,-18.854 13.479,-31.519 33.541,-31.519 h 0.313 c 20.065,0 33.54,12.665 33.54,31.519 0.001,11.007 -5.651,18.016 -11.115,24.802 z"
   id="path4456"
   inkscape:connector-curvature="0"
   style="fill:#28a745" />
	<polygon
   points="320.914,352.455 323.48,347.562 309.999,347.562 312.233,352.455 "
   id="polygon4458"
   style="fill:#28a745" />
	<path
   d="m 324.951,328.496 -17.688,4.506 c -1.37,0.348 -2.2,1.742 -1.853,3.117 0.298,1.16 1.34,1.93 2.484,1.93 0.21,0 0.423,-0.023 0.636,-0.08 l 17.685,-4.508 c 1.37,-0.346 2.203,-1.746 1.853,-3.115 -0.35,-1.371 -1.746,-2.211 -3.117,-1.85 z"
   id="path4460"
   inkscape:connector-curvature="0"
   style="fill:#28a745" />
	<path
   d="m 324.951,320.834 -17.688,4.508 c -1.37,0.346 -2.2,1.742 -1.853,3.115 0.298,1.162 1.34,1.932 2.484,1.932 0.21,0 0.423,-0.025 0.636,-0.082 l 17.685,-4.506 c 1.37,-0.348 2.203,-1.746 1.853,-3.117 -0.35,-1.37 -1.746,-2.215 -3.117,-1.85 z"
   id="path4462"
   inkscape:connector-curvature="0"
   style="fill:#28a745" />
	<path
   d="m 324.951,335.965 -17.688,4.508 c -1.37,0.35 -2.2,1.746 -1.853,3.115 0.298,1.158 1.34,1.932 2.484,1.932 0.21,0 0.423,-0.025 0.636,-0.078 l 17.685,-4.506 c 1.37,-0.352 2.203,-1.746 1.853,-3.117 -0.35,-1.376 -1.746,-2.217 -3.117,-1.854 z"
   id="path4464"
   inkscape:connector-curvature="0"
   style="fill:#28a745" />
</g>
</svg>