<?xml version="1.0" encoding="UTF-8" standalone="no"?>
<!-- Generator: Adobe Illustrator 16.0.0, SVG Export Plug-In . SVG Version: 6.00 Build 0)  -->

<svg
   xmlns:dc="http://purl.org/dc/elements/1.1/"
   xmlns:cc="http://creativecommons.org/ns#"
   xmlns:rdf="http://www.w3.org/1999/02/22-rdf-syntax-ns#"
   xmlns:svg="http://www.w3.org/2000/svg"
   xmlns="http://www.w3.org/2000/svg"
   xmlns:xlink="http://www.w3.org/1999/xlink"
   xmlns:sodipodi="http://sodipodi.sourceforge.net/DTD/sodipodi-0.dtd"
   xmlns:inkscape="http://www.inkscape.org/namespaces/inkscape"
   version="1.1"
   x="0px"
   y="0px"
   width="500px"
   height="500px"
   viewBox="0 0 500 500"
   enable-background="new 0 0 500 500"
   xml:space="preserve"
   id="svg4323"
   inkscape:version="0.48.4 r9939"
   sodipodi:docname="metalle@2x.svg"><metadata
   id="metadata4366"><rdf:RDF><cc:Work
       rdf:about=""><dc:format>image/svg+xml</dc:format><dc:type
         rdf:resource="http://purl.org/dc/dcmitype/StillImage" /></cc:Work></rdf:RDF></metadata><defs
   id="defs4364" /><sodipodi:namedview
   pagecolor="#ffffff"
   bordercolor="#666666"
   borderopacity="1"
   objecttolerance="10"
   gridtolerance="10"
   guidetolerance="10"
   inkscape:pageopacity="0"
   inkscape:pageshadow="2"
   inkscape:window-width="640"
   inkscape:window-height="480"
   id="namedview4362"
   showgrid="false"
   inkscape:zoom="0.472"
   inkscape:cx="250"
   inkscape:cy="250"
   inkscape:window-x="0"
   inkscape:window-y="0"
   inkscape:window-maximized="0"
   inkscape:current-layer="svg4323" />
<g
   id="bg"
   transform="matrix(1.7682433,0,0,1.7682433,-189.8866,-190.11357)">
	<path
   d="m 385.533,341.896 c 0,23.922 -19.396,43.318 -43.313,43.318 H 157.638 c -23.922,0 -43.314,-19.396 -43.314,-43.318 V 157.314 C 114.324,133.392 133.716,114 157.638,114 H 342.22 c 23.917,0 43.313,19.392 43.313,43.314 v 184.582 z"
   id="path4326"
   inkscape:connector-curvature="0"
   style="fill:#ffffff" />
	<g
   id="g4328">
		<defs
   id="defs4330">
			<path
   id="SVGID_1_"
   d="m 385.533,341.896 c 0,23.922 -19.396,43.318 -43.313,43.318 H 157.638 c -23.922,0 -43.314,-19.396 -43.314,-43.318 V 157.314 C 114.324,133.392 133.716,114 157.638,114 H 342.22 c 23.917,0 43.313,19.392 43.313,43.314 v 184.582 z"
   inkscape:connector-curvature="0" />
		</defs>
		<clipPath
   id="SVGID_2_">
			<use
   xlink:href="#SVGID_1_"
   overflow="visible"
   id="use4334"
   style="overflow:visible"
   x="0"
   y="0"
   width="500"
   height="500" />
		</clipPath>
		<ellipse
   clip-path="url(#SVGID_2_)"
   cx="250.634"
   cy="376.95099"
   rx="204.146"
   ry="82.195"
   id="ellipse4336"
   sodipodi:cx="250.634"
   sodipodi:cy="376.95099"
   sodipodi:rx="204.146"
   sodipodi:ry="82.195"
   style="fill:#f5f5f5"
   d="m 454.78,376.95099 c 0,45.39504 -91.39928,82.195 -204.146,82.195 -112.74672,0 -204.145993,-36.79996 -204.145993,-82.195 0,-45.39505 91.399273,-82.195 204.145993,-82.195 112.74672,0 204.146,36.79995 204.146,82.195 z" />
	</g>
	<path
   d="M 342.22,390.252 H 157.638 c -26.666,0 -48.357,-21.688 -48.357,-48.356 V 157.314 c 0,-26.661 21.691,-48.355 48.357,-48.355 H 342.22 c 26.663,0 48.356,21.694 48.356,48.355 v 184.581 c 0,26.668 -21.693,48.357 -48.356,48.357 z M 157.638,119.043 c -21.103,0 -38.271,17.168 -38.271,38.271 v 184.581 c 0,21.103 17.168,38.275 38.271,38.275 H 342.22 c 21.099,0 38.271,-17.173 38.271,-38.275 V 157.314 c 0,-21.103 -17.172,-38.271 -38.271,-38.271 H 157.638 z"
   id="path4338"
   inkscape:connector-curvature="0"
   style="fill:#28a745" />
</g>
<g
   id="Layer_2"
   transform="matrix(1.7682433,0,0,1.7682433,-189.8866,-190.11357)">
	<path
   d="m 261.091,325.43 v -39.381 -1.016 -1.01 h -0.105 c -1.095,-14.408 -25.286,-25.557 -56.048,-25.557 -30.769,0 -54.954,11.148 -56.055,25.557 h -0.105 v 1.01 1.016 36.244 l -30.335,15.833 -2.268,-3.491 c -0.534,0.336 -1.064,0.678 -1.595,1.019 0.329,10.782 5.64,21.846 6.39,32.347 0,1.261 -1.188,3.542 0.651,5.477 0.183,0.012 4.051,0.594 4.235,0.603 0.824,-0.453 -4.021,-0.901 -3.197,-1.336 -0.548,-0.853 -1.025,-1.755 -1.404,-2.708 l 49.953,-22.984 c 9.652,3.369 21.295,5.152 33.731,5.152 7.273,0 14.23,-0.623 20.731,-1.82 v 0.033 l 1.105,-0.219 c 0.003,0 0.013,0 0.02,0 l 0.881,-0.17 v -0.018 c 20.586,-4.152 33.358,-13.418 33.411,-24.326 h 0.006 0.017 l -0.019,-0.255 z m -143.33,19.704 32.922,-17.528 1.834,-0.975 h 0.003 l 0.214,-0.117 v -0.002 l 0.957,-0.518 0.205,-0.113 0.475,-0.236 0.006,-0.018 15.655,-8.338 16.427,4.555 -27.523,13.365 -2.642,1.277 -0.003,-0.004 -0.574,0.277 -1.402,0.676 0.003,0.004 -34.176,16.598 -2.381,-8.903 z M 119,338 l 1,1 -1,-1 z m 50.9,3.486 -3.345,1.533 h -0.006 l -0.356,0.166 -2.084,0.953 0.006,0.004 -43.963,20.252 c -0.006,-0.053 -0.01,-0.098 -0.01,-0.148 v -3.961 l 40.146,-19.514 2.758,-1.334 1.603,-0.777 0.59,-0.291 26.415,-12.83 0.122,5.877 -21.876,10.07 z m 85.597,-47.588 v 3.217 16.443 3.213 6.887 h -0.179 l 0.133,1.135 c 0.036,0.27 0.046,0.555 0.046,0.824 0,7.594 -11.199,15.002 -27.981,18.643 v -36.85 l -1.214,0.236 c -1.138,0.23 -2.319,0.443 -3.51,0.613 l -0.129,0.018 c -5.597,0.873 -11.561,1.318 -17.726,1.318 -6.531,0 -12.917,-0.562 -18.92,-1.559 -1.962,-0.396 -3.998,-0.826 -6.185,-1.314 -11.337,-2.533 -24.92,-8.027 -25.461,-19.811 v -0.863 -1.016 c 0,-8.604 13.979,-16.721 34.001,-19.76 v 33.203 3.662 0.99 c 1.171,0.17 2.355,0.328 3.569,0.455 4.163,0.508 8.523,0.758 12.996,0.758 6.887,0 13.501,-0.619 19.574,-1.723 2.876,-0.518 5.64,-1.154 8.239,-1.887 11.473,-3.199 19.939,-8.299 22.747,-14.156 v 7.324 z"
   id="path4341"
   inkscape:connector-curvature="0"
   style="fill:#28a745" />
	<path
   d="m 321.125,268.064 0.043,11.492 -10.295,0.047 -0.047,-11.502 c -18.194,2.471 -19.319,19.951 -19.319,19.959 l 12.571,-0.053 0.032,8.385 24.06,-4.172 -0.02,-4.068 13.168,-0.059 c -0.072,-17.245 -20.193,-20.029 -20.193,-20.029 z"
   id="path4343"
   inkscape:connector-curvature="0"
   style="fill:#28a745" />
	<polygon
   points="304.012,300.416 308.716,304.342 304.411,308.432 328.477,304.145 324.502,300.205 328.44,295.99 "
   id="polygon4345"
   style="fill:#28a745" />
	<polygon
   points="304.306,312.881 309.019,316.816 304.711,320.906 328.771,316.605 324.806,312.674 328.741,308.465 "
   id="polygon4347"
   style="fill:#28a745" />
	<polygon
   points="328.744,340.936 324.782,337.004 328.715,332.795 304.282,337.211 308.992,341.145 304.685,345.234 "
   id="polygon4349"
   style="fill:#28a745" />
	<polygon
   points="328.909,349.215 328.896,345.014 304.21,349.439 316.586,355.684 "
   id="polygon4351"
   style="fill:#28a745" />
	<polygon
   points="304.236,325.109 308.946,329.041 304.639,333.131 328.698,328.844 324.733,324.898 328.665,320.689 "
   id="polygon4353"
   style="fill:#28a745" />
	<path
   d="m 308.122,174.33 c -3.701,0 -7.251,0.628 -10.582,1.738 l -8.227,-19.197 c -0.053,-0.124 -0.139,-0.221 -0.208,-0.335 l 3.005,-7.375 c 0.699,-1.729 -0.128,-3.699 -1.86,-4.403 -1.722,-0.699 -3.7,0.128 -4.4,1.854 l -3.341,8.213 H 220.75 l 2.263,-7.242 c 0.581,-1.941 2.682,-6.238 5.132,-6.361 5.429,-0.271 12.633,0 12.706,0.001 1.774,0.056 3.43,-1.38 3.503,-3.246 0.073,-1.862 -1.379,-3.432 -3.246,-3.505 -0.31,-0.013 -7.574,-0.284 -13.303,0.003 -7.808,0.393 -10.928,10.064 -11.251,11.127 l -9.203,29.408 c -2.177,-0.447 -4.427,-0.681 -6.729,-0.681 -18.465,0 -33.483,15.023 -33.483,33.487 0,18.464 15.018,33.483 33.483,33.483 18.465,0 33.487,-15.02 33.487,-33.483 0,-13.788 -8.385,-25.653 -20.316,-30.777 l 2.358,-7.531 41.588,44.435 c 0.64,0.681 1.53,1.069 2.467,1.069 h 15.229 c 3.302,15.015 16.694,26.288 32.686,26.288 18.465,0 33.486,-15.02 33.486,-33.483 0,-18.463 -15.02,-33.487 -33.485,-33.487 z m -80.768,33.487 c 0,14.738 -11.994,26.728 -26.731,26.728 -14.737,0 -26.728,-11.99 -26.728,-26.728 0,-14.741 11.99,-26.731 26.728,-26.731 1.603,0 3.167,0.167 4.69,0.437 l -7.917,25.287 c -0.554,1.778 0.436,3.673 2.217,4.232 0.336,0.103 0.673,0.154 1.009,0.154 1.438,0 2.771,-0.924 3.223,-2.37 l 7.913,-25.277 c 9.187,4.231 15.596,13.503 15.596,24.268 z m -8.886,-45.718 0.165,-0.52 h 61.128 l -18.723,46.001 -42.57,-45.481 z m 49.583,46.158 17.509,-43.003 5.825,13.602 c -9.994,5.8 -16.75,16.595 -16.75,28.961 0,0.147 0.021,0.292 0.021,0.44 h -6.605 z m 13.34,-0.44 c 0,-9.582 5.086,-17.979 12.68,-22.697 l 9.918,23.138 H 281.41 c 0,-0.149 -0.019,-0.294 -0.019,-0.441 z m 26.731,26.728 c -12.244,0 -22.569,-8.283 -25.719,-19.532 h 26.705 c 1.135,0 2.193,-0.571 2.82,-1.518 0.626,-0.95 0.731,-2.147 0.283,-3.189 l -12.007,-28.023 c 2.5,-0.778 5.159,-1.197 7.917,-1.197 14.737,0 26.731,11.99 26.731,26.731 0.002,14.738 -11.993,26.728 -26.73,26.728 z"
   id="path4355"
   inkscape:connector-curvature="0"
   style="fill:#28a745" />
	<path
   d="m 208.196,158.499 c 0,-3.752 -3.048,-6.795 -6.801,-6.795 h -7.208 v 13.594 h 7.208 c 3.753,-0.001 6.801,-3.046 6.801,-6.799 z"
   id="path4357"
   inkscape:connector-curvature="0"
   style="fill:#28a745" />
</g>
<g
   id="Layer_3"
   transform="matrix(1.7682433,0,0,1.7682433,-189.8866,-190.11357)">
	<path
   d="m 279.339,140.186 c 0.35,0.143 0.742,0.223 1.147,0.223 h 0.337 l 21.216,3.167 3.404,-3.816 c 0.687,-0.524 1.154,-1.303 1.154,-2.218 0,-1.586 -1.316,-2.87 -2.949,-2.87 h -23.162 c -1.623,0 -2.942,1.283 -2.942,2.87 0,1.186 0.739,2.207 1.795,2.644 z"
   id="path4360"
   inkscape:connector-curvature="0"
   style="fill:#28a745" />
</g>
</svg>