<?xml version="1.0" encoding="UTF-8" standalone="no"?>
<!-- Generator: Adobe Illustrator 16.0.0, SVG Export Plug-In . SVG Version: 6.00 Build 0)  -->

<svg
   xmlns:dc="http://purl.org/dc/elements/1.1/"
   xmlns:cc="http://creativecommons.org/ns#"
   xmlns:rdf="http://www.w3.org/1999/02/22-rdf-syntax-ns#"
   xmlns:svg="http://www.w3.org/2000/svg"
   xmlns="http://www.w3.org/2000/svg"
   xmlns:xlink="http://www.w3.org/1999/xlink"
   xmlns:sodipodi="http://sodipodi.sourceforge.net/DTD/sodipodi-0.dtd"
   xmlns:inkscape="http://www.inkscape.org/namespaces/inkscape"
   version="1.1"
   x="0px"
   y="0px"
   width="500px"
   height="500px"
   viewBox="0 0 500 500"
   enable-background="new 0 0 500 500"
   xml:space="preserve"
   id="svg4146"
   inkscape:version="0.48.4 r9939"
   sodipodi:docname="papier@2x.svg"><metadata
   id="metadata4185"><rdf:RDF><cc:Work
       rdf:about=""><dc:format>image/svg+xml</dc:format><dc:type
         rdf:resource="http://purl.org/dc/dcmitype/StillImage" /></cc:Work></rdf:RDF></metadata><defs
   id="defs4183" /><sodipodi:namedview
   pagecolor="#ffffff"
   bordercolor="#666666"
   borderopacity="1"
   objecttolerance="10"
   gridtolerance="10"
   guidetolerance="10"
   inkscape:pageopacity="0"
   inkscape:pageshadow="2"
   inkscape:window-width="640"
   inkscape:window-height="480"
   id="namedview4181"
   showgrid="false"
   inkscape:zoom="0.472"
   inkscape:cx="250"
   inkscape:cy="250"
   inkscape:window-x="0"
   inkscape:window-y="0"
   inkscape:window-maximized="0"
   inkscape:current-layer="svg4146" />
<g
   id="Layer_1"
   transform="matrix(1.7682433,0,0,1.7682433,-190.00524,-189.52035)">
	<g
   id="bg">
		<path
   d="m 385.533,341.896 c 0,23.922 -19.396,43.317 -43.313,43.317 H 157.638 c -23.922,0 -43.314,-19.396 -43.314,-43.317 V 157.314 C 114.324,133.392 133.716,114 157.638,114 H 342.22 c 23.917,0 43.313,19.392 43.313,43.314 v 184.582 z"
   id="path4150"
   inkscape:connector-curvature="0"
   style="fill:#ffffff" />
		<g
   id="g4152">
			<g
   id="g4154">
				<defs
   id="defs4156">
					<path
   id="SVGID_1_"
   d="m 385.533,341.896 c 0,23.922 -19.396,43.317 -43.313,43.317 H 157.638 c -23.922,0 -43.314,-19.396 -43.314,-43.317 V 157.314 C 114.324,133.392 133.716,114 157.638,114 H 342.22 c 23.917,0 43.313,19.392 43.313,43.314 v 184.582 z"
   inkscape:connector-curvature="0" />
				</defs>
				<clipPath
   id="SVGID_2_">
					<use
   xlink:href="#SVGID_1_"
   overflow="visible"
   id="use4160"
   style="overflow:visible"
   x="0"
   y="0"
   width="500"
   height="500" />
				</clipPath>
				<ellipse
   clip-path="url(#SVGID_2_)"
   cx="250.634"
   cy="376.95099"
   rx="204.146"
   ry="82.195"
   id="ellipse4162"
   sodipodi:cx="250.634"
   sodipodi:cy="376.95099"
   sodipodi:rx="204.146"
   sodipodi:ry="82.195"
   style="fill:#f5f5f5"
   d="m 454.78,376.95099 c 0,45.39504 -91.39928,82.195 -204.146,82.195 -112.74672,0 -204.145993,-36.79996 -204.145993,-82.195 0,-45.39505 91.399273,-82.195 204.145993,-82.195 112.74672,0 204.146,36.79995 204.146,82.195 z" />
			</g>
		</g>
		<path
   d="M 342.22,390.252 H 157.638 c -26.666,0 -48.357,-21.688 -48.357,-48.355 V 157.314 c 0,-26.661 21.691,-48.355 48.357,-48.355 H 342.22 c 26.663,0 48.356,21.694 48.356,48.355 v 184.581 c 0,26.667 -21.693,48.357 -48.356,48.357 z M 157.638,119.043 c -21.103,0 -38.271,17.168 -38.271,38.271 v 184.581 c 0,21.104 17.168,38.275 38.271,38.275 H 342.22 c 21.1,0 38.271,-17.173 38.271,-38.275 V 157.314 c 0,-21.103 -17.172,-38.271 -38.271,-38.271 H 157.638 z"
   id="path4164"
   inkscape:connector-curvature="0"
   style="fill:#28a745" />
	</g>
	<g
   id="Layer_2">
	</g>
</g>
<g
   id="Layer_2_1_"
   transform="matrix(1.7682433,0,0,1.7682433,-190.00524,-189.52035)">
</g>
<g
   id="Layer_3"
   transform="matrix(1.7682433,0,0,1.7682433,-190.00524,-189.52035)">
	<polygon
   points="217.799,191.262 211.999,194.378 227.755,200.551 232.553,197.062 "
   id="polygon4169"
   style="fill:#28a745" />
	<path
   d="m 359.771,276.209 -25.567,-3.879 18.127,-10.164 -19.495,-4.93 c 12.481,-7.411 22.021,-13.514 22.928,-14.096 l 5.952,-3.818 -21.478,-5.699 20.862,-18.443 -83.08,-14.96 c 0.158,-1.089 -0.108,-2.236 -0.86,-3.157 -1.418,-1.737 -3.98,-1.995 -5.721,-0.572 l -2.043,1.671 -50.07,-18.89 -0.776,0.101 c -0.671,0.091 -2.748,0.397 -28.031,14.757 l -3.016,-1.439 c -2.024,-0.956 -4.451,-0.104 -5.417,1.919 -0.403,0.847 -0.47,1.759 -0.284,2.611 l -42.97,12.205 5.799,3.732 c 2.487,1.603 8.083,4.883 14.953,8.837 l -25.263,11.563 6.726,2.704 c 1.065,0.428 5.361,2.075 11.243,4.316 l -17.248,10.7 17.307,6.374 -13.273,8.55 15.469,5.74 -17.856,10.284 67.02,17.649 -0.122,3.182 c -0.08,2.241 1.673,4.126 3.915,4.213 0.046,0 0.099,0 0.149,0 2.172,0 3.978,-1.72 4.057,-3.912 l 0.007,-0.089 68.197,34.869 34.172,-25.234 c 0.04,2.203 1.818,3.985 4.034,3.997 0.007,0 0.013,0 0.021,0 2.235,0 4.054,-1.801 4.06,-4.036 l 0.026,-4.561 41.608,-16.385 -24.879,-4.655 20.817,-11.055 z m -19.557,3.332 -17.878,9.494 0.06,-10.097 2.953,-1.652 14.865,2.255 z m -4.568,-15.167 -13.211,7.4 0.053,-8.502 c 0.899,-0.516 1.8,-1.034 2.682,-1.545 l 10.476,2.647 z m 10.72,-22.68 c -5.482,3.416 -14.179,8.743 -23.838,14.335 l 0.04,-6.786 12.062,-10.662 11.736,3.113 z m -127.436,-55.91 44.897,16.937 -5.469,4.479 -22.016,-8.65 -4.881,3.456 22.486,8.803 -10.058,8.238 -3.168,-0.987 -43.331,-20.652 c 9.517,-5.355 18.646,-10.325 21.54,-11.624 z m 31.26,49.165 -20.911,13.596 -10.733,-2.754 26.89,-17.786 67.298,21.034 c -5.478,1.575 -22.969,6.766 -34.807,11.993 l -8.359,-2.146 23.676,-10.42 -43.054,-13.517 z m -46.246,58.613 -51.013,-13.498 9.207,-5.305 6.495,2.41 35.49,11.445 -0.179,4.948 z m 0.416,-11.408 -33.686,-10.87 -17.756,-6.59 6.745,-4.345 44.892,16.54 -0.195,5.265 z m 0.433,-11.819 -55.618,-20.49 10.436,-6.474 c 18.064,6.872 42.844,16.259 44.498,16.886 0,0 0.39,0.128 1.045,0.344 l -0.361,9.734 z m 0.605,-16.25 c -5.594,-2.122 -40.04,-15.176 -55.165,-20.957 l 16.004,-7.324 c 14.93,8.515 32.76,18.506 39.38,22.212 l -0.219,6.069 z m 3.268,-11.504 c -9.14,-5.115 -40.259,-22.556 -54.613,-31 l 33.953,-9.643 47.722,22.744 -27.062,17.899 z m 105.457,62.679 -34.811,25.574 -67.347,-34.433 0.179,-4.722 66.984,27.355 35.021,-18.596 -0.026,4.822 z m 0.065,-11.896 -35.407,18.802 -66.396,-27.108 0.188,-5.216 65.284,24.051 36.384,-20.383 -0.053,9.854 z m 0.097,-17.023 -36.967,20.714 -64.5,-23.762 0.37,-10.048 c 19.46,6.402 63.49,20.893 64.032,21.07 l 0.945,0.317 0.953,-0.29 c 9.086,-2.777 22.306,-9.371 35.215,-16.494 l -0.048,8.493 z m 0.088,-15.663 c -13.21,7.402 -27.027,14.486 -36.329,17.471 -1.984,-0.771 -5.175,-1.82 -10.292,-3.504 l -54.325,-17.877 0.218,-5.898 64.851,16.741 1.002,-0.453 c 11.296,-5.139 29.413,-10.527 34.908,-12.115 l -0.033,5.635 z m 5.973,-17.78 -67.19,-20.961 19.964,-16.32 74.212,13.416 -26.986,23.865 z m 21.047,51.165 -19.121,7.534 0.033,-5.486 7.818,-4.157 11.27,2.109 z"
   id="path4171"
   inkscape:connector-curvature="0"
   style="fill:#28a745" />
	<polygon
   points="265.928,215.396 304.519,222.859 308.765,218.627 271.084,211.29 "
   id="polygon4173"
   style="fill:#28a745" />
	<polygon
   points="185.837,207.014 183.092,208.054 216.576,227.507 218.526,226.03 "
   id="polygon4175"
   style="fill:#28a745" />
	<polygon
   points="175.754,210.612 210.92,231.004 212.892,229.516 178.505,209.575 "
   id="polygon4177"
   style="fill:#28a745" />
	<polygon
   points="168.751,213.596 205.531,234.949 207.475,233.477 171.568,212.553 "
   id="polygon4179"
   style="fill:#28a745" />
</g>
</svg>