<?xml version="1.0" encoding="UTF-8" standalone="no"?>
<!-- Generator: Adobe Illustrator 16.0.0, SVG Export Plug-In . SVG Version: 6.00 Build 0)  -->

<svg
   xmlns:dc="http://purl.org/dc/elements/1.1/"
   xmlns:cc="http://creativecommons.org/ns#"
   xmlns:rdf="http://www.w3.org/1999/02/22-rdf-syntax-ns#"
   xmlns:svg="http://www.w3.org/2000/svg"
   xmlns="http://www.w3.org/2000/svg"
   xmlns:xlink="http://www.w3.org/1999/xlink"
   xmlns:sodipodi="http://sodipodi.sourceforge.net/DTD/sodipodi-0.dtd"
   xmlns:inkscape="http://www.inkscape.org/namespaces/inkscape"
   version="1.1"
   x="0px"
   y="0px"
   width="500px"
   height="500px"
   viewBox="0 0 500 500"
   enable-background="new 0 0 500 500"
   xml:space="preserve"
   id="svg4068"
   inkscape:version="0.48.4 r9939"
   sodipodi:docname="pe@2x.svg"><metadata
   id="metadata4103"><rdf:RDF><cc:Work
       rdf:about=""><dc:format>image/svg+xml</dc:format><dc:type
         rdf:resource="http://purl.org/dc/dcmitype/StillImage" /></cc:Work></rdf:RDF></metadata><defs
   id="defs4101" /><sodipodi:namedview
   pagecolor="#ffffff"
   bordercolor="#666666"
   borderopacity="1"
   objecttolerance="10"
   gridtolerance="10"
   guidetolerance="10"
   inkscape:pageopacity="0"
   inkscape:pageshadow="2"
   inkscape:window-width="640"
   inkscape:window-height="480"
   id="namedview4099"
   showgrid="false"
   inkscape:zoom="0.472"
   inkscape:cx="250"
   inkscape:cy="250"
   inkscape:window-x="0"
   inkscape:window-y="0"
   inkscape:window-maximized="0"
   inkscape:current-layer="svg4068" />
<g
   id="Layer_1"
   transform="matrix(1.7682433,0,0,1.7682433,-192.12389,-189.52035)">
	<g
   id="bg">
		<path
   d="m 385.533,341.896 c 0,23.922 -19.396,43.317 -43.313,43.317 H 157.638 c -23.922,0 -43.314,-19.396 -43.314,-43.317 V 157.314 C 114.324,133.392 133.716,114 157.638,114 H 342.22 c 23.917,0 43.313,19.392 43.313,43.314 v 184.582 z"
   id="path4072"
   inkscape:connector-curvature="0"
   style="fill:#ffffff" />
		<g
   id="g4074">
			<g
   id="g4076">
				<defs
   id="defs4078">
					<path
   id="SVGID_1_"
   d="m 385.533,341.896 c 0,23.922 -19.396,43.317 -43.313,43.317 H 157.638 c -23.922,0 -43.314,-19.396 -43.314,-43.317 V 157.314 C 114.324,133.392 133.716,114 157.638,114 H 342.22 c 23.917,0 43.313,19.392 43.313,43.314 v 184.582 z"
   inkscape:connector-curvature="0" />
				</defs>
				<clipPath
   id="SVGID_2_">
					<use
   xlink:href="#SVGID_1_"
   overflow="visible"
   id="use4082"
   style="overflow:visible"
   x="0"
   y="0"
   width="500"
   height="500" />
				</clipPath>
				<ellipse
   clip-path="url(#SVGID_2_)"
   cx="250.634"
   cy="376.95099"
   rx="204.146"
   ry="82.195"
   id="ellipse4084"
   sodipodi:cx="250.634"
   sodipodi:cy="376.95099"
   sodipodi:rx="204.146"
   sodipodi:ry="82.195"
   style="fill:#f5f5f5"
   d="m 454.78,376.95099 c 0,45.39504 -91.39928,82.195 -204.146,82.195 -112.74672,0 -204.145993,-36.79996 -204.145993,-82.195 0,-45.39505 91.399273,-82.195 204.145993,-82.195 112.74672,0 204.146,36.79995 204.146,82.195 z" />
			</g>
		</g>
		<path
   d="M 342.22,390.252 H 157.638 c -26.666,0 -48.357,-21.688 -48.357,-48.355 V 157.314 c 0,-26.661 21.691,-48.355 48.357,-48.355 H 342.22 c 26.663,0 48.356,21.694 48.356,48.355 v 184.581 c 0,26.667 -21.693,48.357 -48.356,48.357 z M 157.638,119.043 c -21.103,0 -38.271,17.168 -38.271,38.271 v 184.581 c 0,21.104 17.168,38.275 38.271,38.275 H 342.22 c 21.1,0 38.271,-17.173 38.271,-38.275 V 157.314 c 0,-21.103 -17.172,-38.271 -38.271,-38.271 H 157.638 z"
   id="path4086"
   inkscape:connector-curvature="0"
   style="fill:#28a745" />
	</g>
	<g
   id="Layer_2">
	</g>
</g>
<g
   id="Layer_2_1_"
   transform="matrix(1.7682433,0,0,1.7682433,-192.12389,-189.52035)">
</g>
<g
   id="Layer_3"
   transform="matrix(1.7682433,0,0,1.7682433,-192.12389,-189.52035)">
	<path
   d="m 323.129,173.941 -2.184,-2.414 c 0.048,-0.044 0.088,-0.084 0.128,-0.121 0.439,-0.402 0.838,-0.775 1.196,-1.181 1.475,-1.782 1.211,-4.404 0.98,-5.264 l -0.735,-2.787 H 273.8 l -0.654,2.926 c -0.392,1.741 -0.059,4.174 1.488,5.619 0.293,0.285 0.586,0.571 0.863,0.849 -0.351,0.402 -0.834,0.937 -1.492,1.631 -2.473,2.524 -4.931,5.246 -7.367,8.172 -5.012,6.343 -8.706,13.191 -10.978,20.39 -2.433,7.935 -3.604,16.121 -3.486,24.278 l -0.007,2.531 0.168,94.925 0.281,13.623 0.685,6.738 c 0.432,4.016 1.423,7.944 2.904,11.584 0.388,1.024 0.878,2.093 1.39,3.036 l 2.935,5.992 h 77.144 l 2.651,-9.276 c 1.99,-6.646 2.897,-11.308 3.486,-17.848 0.362,-4.499 0.513,-9.131 0.45,-13.718 l -0.176,-94.603 0.183,-2.89 0.008,-0.205 c 0.12,-17.282 -4.891,-32.702 -14.522,-44.627 -2.118,-2.561 -4.383,-5.074 -6.625,-7.36 z m 13.513,79.525 h -76.771 v 7.491 h 76.781 l 0.026,10.872 H 259.87 v 7.491 h 76.818 l 0.019,10.009 H 259.87 v 7.491 h 76.852 l 0.047,26.864 c 0.059,4.397 -0.084,8.794 -0.42,13.022 -0.538,5.948 -1.376,10.228 -3.212,16.373 l -1.112,3.896 h -66.824 l -0.94,-1.925 c -0.424,-0.782 -0.775,-1.547 -1.079,-2.352 -1.254,-3.08 -2.074,-6.328 -2.433,-9.636 l -0.644,-6.255 -0.278,-13.403 -0.168,-94.837 0.008,-2.575 c -0.11,-7.44 0.954,-14.852 3.149,-22.008 1.986,-6.297 5.253,-12.344 9.639,-17.896 2.246,-2.696 4.565,-5.268 6.979,-7.733 2.594,-2.729 3.646,-4.17 4.023,-5.512 l 0.073,-0.348 c 0.168,-0.955 0.096,-1.917 -0.22,-2.832 h 29.81 c -0.362,0.966 -0.476,2.063 -0.099,3.278 l 0.146,0.395 c 0.409,0.937 0.958,1.8 1.656,2.59 l 2.847,3.146 c 2.198,2.246 4.319,4.602 6.28,6.972 8.486,10.502 12.92,24.241 12.832,39.729 l -0.189,3.021 0.049,24.672 z"
   id="path4091"
   inkscape:connector-curvature="0"
   style="fill:#28a745" />
	<polygon
   points="323.034,135.283 274.123,135.283 274.021,155.354 281.512,155.391 281.512,155.373 319.189,155.373 322.936,155.391 "
   id="polygon4093"
   style="fill:#28a745" />
	<path
   d="m 185.572,308.072 c -1.493,-1.236 -3.294,-2.136 -5.35,-2.678 -2.112,-0.541 -4.377,-0.819 -6.73,-0.819 H 156.25 v 58.663 h 11.852 v -23.663 h 4.022 c 2.996,0 5.683,-0.454 7.989,-1.347 2.259,-0.877 4.185,-2.15 5.712,-3.782 1.513,-1.616 2.678,-3.614 3.462,-5.933 0.787,-2.342 1.187,-4.997 1.187,-7.901 0,-3.044 -0.448,-5.611 -1.332,-7.646 -0.872,-2.011 -2.074,-3.657 -3.57,-4.894 z m -7.658,20.478 c -1.317,1.559 -3.468,2.349 -6.394,2.349 h -3.418 v -18.246 h 3.931 c 2.491,0 4.43,0.658 5.77,1.968 1.361,1.332 2.023,3.468 2.023,6.548 -0.001,3.437 -0.628,5.852 -1.912,7.381 z"
   id="path4095"
   inkscape:connector-curvature="0"
   style="fill:#28a745" />
	<polygon
   points="229.137,363.238 229.137,354.043 210.964,354.043 210.964,337.512 225.364,337.512 225.364,328.323 210.964,328.323 210.964,313.771 228.06,313.771 229.254,304.575 199.112,304.575 199.112,363.238 "
   id="polygon4097"
   style="fill:#28a745" />
</g>
</svg>