<?xml version="1.0" encoding="UTF-8" standalone="no"?>
<!-- Generator: Adobe Illustrator 16.0.0, SVG Export Plug-In . SVG Version: 6.00 Build 0)  -->

<svg
   xmlns:dc="http://purl.org/dc/elements/1.1/"
   xmlns:cc="http://creativecommons.org/ns#"
   xmlns:rdf="http://www.w3.org/1999/02/22-rdf-syntax-ns#"
   xmlns:svg="http://www.w3.org/2000/svg"
   xmlns="http://www.w3.org/2000/svg"
   xmlns:xlink="http://www.w3.org/1999/xlink"
   xmlns:sodipodi="http://sodipodi.sourceforge.net/DTD/sodipodi-0.dtd"
   xmlns:inkscape="http://www.inkscape.org/namespaces/inkscape"
   version="1.1"
   x="0px"
   y="0px"
   width="500px"
   height="500px"
   viewBox="0 0 500 500"
   enable-background="new 0 0 500 500"
   xml:space="preserve"
   id="svg3914"
   inkscape:version="0.48.4 r9939"
   sodipodi:docname="pneus@2x.svg"><metadata
   id="metadata3943"><rdf:RDF><cc:Work
       rdf:about=""><dc:format>image/svg+xml</dc:format><dc:type
         rdf:resource="http://purl.org/dc/dcmitype/StillImage" /></cc:Work></rdf:RDF></metadata><defs
   id="defs3941" /><sodipodi:namedview
   pagecolor="#ffffff"
   bordercolor="#666666"
   borderopacity="1"
   objecttolerance="10"
   gridtolerance="10"
   guidetolerance="10"
   inkscape:pageopacity="0"
   inkscape:pageshadow="2"
   inkscape:window-width="640"
   inkscape:window-height="480"
   id="namedview3939"
   showgrid="false"
   inkscape:zoom="0.472"
   inkscape:cx="250"
   inkscape:cy="250"
   inkscape:window-x="0"
   inkscape:window-y="0"
   inkscape:window-maximized="0"
   inkscape:current-layer="svg3914" />
<g
   id="Layer_1"
   transform="matrix(1.7682433,0,0,1.7682433,-189.76796,-189.52035)">
	<g
   id="bg">
		<path
   d="m 385.533,341.896 c 0,23.922 -19.396,43.317 -43.313,43.317 H 157.638 c -23.922,0 -43.314,-19.396 -43.314,-43.317 V 157.314 C 114.324,133.392 133.716,114 157.638,114 H 342.22 c 23.917,0 43.313,19.392 43.313,43.314 v 184.582 z"
   id="path3918"
   inkscape:connector-curvature="0"
   style="fill:#ffffff" />
		<g
   id="g3920">
			<g
   id="g3922">
				<defs
   id="defs3924">
					<path
   id="SVGID_1_"
   d="m 385.533,341.896 c 0,23.922 -19.396,43.317 -43.313,43.317 H 157.638 c -23.922,0 -43.314,-19.396 -43.314,-43.317 V 157.314 C 114.324,133.392 133.716,114 157.638,114 H 342.22 c 23.917,0 43.313,19.392 43.313,43.314 v 184.582 z"
   inkscape:connector-curvature="0" />
				</defs>
				<clipPath
   id="SVGID_2_">
					<use
   xlink:href="#SVGID_1_"
   overflow="visible"
   id="use3928"
   style="overflow:visible"
   x="0"
   y="0"
   width="500"
   height="500" />
				</clipPath>
				<ellipse
   clip-path="url(#SVGID_2_)"
   cx="250.634"
   cy="376.95099"
   rx="204.146"
   ry="82.195"
   id="ellipse3930"
   sodipodi:cx="250.634"
   sodipodi:cy="376.95099"
   sodipodi:rx="204.146"
   sodipodi:ry="82.195"
   style="fill:#f5f5f5"
   d="m 454.78,376.95099 c 0,45.39504 -91.39928,82.195 -204.146,82.195 -112.74672,0 -204.145993,-36.79996 -204.145993,-82.195 0,-45.39505 91.399273,-82.195 204.145993,-82.195 112.74672,0 204.146,36.79995 204.146,82.195 z" />
			</g>
		</g>
		<path
   d="M 342.22,390.252 H 157.638 c -26.666,0 -48.357,-21.688 -48.357,-48.355 V 157.314 c 0,-26.661 21.691,-48.355 48.357,-48.355 H 342.22 c 26.663,0 48.356,21.694 48.356,48.355 v 184.581 c 0,26.667 -21.693,48.357 -48.356,48.357 z M 157.638,119.043 c -21.103,0 -38.271,17.168 -38.271,38.271 v 184.581 c 0,21.104 17.168,38.275 38.271,38.275 H 342.22 c 21.1,0 38.271,-17.173 38.271,-38.275 V 157.314 c 0,-21.103 -17.172,-38.271 -38.271,-38.271 H 157.638 z"
   id="path3932"
   inkscape:connector-curvature="0"
   style="fill:#28a745" />
	</g>
	<g
   id="Layer_2">
	</g>
</g>
<g
   id="Layer_2_1_"
   transform="matrix(1.7682433,0,0,1.7682433,-189.76796,-189.52035)">
</g>
<g
   id="Layer_3"
   transform="matrix(1.7682433,0,0,1.7682433,-189.76796,-189.52035)">
	<path
   d="m 359.365,235.163 c 0.715,-30.14 -48.504,-42.556 -89.267,-45.807 -9.023,-0.72 -20.383,-1.452 -31.342,-0.915 -40.203,1.986 -91.147,15.61 -95.218,39.746 0,0 -0.815,2.851 -1.582,7.427 -0.064,-0.042 -0.142,0.459 -0.131,0.763 -1.411,8.853 -1.976,30.769 2.801,44.747 7.489,21.934 50.745,38.375 109.61,38.375 58.859,0 98.894,-19.936 102.807,-37.84 2.949,-13.484 2.498,-35.941 2.41,-42.878 0.121,-1.182 0.147,-2.379 -0.088,-3.618 z m -165.718,-29.33 c 12.36,-5.338 32.861,-8.522 54.839,-8.522 13.774,0 26.9,1.259 37.945,3.642 20.051,4.324 40.081,15.175 39.578,27.548 -0.252,6.088 -7.715,13.11 -15.37,17.292 5.014,-3.705 8.142,-8.353 8.236,-14.13 0.189,-11.046 -14.543,-19.549 -28.394,-23.822 -10.863,-3.353 -25.4,-5.199 -40.937,-5.199 -14.97,0 -29.403,1.752 -39.588,4.807 -2.931,0.88 -28.585,9.003 -27.691,23.311 0.506,8.173 7.06,13.665 14.442,17.484 -10.388,-3.89 -22.627,-10.715 -23.28,-21.403 -0.547,-8.818 10.553,-16.828 20.22,-21.008 z m 107.923,43.084 c -0.007,0.596 -0.196,1.154 -0.517,1.694 -25.494,9.041 -65.443,9.682 -94.217,2.501 -1.176,-0.646 -2.12,-1.363 -2.75,-2.162 -0.458,-0.575 -0.768,-1.187 -0.856,-1.85 -0.02,-0.16 0.01,-0.313 0.023,-0.47 0.34,-4.068 11.962,-7.177 19.475,-8.451 14.971,-2.534 41.677,-2.894 58.478,-0.183 9.05,1.467 19.249,4.406 20.262,8.268 0.039,0.125 0.049,0.256 0.059,0.384 0.01,0.091 0.043,0.178 0.043,0.269 z m 53.376,32.235 -0.229,-0.152 -2.909,7.891 -2.773,-2.213 -3.475,7.777 -4.661,-2.182 -3.844,6.52 -5.559,-2.371 -4.739,7.348 -6.297,-3.139 -6.567,7.555 -4.834,-4.168 -5.872,7.459 -6.159,-4.957 -6.343,7.525 -6.813,-5.697 -6.273,6.52 -6.875,-5.277 -6.623,5.316 -7.676,-4.775 -8.439,5.221 -7.585,-5.664 -8.436,4.729 -8.165,-7.041 -9.444,5.199 -7.93,-7.721 -8.684,4.998 -7.303,-8.646 -7.656,4.76 -5.663,-7.92 -5.572,3.801 -4.838,-7.502 -5.552,2.561 -2.048,-7.074 -4.187,1.84 -2.149,-6.184 -3.266,0.699 -1.692,-4.859 -2.133,1.9 -1.825,-8.76 0.063,-0.016 -0.575,-1.164 3.406,-1.682 1.071,5.129 1.535,-1.379 2.384,6.855 3.266,-0.705 1.929,5.541 4.372,-1.912 2.028,7.002 4.638,-2.141 4.546,7.045 5.435,-3.709 5.748,8.033 7.435,-4.625 7.372,8.721 8.447,-4.859 7.967,7.754 9.307,-5.115 8.15,7.021 8.284,-4.645 7.497,5.6 8.268,-5.109 7.421,4.611 6.825,-5.48 6.578,5.057 6.368,-6.617 6.644,5.559 6.3,-7.479 6.071,4.887 5.947,-7.553 4.961,4.279 6.068,-6.982 5.932,2.953 4.644,-7.193 5.444,2.32 3.903,-6.611 4.317,2.025 3.86,-8.629 2.524,2.012 2.796,-7.584 3.851,2.652 -1.939,2.816 z m 2.253,-13.445 -2.482,-1.719 -2.909,7.896 -2.773,-2.217 -3.478,7.789 -4.661,-2.193 -3.841,6.516 -5.556,-2.361 -4.742,7.342 -6.297,-3.143 -6.567,7.555 -4.834,-4.164 -5.875,7.459 -6.156,-4.965 -6.343,7.535 -6.813,-5.699 -6.273,6.512 -6.875,-5.268 -6.623,5.314 -7.676,-4.775 -8.442,5.213 -7.579,-5.656 -8.439,4.734 -8.165,-7.041 -9.444,5.199 -7.93,-7.727 -8.684,4.99 -7.305,-8.635 -7.654,4.752 -5.663,-7.918 -5.572,3.805 -4.838,-7.498 -5.552,2.555 -2.048,-7.068 -4.188,1.83 -2.146,-6.18 -3.268,0.711 -1.692,-4.873 -2.129,1.908 -1.829,-8.766 0.067,-0.014 -0.575,-1.17 3.405,-1.672 1.066,5.115 1.539,-1.381 2.384,6.861 3.266,-0.709 1.929,5.553 4.372,-1.914 2.028,6.998 4.638,-2.129 4.546,7.041 5.435,-3.709 5.748,8.027 7.438,-4.619 7.368,8.715 8.447,-4.859 7.967,7.76 9.307,-5.121 8.15,7.027 8.282,-4.65 7.5,5.598 8.269,-5.107 7.418,4.617 6.825,-5.48 6.578,5.043 6.368,-6.613 6.644,5.562 6.3,-7.482 6.075,4.889 5.943,-7.545 4.961,4.273 6.068,-6.986 5.932,2.961 4.641,-7.193 5.447,2.314 3.903,-6.617 4.32,2.039 3.857,-8.643 2.524,2.016 2.796,-7.59 1.594,1.1 0.82,-5.486 3.38,0.504 -1.629,10.927 z m 0,-15.019 -2.482,-1.715 -2.909,7.896 -2.773,-2.215 -3.478,7.787 -4.658,-2.189 -3.844,6.516 -5.556,-2.367 -4.742,7.346 -6.297,-3.143 -6.567,7.561 -4.834,-4.168 -5.872,7.461 -6.159,-4.959 -6.343,7.525 -6.813,-5.695 -6.273,6.518 -6.875,-5.273 -6.623,5.312 -7.676,-4.768 -8.442,5.213 -7.582,-5.664 -8.436,4.736 -8.165,-7.041 -9.444,5.191 -7.93,-7.721 -8.684,4.998 -7.303,-8.643 -7.652,4.762 -5.667,-7.922 -5.572,3.797 -4.838,-7.502 -5.552,2.561 -2.048,-7.07 -4.188,1.832 -2.147,-6.18 -3.266,0.707 -1.69,-4.867 -2.133,1.912 -1.827,-8.775 0.063,-0.013 -0.575,-1.163 3.406,-1.686 1.07,5.126 1.537,-1.38 2.384,6.861 3.266,-0.699 1.929,5.541 4.372,-1.91 2.028,6.996 4.638,-2.137 4.546,7.043 5.435,-3.705 5.745,8.035 7.438,-4.631 7.372,8.719 8.447,-4.859 7.967,7.76 9.307,-5.127 8.15,7.035 8.284,-4.65 7.499,5.598 8.266,-5.102 7.421,4.611 6.825,-5.48 6.578,5.049 6.368,-6.617 6.644,5.561 6.3,-7.48 6.071,4.887 5.951,-7.555 4.957,4.279 6.068,-6.986 5.932,2.959 4.641,-7.191 5.447,2.318 3.903,-6.617 4.32,2.031 3.857,-8.63 2.524,2.012 2.796,-7.583 1.594,1.097 0.82,-5.495 3.38,0.501 -1.631,10.923 z"
   id="path3937"
   inkscape:connector-curvature="0"
   style="fill:#28a745" />
</g>
</svg>