<?xml version="1.0" encoding="UTF-8" standalone="no"?>
<!-- Generator: Adobe Illustrator 16.0.0, SVG Export Plug-In . SVG Version: 6.00 Build 0)  -->

<svg
   xmlns:dc="http://purl.org/dc/elements/1.1/"
   xmlns:cc="http://creativecommons.org/ns#"
   xmlns:rdf="http://www.w3.org/1999/02/22-rdf-syntax-ns#"
   xmlns:svg="http://www.w3.org/2000/svg"
   xmlns="http://www.w3.org/2000/svg"
   xmlns:xlink="http://www.w3.org/1999/xlink"
   xmlns:sodipodi="http://sodipodi.sourceforge.net/DTD/sodipodi-0.dtd"
   xmlns:inkscape="http://www.inkscape.org/namespaces/inkscape"
   version="1.1"
   x="0px"
   y="0px"
   width="500px"
   height="500px"
   viewBox="0 0 500 500"
   enable-background="new 0 0 500 500"
   xml:space="preserve"
   id="svg3830"
   inkscape:version="0.48.4 r9939"
   sodipodi:docname="sonderabfaelle@2x.svg"><metadata
   id="metadata3881"><rdf:RDF><cc:Work
       rdf:about=""><dc:format>image/svg+xml</dc:format><dc:type
         rdf:resource="http://purl.org/dc/dcmitype/StillImage" /></cc:Work></rdf:RDF></metadata><defs
   id="defs3879" /><sodipodi:namedview
   pagecolor="#ffffff"
   bordercolor="#666666"
   borderopacity="1"
   objecttolerance="10"
   gridtolerance="10"
   guidetolerance="10"
   inkscape:pageopacity="0"
   inkscape:pageshadow="2"
   inkscape:window-width="640"
   inkscape:window-height="480"
   id="namedview3877"
   showgrid="false"
   inkscape:zoom="0.472"
   inkscape:cx="250"
   inkscape:cy="250"
   inkscape:window-x="0"
   inkscape:window-y="0"
   inkscape:window-maximized="0"
   inkscape:current-layer="svg3830" />
<g
   id="Layer_1"
   transform="matrix(1.7682433,0,0,1.7682433,-189.64931,-189.75764)">
	<g
   id="bg">
		<path
   d="m 385.533,341.896 c 0,23.922 -19.396,43.317 -43.313,43.317 H 157.638 c -23.922,0 -43.314,-19.396 -43.314,-43.317 V 157.314 C 114.324,133.392 133.716,114 157.638,114 H 342.22 c 23.917,0 43.313,19.392 43.313,43.314 v 184.582 z"
   id="path3834"
   inkscape:connector-curvature="0"
   style="fill:#ffffff" />
		<g
   id="g3836">
			<g
   id="g3838">
				<defs
   id="defs3840">
					<path
   id="SVGID_1_"
   d="m 385.533,341.896 c 0,23.922 -19.396,43.317 -43.313,43.317 H 157.638 c -23.922,0 -43.314,-19.396 -43.314,-43.317 V 157.314 C 114.324,133.392 133.716,114 157.638,114 H 342.22 c 23.917,0 43.313,19.392 43.313,43.314 v 184.582 z"
   inkscape:connector-curvature="0" />
				</defs>
				<clipPath
   id="SVGID_2_">
					<use
   xlink:href="#SVGID_1_"
   overflow="visible"
   id="use3844"
   style="overflow:visible"
   x="0"
   y="0"
   width="500"
   height="500" />
				</clipPath>
				<ellipse
   clip-path="url(#SVGID_2_)"
   cx="250.634"
   cy="376.95099"
   rx="204.146"
   ry="82.195"
   id="ellipse3846"
   sodipodi:cx="250.634"
   sodipodi:cy="376.95099"
   sodipodi:rx="204.146"
   sodipodi:ry="82.195"
   style="fill:#f5f5f5"
   d="m 454.78,376.95099 c 0,45.39504 -91.39928,82.195 -204.146,82.195 -112.74672,0 -204.145993,-36.79996 -204.145993,-82.195 0,-45.39505 91.399273,-82.195 204.145993,-82.195 112.74672,0 204.146,36.79995 204.146,82.195 z" />
			</g>
		</g>
		<path
   d="M 342.22,390.252 H 157.638 c -26.666,0 -48.357,-21.688 -48.357,-48.355 V 157.314 c 0,-26.661 21.691,-48.355 48.357,-48.355 H 342.22 c 26.663,0 48.356,21.694 48.356,48.355 v 184.581 c 0,26.667 -21.693,48.357 -48.356,48.357 z M 157.638,119.043 c -21.103,0 -38.271,17.168 -38.271,38.271 v 184.581 c 0,21.104 17.168,38.275 38.271,38.275 H 342.22 c 21.1,0 38.271,-17.173 38.271,-38.275 V 157.314 c 0,-21.103 -17.172,-38.271 -38.271,-38.271 H 157.638 z"
   id="path3848"
   inkscape:connector-curvature="0"
   style="fill:#28a745" />
	</g>
	<g
   id="Layer_2">
	</g>
</g>
<g
   id="Layer_2_1_"
   transform="matrix(1.7682433,0,0,1.7682433,-189.64931,-189.75764)">
</g>
<g
   id="Layer_3"
   transform="matrix(1.7682433,0,0,1.7682433,-189.64931,-189.75764)">
	<path
   d="m 211.736,196.957 c 1.43,1.623 3.479,2.552 5.625,2.552 1.81,0 3.561,-0.667 4.899,-1.859 1.528,-1.318 2.444,-3.145 2.582,-5.141 0.138,-1.983 -0.517,-3.907 -1.839,-5.406 l -9.618,-10.982 c -1.253,-1.469 -2.988,-2.382 -4.879,-2.566 -2.075,-0.222 -4.153,0.465 -5.694,1.833 -3.096,2.703 -3.437,7.435 -0.74,10.56 l 9.664,11.009 z m 4.526,-11.45 3.721,4.254 c 0.605,0.69 0.913,1.571 0.848,2.474 -0.062,0.916 -0.484,1.76 -1.217,2.392 -1.381,1.221 -3.646,1.05 -4.863,-0.327 l -3.849,-4.385 5.36,-4.408 z"
   id="path3853"
   inkscape:connector-curvature="0"
   style="fill:#28a745" />
	<path
   d="m 233.239,190.854 c 1.43,1.624 3.488,2.553 5.645,2.553 1.816,0 3.57,-0.664 4.932,-1.865 1.519,-1.322 2.425,-3.145 2.556,-5.138 0.131,-1.99 -0.523,-3.907 -1.842,-5.403 l -9.614,-10.982 c -1.257,-1.469 -2.998,-2.379 -4.909,-2.569 -2.022,-0.196 -4.11,0.464 -5.688,1.833 -3.076,2.683 -3.403,7.412 -0.713,10.563 l 9.633,11.008 z m 4.555,-11.44 3.718,4.244 c 0.608,0.69 0.906,1.567 0.851,2.477 -0.065,0.917 -0.484,1.764 -1.198,2.382 -1.391,1.23 -3.685,1.067 -4.902,-0.32 l -3.835,-4.378 5.366,-4.405 z"
   id="path3855"
   inkscape:connector-curvature="0"
   style="fill:#28a745" />
	<path
   d="m 254.774,184.757 c 1.44,1.62 3.505,2.549 5.655,2.549 1.815,0 3.57,-0.668 4.921,-1.872 3.086,-2.716 3.403,-7.441 0.707,-10.537 l -9.634,-10.982 c -1.257,-1.473 -2.994,-2.382 -4.893,-2.566 -2.045,-0.216 -4.103,0.458 -5.684,1.826 -3.086,2.696 -3.403,7.432 -0.697,10.57 l 9.625,11.012 z m 4.539,-11.444 3.718,4.235 c 1.243,1.427 1.093,3.609 -0.348,4.875 -0.798,0.71 -1.668,0.857 -2.254,0.857 -1.005,0 -1.974,-0.435 -2.642,-1.185 l -3.835,-4.392 5.361,-4.39 z"
   id="path3857"
   inkscape:connector-curvature="0"
   style="fill:#28a745" />
	<path
   d="m 188.198,273.786 c -6.771,-5.766 -5.54,-14.575 -5.481,-14.929 0.026,-0.164 0.036,-0.327 0.036,-0.484 v -13.705 c 4.186,-0.471 7.634,-2.441 7.634,-9.994 0,-5.393 -3.698,-8.881 -9.424,-8.881 -0.321,0 -0.576,0.013 -0.733,0.026 h -23.502 c -0.157,-0.013 -0.412,-0.026 -0.733,-0.026 -5.727,0 -9.425,3.489 -9.425,8.881 0,7.546 3.436,9.516 7.605,9.994 v 13.705 c 0,0.157 0.016,0.327 0.042,0.484 0.056,0.366 1.325,9.163 -5.498,14.936 -7.89,6.773 -15.188,14.176 -15.188,22.412 0,6.493 0.046,51.168 0.046,51.168 0.006,1.701 1.381,3.075 3.083,3.075 h 63.632 c 1.702,0 3.089,-1.374 3.089,-3.075 0,0 0.026,-44.675 0.026,-51.168 10e-4,-8.275 -7.303,-15.658 -15.209,-22.419 z m 9.018,70.497 H 139.74 c -0.01,-10.21 -0.043,-42.619 -0.043,-48.078 0,-5.763 6.591,-12.196 13.024,-17.72 8.829,-7.468 7.874,-18.391 7.622,-20.328 v -16.428 c 0,-1.701 -1.384,-3.083 -3.086,-3.083 -4.438,0 -4.522,0 -4.522,-3.973 0,-0.949 0,-2.716 3.259,-2.716 l 0.288,0.006 c 0.108,0.013 0.212,0.02 0.317,0.02 h 23.754 c 0.092,0 0.203,-0.006 0.295,-0.013 l 0.314,-0.013 c 3.256,0 3.256,1.767 3.256,2.716 0,3.973 -0.082,3.973 -4.552,3.973 -1.702,0 -3.083,1.381 -3.083,3.083 v 16.435 c -0.236,1.917 -1.165,12.841 7.611,20.314 6.07,5.19 13.041,11.898 13.041,17.727 10e-4,5.459 -0.012,37.868 -0.019,48.078 z"
   id="path3859"
   inkscape:connector-curvature="0"
   style="fill:#28a745" />
	<path
   d="m 178.691,314.138 c 0.026,0.099 0.039,0.203 0.046,0.321 0.02,-0.131 0.036,-0.216 0.036,-0.216 l -0.082,-0.105 z"
   id="path3861"
   inkscape:connector-curvature="0"
   style="fill:#28a745" />
	<path
   d="m 186.754,327.712 c -0.89,0 -1.567,0.249 -2.117,0.458 -0.383,0.157 -0.71,0.275 -1.031,0.275 -0.537,0 -0.583,-0.02 -0.759,-0.118 l -0.393,-0.203 c -0.419,-0.183 -3.92,-1.892 -5.962,-2.893 0.026,-0.092 0.053,-0.177 0.065,-0.269 1.404,-0.739 7.111,-3.704 7.134,-3.717 0.605,-0.295 0.982,-0.275 1.23,-0.262 l 0.138,0.013 c 0.232,0 0.628,0.196 1.014,0.38 0.553,0.281 1.178,0.596 1.833,0.596 1.021,0 1.734,-0.812 1.734,-1.971 v -1.185 c 0,-0.635 -0.425,-1.524 -1.233,-2.035 -0.042,-0.766 -0.193,-1.485 -0.654,-1.964 -0.337,-0.354 -0.77,-0.523 -1.309,-0.523 -1.247,0 -2.229,0.746 -2.723,1.46 l -0.2,0.281 c -0.376,0.562 -1.083,1.616 -1.852,2.022 -0.543,0.288 -2.167,1.073 -3.561,1.728 0.903,-0.674 1.669,-1.584 1.669,-3.227 0,-1.027 -0.167,-2.049 -0.298,-2.684 l 0.213,-0.32 c 0.864,-1.289 2.042,-3.037 2.042,-5 0,-1.211 -1.23,-2.311 -2.939,-3.836 l -0.412,-0.353 -1.054,-0.988 c -2.065,-1.925 -3.999,-3.737 -7.795,-3.737 -1.773,0 -3.534,0.458 -5.386,1.427 -0.917,0.478 -1.656,1.217 -2.507,2.088 -0.354,0.366 -0.723,0.727 -1.139,1.112 l -0.53,0.497 c -1.629,1.525 -2.798,2.611 -2.798,3.79 0,1.963 1.168,3.711 2.039,5 l 0.151,0.229 c -0.118,0.902 -0.249,2.087 -0.249,2.919 0,1.151 0.511,1.963 1.191,2.585 -1.086,-0.518 -2.111,-1.008 -2.526,-1.23 -0.772,-0.406 -1.473,-1.46 -1.846,-2.022 l -0.2,-0.281 c -0.497,-0.714 -1.482,-1.46 -2.732,-1.46 -0.537,0 -0.969,0.17 -1.302,0.523 -0.458,0.479 -0.609,1.198 -0.654,1.964 -0.809,0.511 -1.237,1.4 -1.237,2.035 v 1.185 c 0,1.159 0.713,1.971 1.741,1.971 0.641,0 1.27,-0.314 1.826,-0.596 0.393,-0.184 0.779,-0.38 1.008,-0.38 l 0.147,-0.013 c 0.246,-0.014 0.619,-0.033 1.227,0.262 0.026,0.013 4.555,2.375 6.532,3.409 0.04,0.242 0.095,0.511 0.203,0.792 -2.072,1.021 -5.112,2.514 -5.498,2.677 l -0.393,0.203 c -0.177,0.099 -0.216,0.118 -0.759,0.118 -0.318,0 -0.648,-0.118 -1.034,-0.275 -0.543,-0.209 -1.217,-0.458 -2.114,-0.458 -1.23,0 -3.017,0.877 -3.017,2.252 0,1.229 0.769,1.603 2.042,2.218 l 0.55,0.269 c 0.125,0.642 0.242,1.27 0.294,1.564 0.164,1.106 1.25,1.761 2.192,1.761 1.335,0 2.497,-1.349 2.605,-2.212 0.138,-1.113 0.651,-1.872 1.584,-2.33 l 0.874,-0.419 5.043,-2.448 c 0.334,0.256 0.72,0.498 1.112,0.707 1.001,0.511 2.854,1.264 3.731,1.264 0.772,0 1.924,-0.603 3.154,-1.23 l 0.072,-0.033 c 0.497,-0.269 0.956,-0.569 1.368,-0.903 l 6.205,3.063 c 0.929,0.458 1.446,1.217 1.583,2.33 0.105,0.863 1.27,2.212 2.605,2.212 0.942,0 2.022,-0.654 2.193,-1.761 0.055,-0.295 0.17,-0.923 0.294,-1.564 l 0.549,-0.269 c 1.27,-0.615 2.039,-0.988 2.039,-2.218 0.002,-1.375 -1.779,-2.252 -3.013,-2.252 z m -22.252,-9.883 c -1.519,0 -3.233,-1.937 -3.973,-3.154 -0.072,-0.15 -0.134,-0.295 -0.209,-0.426 0.006,0.014 0.006,0.033 0.013,0.046 -0.104,-0.203 -0.173,-0.379 -0.173,-0.484 0,-0.013 0.042,-0.059 0.108,-0.111 0.177,-0.15 0.484,-0.379 0.517,-0.458 0.576,-0.216 1.361,-0.294 1.548,-0.294 0.298,0 3.377,0 3.78,0 0.406,0 1.538,1.047 1.538,1.688 0,0.248 -0.17,0.785 -0.563,1.309 -0.649,0.89 -1.224,1.884 -2.586,1.884 z m 6.65,5.04 c -0.871,0 -0.651,-0.373 -1.306,-0.373 -0.802,0 -0.475,0.393 -1.411,0.393 -0.942,0 -1.047,-0.576 -1.047,-0.818 0,-0.235 0.124,-0.674 0.452,-1.073 0.331,-0.426 0.006,-1.519 0.54,-2.16 0.337,-0.405 0.704,-1.479 1.136,-1.479 1.191,0 1.692,2.081 1.878,2.618 0.206,0.543 0.779,1.597 0.779,2.009 0,0.254 -0.196,0.883 -1.021,0.883 z m 0.661,-6.925 c -0.386,-0.523 -0.553,-1.061 -0.553,-1.309 0,-0.642 0.965,-1.649 1.371,-1.649 0.471,0 2.526,-0.157 3.03,-0.157 0.216,0 1.878,0.465 2.771,0.969 l -0.055,-0.072 c 0.052,0.033 0.104,0.072 0.137,0.111 0.294,0.177 0.491,0.36 0.491,0.523 0,0.125 -0.118,0.341 -0.281,0.583 0.02,-0.177 0.013,-0.334 0.013,-0.484 -0.026,0.131 -0.052,0.334 -0.079,0.582 -0.759,1.061 -2.687,2.788 -4.257,2.788 -1.358,0 -1.937,-0.994 -2.588,-1.885 z"
   id="path3863"
   inkscape:connector-curvature="0"
   style="fill:#28a745" />
	<polygon
   points="327.278,323.347 325.622,319.544 327.35,320.808 328.947,321.37 331.879,321.704 330.256,319.636 329.379,318.117 328.73,316.226 329.153,314.433 329.258,312.541 329.987,314.445 331.034,315.944 334.117,317.652 333.672,315.08 333.64,313.104 335.462,307.875 335.462,304.223 337.285,306.029 339.022,308.653 339.89,312.279 339.87,317.705 341.336,316.187 343.947,314.465 344.831,312.476 344.831,316.239 343.882,319.066 342.77,320.585 341.611,321.743 343.62,321.756 345.4,321.266 347.455,319.95 345.342,323.909 342.566,326.632 340.963,327.83 339.812,328.484 342.259,328.484 344.923,328.02 347.717,326.658 350.354,324.832 352.554,321.324 353.919,316.86 354.354,310.467 353.863,312.737 352.154,313.909 349.049,314.812 350.787,312.233 351.72,310.407 352.583,306.821 352.174,304.281 351.212,300.911 349.756,303.726 348.012,305.473 345.96,306.638 347.147,303.719 347.181,299.864 346.735,296.035 344.877,292.406 344.405,296.88 343.489,300.08 342.19,301.389 340.832,301.887 341.251,299.17 340.931,296.781 339.085,291.568 336.349,286.45 335.426,281.993 334.49,284.788 334.013,286.869 333.996,291.948 333.604,295.754 333.024,298.09 331.813,300.812 330.452,298.07 330.072,295.577 329.287,293.571 328.132,292.341 326.378,291.915 326.819,294.189 326.349,296.5 325.985,299.484 325.956,302.502 326.719,304.785 325.147,303.784 322.972,300.643 321.073,298.719 321.456,302.619 321.485,305.617 321.807,308.229 322.788,310.853 324.021,313.497 320.936,313.052 319.222,311.723 318.132,310.271 316.456,308.549 316.849,311.193 319.542,320.585 321.414,323.936 324.52,326.174 328.934,328 335.904,328.438 332.635,327.843 329.975,326.547 "
   id="polygon3865"
   style="fill:#28a745" />
	<rect
   x="320.93301"
   y="331.59299"
   width="30.783001"
   height="3.161"
   id="rect3867"
   style="fill:#28a745" />
	<path
   d="m 363.68,203.809 h -2.362 c -0.487,-4.788 -2.245,-8.741 -5.288,-11.751 -2.972,-2.942 -6.578,-4.378 -9.529,-5.102 l -0.118,-5.985 -9.915,-8.181 -13.227,0.144 -0.03,3.223 c 0.252,-0.088 0.521,-0.144 0.809,-0.144 1.23,0 2.219,0.88 2.219,1.963 0,1.083 -0.988,1.963 -2.219,1.963 -0.301,0 -0.582,-0.056 -0.845,-0.154 l -0.071,7.402 c -2.742,0.812 -5.891,2.265 -8.521,4.87 -3.043,3.01 -4.801,6.957 -5.285,11.751 h -2.362 c -1.702,0 -3.083,1.381 -3.083,3.083 v 139.971 c 0,1.701 1.381,3.082 3.083,3.082 h 56.746 c 1.702,0 3.083,-1.381 3.083,-3.082 v -139.97 c -0.002,-1.702 -1.383,-3.083 -3.085,-3.083 z m -44.792,-7.34 c 3.566,-3.554 8.881,-4.042 10.317,-4.084 h 0.383 11.552 c 0.685,0.006 6.688,0.196 10.583,4.084 1.846,1.839 2.972,4.31 3.391,7.34 h -39.609 c 0.418,-3.03 1.544,-5.501 3.383,-7.34 z m 41.706,147.304 H 310.02 V 209.975 h 50.574 v 133.798 z"
   id="path3869"
   inkscape:connector-curvature="0"
   style="fill:#28a745" />
	<path
   d="m 274,279.99 h 0.566 l -0.514,-0.15 c -0.013,0.046 -0.035,0.098 -0.052,0.15 z"
   id="path3871"
   inkscape:connector-curvature="0"
   style="fill:#28a745" />
	<path
   d="m 288.987,270.206 h -72.392 c -4.807,0 -8.718,3.835 -8.718,8.548 0,2.644 1.25,4.974 3.178,6.545 -7.226,12.137 -7.723,24.141 -0.822,31.149 2.016,2.049 4.513,3.521 7.343,4.471 l 2.042,29.536 67.647,0.079 3.399,-63.396 c 4.006,-0.772 7.039,-4.234 7.039,-8.384 0.002,-4.713 -3.912,-8.548 -8.716,-8.548 z m -74.931,42.485 c -5.046,-5.124 -4.392,-14.365 1.283,-24.127 l 1.819,26.353 c -1.155,-0.596 -2.212,-1.322 -3.102,-2.226 z m 7.959,-17.009 c 0.085,0 0.164,0.02 0.249,0.02 1.001,0 1.878,-0.334 2.651,-0.785 v 10.642 c 0,0.995 0.929,1.8 2.081,1.8 1.139,0 2.075,-0.805 2.075,-1.8 v -12.281 c 0.988,0.724 2.251,1.175 3.659,1.175 0.523,0 1.024,-0.085 1.505,-0.203 v 1.513 c 0,2.729 2.565,4.954 5.733,4.954 3.161,0 5.727,-2.226 5.727,-4.954 v -0.969 c 0.589,0.851 1.61,1.452 2.84,1.452 1.066,0 1.977,-0.458 2.585,-1.132 v 4.183 c 0,1.321 1.244,2.395 2.769,2.395 1.538,0 2.775,-1.073 2.775,-2.395 v -6.431 c 0,-0.288 -0.079,-0.557 -0.187,-0.818 2.117,-0.824 3.583,-2.631 3.682,-4.745 h 10.648 c -3.063,5.505 -7.579,10.986 -13.136,15.73 -11.179,9.556 -24.55,14.51 -34.207,13.607 l -1.449,-20.958 z m 59.41,48.68 -56.049,-0.065 -1.535,-22.181 c 0.681,0.046 1.368,0.078 2.068,0.078 10.688,0 23.764,-5.274 35.244,-15.085 6.99,-5.976 12.393,-12.841 15.708,-19.809 h 7.624 l -3.06,57.062 z m 9.618,-64.273 c -0.458,0.615 -1.191,1.047 -2.056,1.047 h -10.573 -4.816 -56.275 -0.727 c -0.72,0 -1.355,-0.274 -1.823,-0.72 -0.088,-0.092 -0.141,-0.203 -0.213,-0.301 -0.301,-0.393 -0.517,-0.845 -0.517,-1.361 0,-1.315 1.146,-2.383 2.553,-2.383 h 72.392 c 1.407,0 2.546,1.067 2.546,2.383 -10e-4,0.504 -0.203,0.949 -0.491,1.335 z"
   id="path3873"
   inkscape:connector-curvature="0"
   style="fill:#28a745" />
	<path
   d="m 197.851,205.53 c 2.677,3.24 7.419,5.334 12.088,5.334 1.355,0 2.651,-0.176 3.842,-0.523 l 73.151,-21.169 c 3.079,-0.89 5.301,-2.886 6.093,-5.472 0.786,-2.539 0.111,-5.36 -1.858,-7.749 l -16.971,-20.582 c -2.677,-3.243 -7.422,-5.337 -12.095,-5.337 -1.354,0 -2.645,0.177 -3.845,0.523 l -73.145,21.167 c -3.076,0.89 -5.295,2.89 -6.1,5.481 -0.779,2.54 -0.098,5.363 1.865,7.739 l 16.975,20.588 z m -12.942,-26.509 c 0.173,-0.563 0.89,-1.08 1.917,-1.375 l 73.148,-21.166 c 0.638,-0.183 1.354,-0.281 2.127,-0.281 2.814,0 5.838,1.276 7.337,3.096 l 16.971,20.58 c 0.621,0.756 0.89,1.489 0.727,2.006 -0.171,0.56 -0.891,1.073 -1.915,1.371 l -73.154,21.166 c -2.984,0.87 -7.546,-0.491 -9.457,-2.814 l -16.974,-20.586 c -0.622,-0.754 -0.891,-1.48 -0.727,-1.997 z"
   id="path3875"
   inkscape:connector-curvature="0"
   style="fill:#28a745" />
</g>
</svg>