<?xml version="1.0" encoding="UTF-8" standalone="no"?>
<!-- Generator: Adobe Illustrator 16.0.0, SVG Export Plug-In . SVG Version: 6.00 Build 0)  -->

<svg
   xmlns:dc="http://purl.org/dc/elements/1.1/"
   xmlns:cc="http://creativecommons.org/ns#"
   xmlns:rdf="http://www.w3.org/1999/02/22-rdf-syntax-ns#"
   xmlns:svg="http://www.w3.org/2000/svg"
   xmlns="http://www.w3.org/2000/svg"
   xmlns:xlink="http://www.w3.org/1999/xlink"
   xmlns:sodipodi="http://sodipodi.sourceforge.net/DTD/sodipodi-0.dtd"
   xmlns:inkscape="http://www.inkscape.org/namespaces/inkscape"
   version="1.1"
   x="0px"
   y="0px"
   width="500px"
   height="500px"
   viewBox="0 0 500 500"
   enable-background="new 0 0 500 500"
   xml:space="preserve"
   id="svg3740"
   inkscape:version="0.48.4 r9939"
   sodipodi:docname="sperrgut@2x.svg"><metadata
   id="metadata3775"><rdf:RDF><cc:Work
       rdf:about=""><dc:format>image/svg+xml</dc:format><dc:type
         rdf:resource="http://purl.org/dc/dcmitype/StillImage" /></cc:Work></rdf:RDF></metadata><defs
   id="defs3773" /><sodipodi:namedview
   pagecolor="#ffffff"
   bordercolor="#666666"
   borderopacity="1"
   objecttolerance="10"
   gridtolerance="10"
   guidetolerance="10"
   inkscape:pageopacity="0"
   inkscape:pageshadow="2"
   inkscape:window-width="640"
   inkscape:window-height="480"
   id="namedview3771"
   showgrid="false"
   inkscape:zoom="0.472"
   inkscape:cx="250"
   inkscape:cy="250"
   inkscape:window-x="0"
   inkscape:window-y="0"
   inkscape:window-maximized="0"
   inkscape:current-layer="svg3740" />
<g
   id="Layer_1"
   transform="matrix(1.7682433,0,0,1.7682433,-189.76796,-189.52035)">
	<g
   id="bg">
		<path
   d="m 385.533,341.896 c 0,23.922 -19.396,43.317 -43.313,43.317 H 157.638 c -23.922,0 -43.314,-19.396 -43.314,-43.317 V 157.314 C 114.324,133.392 133.716,114 157.638,114 H 342.22 c 23.917,0 43.313,19.392 43.313,43.314 v 184.582 z"
   id="path3744"
   inkscape:connector-curvature="0"
   style="fill:#ffffff" />
		<g
   id="g3746">
			<g
   id="g3748">
				<defs
   id="defs3750">
					<path
   id="SVGID_1_"
   d="m 385.533,341.896 c 0,23.922 -19.396,43.317 -43.313,43.317 H 157.638 c -23.922,0 -43.314,-19.396 -43.314,-43.317 V 157.314 C 114.324,133.392 133.716,114 157.638,114 H 342.22 c 23.917,0 43.313,19.392 43.313,43.314 v 184.582 z"
   inkscape:connector-curvature="0" />
				</defs>
				<clipPath
   id="SVGID_2_">
					<use
   xlink:href="#SVGID_1_"
   overflow="visible"
   id="use3754"
   style="overflow:visible"
   x="0"
   y="0"
   width="500"
   height="500" />
				</clipPath>
				<ellipse
   clip-path="url(#SVGID_2_)"
   cx="250.634"
   cy="376.95099"
   rx="204.146"
   ry="82.195"
   id="ellipse3756"
   sodipodi:cx="250.634"
   sodipodi:cy="376.95099"
   sodipodi:rx="204.146"
   sodipodi:ry="82.195"
   style="fill:#f5f5f5"
   d="m 454.78,376.95099 c 0,45.39504 -91.39928,82.195 -204.146,82.195 -112.74672,0 -204.145993,-36.79996 -204.145993,-82.195 0,-45.39505 91.399273,-82.195 204.145993,-82.195 112.74672,0 204.146,36.79995 204.146,82.195 z" />
			</g>
		</g>
		<path
   d="M 342.22,390.252 H 157.638 c -26.666,0 -48.357,-21.688 -48.357,-48.355 V 157.314 c 0,-26.661 21.691,-48.355 48.357,-48.355 H 342.22 c 26.663,0 48.356,21.694 48.356,48.355 v 184.581 c 0,26.667 -21.693,48.357 -48.356,48.357 z M 157.638,119.043 c -21.103,0 -38.271,17.168 -38.271,38.271 v 184.581 c 0,21.104 17.168,38.275 38.271,38.275 H 342.22 c 21.1,0 38.271,-17.173 38.271,-38.275 V 157.314 c 0,-21.103 -17.172,-38.271 -38.271,-38.271 H 157.638 z"
   id="path3758"
   inkscape:connector-curvature="0"
   style="fill:#28a745" />
	</g>
	<g
   id="Layer_2">
	</g>
</g>
<g
   id="Layer_2_1_"
   transform="matrix(1.7682433,0,0,1.7682433,-189.76796,-189.52035)">
</g>
<g
   id="Layer_3"
   transform="matrix(1.7682433,0,0,1.7682433,-189.76796,-189.52035)">
	<path
   d="m 382.836,205.7 v 5.231 h -69.378 v 23.986 h 18.875 l -6.522,121.567 h 14.479 l 0.29,-2.841 c 1.099,-10.913 10.746,-106.696 10.746,-109.75 0,-7.116 0.546,-8.976 13.733,-8.976 5.405,0 13.336,-0.026 17.777,-0.044 v 8.282 c 1.108,-0.615 1.664,-1.912 1.664,-2.656 4.784,-11.482 7.729,-25.708 -1.664,-34.799 z m 0,22.855 c -4.429,0.018 -12.365,0.043 -17.777,0.043 -13.586,0 -20.052,2.292 -20.052,15.266 -0.077,2.811 -6.17,64.047 -10.427,106.304 h -2.105 l 6.523,-121.569 h -19.224 v -11.346 h 63.062 v 11.302 z"
   id="path3763"
   inkscape:connector-curvature="0"
   style="fill:#28a745" />
	<path
   d="m 280.726,199.757 c -9.22,-3.432 -9.978,-6.155 -11.354,-11.101 -0.321,-1.157 -0.662,-2.375 -1.108,-3.673 -7.228,-20.937 -32.856,-37.411 -60.943,-39.172 -13.701,-0.887 -25.585,3.374 -33.489,11.919 -6.956,7.522 -10.098,17.831 -8.619,28.281 0.947,6.69 3.143,12.19 6.528,16.347 l 0.396,0.407 c 1.988,1.698 5.693,3.591 11.006,5.63 0.263,5.156 -0.204,13.325 -0.875,17.259 -1.014,5.95 -4.876,18.972 -6.643,24.081 -1.778,5.156 -16.255,60.619 -16.871,62.982 l -1.044,3.997 17.724,-0.193 14.764,-56.248 2.359,1.929 c -1.227,7.892 -2.75,17.513 -4.653,29.31 -2.628,17.921 -6.18,41.714 -8.168,53.295 l 0.885,2.775 c 3.512,3.497 8.384,4.301 12.112,4.301 3.007,0 5.271,-0.521 5.474,-0.572 l 2.317,-2.25 c 0.132,-0.487 13.309,-49.114 17.091,-58.966 0.928,-2.424 2.034,-4.329 3.144,-5.81 l -2.866,15.685 1.143,3.037 5.026,4.004 2.276,0.671 6.319,-0.627 2.73,-2.287 7.646,-27.129 26.149,-3.335 c 0.951,-0.093 2.583,0.09 3.065,0.614 0.213,0.228 0.254,0.825 0.109,1.605 l -3.644,20.659 -23.063,25.997 -0.238,0.303 c -1.575,2.287 -2.336,7.03 2.018,10.752 2.576,2.198 4.895,2.352 6.389,2.082 3.403,-0.598 5.317,-3.721 6.124,-5.128 2.371,-2.469 9.752,-10.534 22.52,-24.612 l -4.679,-4.245 c -13.207,14.558 -20.605,22.642 -22.616,24.712 -0.323,0.327 -0.506,0.649 -0.701,0.995 -1.021,1.807 -1.592,2.031 -1.743,2.058 -0.081,0.019 -0.493,-0.064 -1.193,-0.662 -0.973,-0.835 -1.28,-1.62 -0.966,-2.275 l 24.145,-27.215 -0.729,-0.652 0.751,0.136 3.847,-21.788 c 0.662,-3.65 -0.604,-5.884 -1.786,-7.107 -3.088,-3.207 -8.342,-2.494 -8.355,-2.5 l -28.276,3.605 -0.349,0.302 c -7.98,0.508 -13.294,1.124 -15.191,1.758 l -0.264,-0.229 c -0.336,0.122 -8.287,3.015 -12.642,14.364 -3.495,9.106 -14.195,48.208 -16.753,57.611 -2.2,0.237 -5.969,0.314 -8.689,-1.396 2.043,-12.173 5.381,-34.558 7.878,-51.576 6.517,-40.437 9.773,-62.552 9.684,-65.727 -0.018,-0.573 -0.003,-1.163 0.016,-1.96 0.154,-5.755 0.411,-15.386 -16.626,-21.604 -7.089,-2.587 -9.814,-4.303 -10.776,-5.051 -2.541,-3.229 -4.215,-7.602 -4.979,-13.003 -1.211,-8.562 1.34,-16.984 7.002,-23.106 6.589,-7.123 16.684,-10.65 28.453,-9.904 25.239,1.583 49.04,16.599 55.365,34.928 0.402,1.17 0.707,2.265 0.997,3.304 1.864,6.705 3.82,11.082 15.238,15.331 12.285,4.571 16.884,6.281 14.113,20.261 -1.263,6.373 -4.348,22.735 -7.606,40.057 -2.165,11.494 -4.461,23.667 -6.479,34.284 l 6.205,1.176 c 2.018,-10.617 4.313,-22.797 6.482,-34.29 3.258,-17.309 6.337,-33.654 7.596,-39.998 3.811,-19.255 -5.86,-22.855 -18.11,-27.413 z m -52.543,79.046 c 1.444,-0.222 3.959,-0.53 8.201,-0.861 l -6.493,23.04 -2.898,0.286 -2.544,-2.021 3.734,-20.444 z m -39.686,-52.087 c 0.623,-3.658 1.077,-10.247 1.036,-15.672 8.236,4.219 8.125,8.991 7.997,13.791 -0.016,0.715 -0.03,1.414 -0.011,2.092 0.021,0.707 -0.291,4.831 -3.842,28.031 l -7.091,-5.803 -16.038,61.1 -4.634,0.053 c 5.403,-20.663 14.41,-54.815 15.685,-58.507 1.756,-5.089 5.784,-18.55 6.898,-25.085 z"
   id="path3765"
   inkscape:connector-curvature="0"
   style="fill:#28a745" />
	<path
   d="m 275.417,208.302 c -9.897,-4.173 -12.359,-7.01 -16.46,-18.964 -2.299,-6.705 -5.442,-10.196 -9.34,-10.383 -2.745,-0.147 -6.701,1.339 -10.208,9.08 -2.807,6.19 -10.276,28.428 -8.206,41.501 l 0.248,0.823 c 0.392,0.854 4.148,8.38 15.296,9.541 l 0.389,0.018 c 0.881,-0.018 1.761,0.021 2.614,0.121 1.8,0.208 3.572,0.66 5.274,1.348 8.041,3.219 16.505,7.983 16.589,8.029 l 0.324,0.16 c 0.877,0.374 2.265,0.839 3.695,0.839 0.774,0 1.556,-0.138 2.271,-0.499 1.094,-0.552 1.849,-1.517 2.132,-2.712 l 5.857,-24.85 c 0.489,-1.713 1.691,-8.925 -10.475,-14.052 z m 4.479,12.1 -5.531,23.315 c -1.744,-0.973 -9.409,-5.162 -16.986,-8.196 -2.22,-0.895 -4.543,-1.486 -6.903,-1.761 h -0.005 c -0.963,-0.11 -1.951,-0.167 -2.944,-0.167 -0.103,0 -0.206,0.003 -0.309,0.003 -6.523,-0.741 -9.18,-4.42 -9.849,-5.548 -1.479,-11.126 4.846,-30.904 7.792,-37.408 2.017,-4.448 3.79,-5.375 4.145,-5.375 0.003,0 0.007,0 0.01,0 0.335,0.015 1.943,1.103 3.663,6.12 4.379,12.759 7.706,17.562 19.982,22.737 6.097,2.568 7.167,5.332 6.935,6.28 z"
   id="path3767"
   inkscape:connector-curvature="0"
   style="fill:#28a745" />
	<path
   d="m 216.177,219.025 c 0.053,-14.16 -17.957,-21.507 -23.915,-23.553 -0.402,-5.27 -2.163,-17.042 -9.915,-19.146 l -3.763,-1.021 0.137,3.897 c 0.116,3.305 1.157,19.668 10,21.442 l -0.083,0.294 c 0.212,0.06 21.265,6.386 21.22,18.06 -0.053,13.535 -1.55,30.37 -3.644,40.946 l 0.35,0.071 -1.229,20.482 6.673,-19.402 -3.649,-0.727 4.052,0.803 c 2.198,-11.093 3.71,-28.033 3.766,-42.146 z"
   id="path3769"
   inkscape:connector-curvature="0"
   style="fill:#28a745" />
</g>
</svg>