<?xml version="1.0" encoding="UTF-8" standalone="no"?>
<!-- Generator: Adobe Illustrator 16.0.0, SVG Export Plug-In . SVG Version: 6.00 Build 0)  -->

<svg
   xmlns:dc="http://purl.org/dc/elements/1.1/"
   xmlns:cc="http://creativecommons.org/ns#"
   xmlns:rdf="http://www.w3.org/1999/02/22-rdf-syntax-ns#"
   xmlns:svg="http://www.w3.org/2000/svg"
   xmlns="http://www.w3.org/2000/svg"
   xmlns:xlink="http://www.w3.org/1999/xlink"
   xmlns:sodipodi="http://sodipodi.sourceforge.net/DTD/sodipodi-0.dtd"
   xmlns:inkscape="http://www.inkscape.org/namespaces/inkscape"
   version="1.1"
   x="0px"
   y="0px"
   width="500px"
   height="500px"
   viewBox="0 0 500 500"
   enable-background="new 0 0 500 500"
   xml:space="preserve"
   id="svg3664"
   inkscape:version="0.48.4 r9939"
   sodipodi:docname="stahlblech@2x.svg"><metadata
   id="metadata3701"><rdf:RDF><cc:Work
       rdf:about=""><dc:format>image/svg+xml</dc:format><dc:type
         rdf:resource="http://purl.org/dc/dcmitype/StillImage" /></cc:Work></rdf:RDF></metadata><defs
   id="defs3699" /><sodipodi:namedview
   pagecolor="#ffffff"
   bordercolor="#666666"
   borderopacity="1"
   objecttolerance="10"
   gridtolerance="10"
   guidetolerance="10"
   inkscape:pageopacity="0"
   inkscape:pageshadow="2"
   inkscape:window-width="640"
   inkscape:window-height="480"
   id="namedview3697"
   showgrid="false"
   inkscape:zoom="0.472"
   inkscape:cx="250"
   inkscape:cy="250"
   inkscape:window-x="0"
   inkscape:window-y="0"
   inkscape:window-maximized="0"
   inkscape:current-layer="svg3664" />
<g
   id="Layer_1"
   transform="matrix(1.7682433,0,0,1.7682433,-190.00524,-189.75764)">
	<g
   id="bg">
		<path
   d="m 385.533,341.896 c 0,23.922 -19.396,43.317 -43.313,43.317 H 157.638 c -23.922,0 -43.314,-19.396 -43.314,-43.317 V 157.314 C 114.324,133.392 133.716,114 157.638,114 H 342.22 c 23.917,0 43.313,19.392 43.313,43.314 v 184.582 z"
   id="path3668"
   inkscape:connector-curvature="0"
   style="fill:#ffffff" />
		<g
   id="g3670">
			<g
   id="g3672">
				<defs
   id="defs3674">
					<path
   id="SVGID_1_"
   d="m 385.533,341.896 c 0,23.922 -19.396,43.317 -43.313,43.317 H 157.638 c -23.922,0 -43.314,-19.396 -43.314,-43.317 V 157.314 C 114.324,133.392 133.716,114 157.638,114 H 342.22 c 23.917,0 43.313,19.392 43.313,43.314 v 184.582 z"
   inkscape:connector-curvature="0" />
				</defs>
				<clipPath
   id="SVGID_2_">
					<use
   xlink:href="#SVGID_1_"
   overflow="visible"
   id="use3678"
   style="overflow:visible"
   x="0"
   y="0"
   width="500"
   height="500" />
				</clipPath>
				<ellipse
   clip-path="url(#SVGID_2_)"
   cx="250.634"
   cy="376.95099"
   rx="204.146"
   ry="82.195"
   id="ellipse3680"
   sodipodi:cx="250.634"
   sodipodi:cy="376.95099"
   sodipodi:rx="204.146"
   sodipodi:ry="82.195"
   style="fill:#f5f5f5"
   d="m 454.78,376.95099 c 0,45.39504 -91.39928,82.195 -204.146,82.195 -112.74672,0 -204.145993,-36.79996 -204.145993,-82.195 0,-45.39505 91.399273,-82.195 204.145993,-82.195 112.74672,0 204.146,36.79995 204.146,82.195 z" />
			</g>
		</g>
		<path
   d="M 342.22,390.252 H 157.638 c -26.666,0 -48.357,-21.688 -48.357,-48.355 V 157.314 c 0,-26.661 21.691,-48.355 48.357,-48.355 H 342.22 c 26.663,0 48.356,21.694 48.356,48.355 v 184.581 c 0,26.667 -21.693,48.357 -48.356,48.357 z M 157.638,119.043 c -21.103,0 -38.271,17.168 -38.271,38.271 v 184.581 c 0,21.104 17.168,38.275 38.271,38.275 H 342.22 c 21.1,0 38.271,-17.173 38.271,-38.275 V 157.314 c 0,-21.103 -17.172,-38.271 -38.271,-38.271 H 157.638 z"
   id="path3682"
   inkscape:connector-curvature="0"
   style="fill:#28a745" />
	</g>
	<g
   id="Layer_2">
	</g>
</g>
<g
   id="Layer_2_1_"
   transform="matrix(1.7682433,0,0,1.7682433,-190.00524,-189.75764)">
</g>
<g
   id="Layer_3"
   transform="matrix(1.7682433,0,0,1.7682433,-190.00524,-189.75764)">
	<rect
   x="157.901"
   y="265"
   width="22.367001"
   height="6.4229999"
   id="rect3687"
   style="fill:#28a745" />
	<rect
   x="157.901"
   y="275.866"
   width="22.367001"
   height="6.4239998"
   id="rect3689"
   style="fill:#28a745" />
	<path
   d="m 310.069,139.271 c -2.729,-0.729 -5.552,-1.099 -8.39,-1.099 -18.304,0 -35.724,15.491 -41.423,36.832 -3.229,12.093 -2.446,24.513 2.208,34.974 2.909,6.547 7.128,11.836 12.282,15.596 -0.074,0 -0.149,-0.003 -0.228,-0.003 -11.622,0 -23.677,1.383 -32.727,4.268 v -0.389 c 0,-23.004 -18.711,-41.717 -41.703,-41.717 -23.006,0 -41.721,18.713 -41.721,41.717 v 27.747 h 21.667 V 229.45 c 0,-11.051 8.996,-20.042 20.053,-20.042 11.043,0 20.032,8.991 20.032,20.042 v 27.747 h 7.027 V 265 h -7.583 v 6.423 h 7.583 v 4.443 h -7.583 v 6.424 h 7.583 v 64.259 c 0,0.697 0.213,1.378 0.604,1.956 0.577,0.857 6.146,8.424 22.743,10.921 6.056,0.912 19.569,2.226 28.157,2.226 l 0,0 c 1.347,0 2.562,-0.034 3.596,-0.103 32.509,-2.218 38.653,-12.251 39.245,-13.391 0.259,-0.493 0.396,-1.048 0.396,-1.609 V 242.59 c 0,-0.019 -0.011,-0.032 -0.011,-0.051 0,-0.017 0.011,-0.032 0.011,-0.049 0,-5.903 -6.349,-10.168 -15.565,-12.942 13.367,-5.076 24.737,-18.019 29.133,-34.474 6.733,-25.234 -4.652,-50.266 -25.386,-55.803 z m 4.853,124.602 c -0.103,0.045 -0.215,0.045 -0.313,0.099 -0.16,0.082 -16.018,8.57 -39.064,7.635 -1.912,-0.088 -3.546,1.423 -3.624,3.342 -0.078,1.925 1.419,3.545 3.338,3.623 1.307,0.051 2.586,0.078 3.845,0.078 17.263,0 30.232,-4.682 35.819,-7.124 v 6.505 c -0.103,0.041 -0.215,0.041 -0.313,0.096 -0.16,0.088 -16.018,8.607 -39.064,7.642 -1.912,-0.089 -3.546,1.418 -3.624,3.337 -0.078,1.923 1.419,3.542 3.338,3.624 1.307,0.051 2.586,0.074 3.845,0.074 17.263,0 30.232,-4.682 35.819,-7.117 v 30.556 c -0.103,0.044 -0.218,0.044 -0.32,0.099 -0.156,0.089 -16.011,8.594 -39.058,7.642 -1.912,-0.062 -3.546,1.419 -3.624,3.338 -0.078,1.922 1.419,3.541 3.338,3.623 1.307,0.051 2.586,0.075 3.845,0.075 17.26,0 30.229,-4.682 35.819,-7.125 v 5.022 c -0.103,0.04 -0.218,0.04 -0.32,0.095 -0.034,0.021 -0.81,0.429 -2.178,1.034 l -33.768,6.662 c -1.03,-0.007 -2.058,-0.011 -3.112,-0.055 -1.912,-0.089 -3.546,1.422 -3.624,3.341 -0.078,1.926 1.419,3.546 3.338,3.62 1.307,0.055 2.586,0.078 3.845,0.078 17.26,0 30.229,-4.685 35.819,-7.12 v 8.771 c -1.793,1.817 -9.319,7.628 -33.146,9.254 -0.898,0.062 -1.953,0.089 -3.12,0.089 h -0.003 c -7.944,0 -21.148,-1.249 -27.123,-2.146 -10.799,-1.623 -15.807,-5.686 -17.413,-7.285 v -62.965 -6.424 -4.443 -6.423 -7.806 -2.479 -2.48 -0.351 c 0.209,0.119 0.436,0.231 0.65,0.351 1.378,0.741 2.877,1.436 4.544,2.062 0.794,0.3 1.626,0.582 2.482,0.854 9.05,2.889 21.104,4.27 32.727,4.27 15.368,0 31.495,-2.416 40.402,-7.539 v 11.991 z m -3.573,-24.767 c 2.352,1.288 3.573,2.511 3.573,3.384 0,0.031 -0.027,0.068 -0.027,0.1 -0.089,0.916 -1.382,2.171 -3.893,3.484 -5.818,3.043 -18.06,6.378 -36.482,6.378 -15.109,0 -26.064,-2.246 -32.727,-4.731 -0.917,-0.342 -1.732,-0.688 -2.482,-1.036 -0.447,-0.204 -0.888,-0.408 -1.274,-0.611 -0.444,-0.231 -0.844,-0.462 -1.211,-0.687 -1.718,-1.06 -2.611,-2.042 -2.681,-2.797 -0.005,-0.032 -0.027,-0.069 -0.027,-0.1 0,-0.762 0.914,-1.792 2.708,-2.894 0.26,-0.164 0.563,-0.327 0.862,-0.49 0.49,-0.265 1.029,-0.538 1.623,-0.808 0.75,-0.346 1.565,-0.694 2.482,-1.035 6.662,-2.485 17.617,-4.728 32.727,-4.728 18.824,0.002 31.174,3.481 36.829,6.571 z m 17.376,-45.828 c -4.896,18.342 -19.485,31.655 -34.687,31.655 -2.231,0 -4.457,-0.292 -6.607,-0.866 -8.104,-2.162 -14.708,-8.17 -18.6,-16.925 -4.005,-9.006 -4.658,-19.784 -1.841,-30.343 4.899,-18.345 19.488,-31.66 34.689,-31.66 2.232,0 4.45,0.291 6.594,0.866 17.018,4.546 26.191,25.75 20.452,47.273 z"
   id="path3691"
   inkscape:connector-curvature="0"
   style="fill:#28a745" />
	<path
   d="m 290.69,210.868 c -0.901,-0.238 -1.783,-0.558 -2.62,-0.944 -3.316,-1.524 -6.702,-5.245 -9.05,-9.948 -3.008,-6.039 -3.613,-13.699 -1.66,-21.023 1.64,-6.136 4.954,-11.612 9.343,-15.419 3.729,-3.248 7.961,-5.108 12.248,-5.393 1.919,-0.125 3.375,-1.783 3.249,-3.704 -0.126,-1.922 -1.807,-3.397 -3.705,-3.247 -5.821,0.381 -11.479,2.831 -16.365,7.085 -5.423,4.709 -9.506,11.415 -11.499,18.877 -2.389,8.945 -1.606,18.395 2.157,25.934 3.079,6.17 7.587,10.969 12.363,13.165 1.198,0.553 2.457,1.005 3.743,1.351 0.299,0.078 0.605,0.117 0.897,0.117 1.545,0 2.953,-1.027 3.368,-2.585 0.495,-1.859 -0.611,-3.768 -2.469,-4.266 z"
   id="path3693"
   inkscape:connector-curvature="0"
   style="fill:#28a745" />
	<path
   d="m 300.748,160.227 c -4.049,0.272 -7.976,1.968 -11.34,4.899 -3.712,3.22 -6.495,7.793 -7.843,12.866 -1.653,6.175 -1.123,12.46 1.49,17.695 1.245,2.496 4.021,7.001 8.621,9.115 0.851,0.386 1.722,0.702 2.603,0.936 0.3,0.082 0.603,0.121 0.902,0.121 1.537,0 2.946,-1.026 3.368,-2.581 0.493,-1.859 -0.605,-3.77 -2.47,-4.268 -0.521,-0.141 -1.028,-0.327 -1.504,-0.544 -1.905,-0.876 -3.879,-3.078 -5.287,-5.893 -1.824,-3.656 -2.185,-8.315 -0.994,-12.788 1.001,-3.744 3.015,-7.082 5.686,-9.4 2.215,-1.928 4.712,-3.035 7.236,-3.207 1.919,-0.131 3.368,-1.792 3.239,-3.71 -0.128,-1.921 -1.819,-3.378 -3.707,-3.241 z"
   id="path3695"
   inkscape:connector-curvature="0"
   style="fill:#28a745" />
</g>
</svg>