<?xml version="1.0" encoding="UTF-8" standalone="no"?>
<!-- Generator: Adobe Illustrator 16.0.0, SVG Export Plug-In . SVG Version: 6.00 Build 0)  -->

<svg
   xmlns:dc="http://purl.org/dc/elements/1.1/"
   xmlns:cc="http://creativecommons.org/ns#"
   xmlns:rdf="http://www.w3.org/1999/02/22-rdf-syntax-ns#"
   xmlns:svg="http://www.w3.org/2000/svg"
   xmlns="http://www.w3.org/2000/svg"
   xmlns:xlink="http://www.w3.org/1999/xlink"
   xmlns:sodipodi="http://sodipodi.sourceforge.net/DTD/sodipodi-0.dtd"
   xmlns:inkscape="http://www.inkscape.org/namespaces/inkscape"
   version="1.1"
   x="0px"
   y="0px"
   width="500px"
   height="500px"
   viewBox="0 0 500 500"
   enable-background="new 0 0 500 500"
   xml:space="preserve"
   id="svg3584"
   inkscape:version="0.48.4 r9939"
   sodipodi:docname="textilien@2x.svg"><metadata
   id="metadata3623"><rdf:RDF><cc:Work
       rdf:about=""><dc:format>image/svg+xml</dc:format><dc:type
         rdf:resource="http://purl.org/dc/dcmitype/StillImage" /></cc:Work></rdf:RDF></metadata><defs
   id="defs3621" /><sodipodi:namedview
   pagecolor="#ffffff"
   bordercolor="#666666"
   borderopacity="1"
   objecttolerance="10"
   gridtolerance="10"
   guidetolerance="10"
   inkscape:pageopacity="0"
   inkscape:pageshadow="2"
   inkscape:window-width="640"
   inkscape:window-height="480"
   id="namedview3619"
   showgrid="false"
   inkscape:zoom="0.472"
   inkscape:cx="250"
   inkscape:cy="250"
   inkscape:window-x="0"
   inkscape:window-y="0"
   inkscape:window-maximized="0"
   inkscape:current-layer="svg3584" />
<g
   id="Layer_1"
   transform="matrix(1.7682433,0,0,1.7682433,-191.41202,-189.40171)">
	<g
   id="bg">
		<path
   d="m 385.533,341.896 c 0,23.922 -19.396,43.317 -43.313,43.317 H 157.638 c -23.922,0 -43.314,-19.396 -43.314,-43.317 V 157.314 C 114.324,133.392 133.716,114 157.638,114 H 342.22 c 23.917,0 43.313,19.392 43.313,43.314 v 184.582 z"
   id="path3588"
   inkscape:connector-curvature="0"
   style="fill:#ffffff" />
		<g
   id="g3590">
			<g
   id="g3592">
				<defs
   id="defs3594">
					<path
   id="SVGID_1_"
   d="m 385.533,341.896 c 0,23.922 -19.396,43.317 -43.313,43.317 H 157.638 c -23.922,0 -43.314,-19.396 -43.314,-43.317 V 157.314 C 114.324,133.392 133.716,114 157.638,114 H 342.22 c 23.917,0 43.313,19.392 43.313,43.314 v 184.582 z"
   inkscape:connector-curvature="0" />
				</defs>
				<clipPath
   id="SVGID_2_">
					<use
   xlink:href="#SVGID_1_"
   overflow="visible"
   id="use3598"
   style="overflow:visible"
   x="0"
   y="0"
   width="500"
   height="500" />
				</clipPath>
				<ellipse
   clip-path="url(#SVGID_2_)"
   cx="250.634"
   cy="376.95099"
   rx="204.146"
   ry="82.195"
   id="ellipse3600"
   sodipodi:cx="250.634"
   sodipodi:cy="376.95099"
   sodipodi:rx="204.146"
   sodipodi:ry="82.195"
   style="fill:#f5f5f5"
   d="m 454.78,376.95099 c 0,45.39504 -91.39928,82.195 -204.146,82.195 -112.74672,0 -204.145993,-36.79996 -204.145993,-82.195 0,-45.39505 91.399273,-82.195 204.145993,-82.195 112.74672,0 204.146,36.79995 204.146,82.195 z" />
			</g>
		</g>
		<path
   d="M 342.22,390.252 H 157.638 c -26.666,0 -48.357,-21.688 -48.357,-48.355 V 157.314 c 0,-26.661 21.691,-48.355 48.357,-48.355 H 342.22 c 26.663,0 48.356,21.694 48.356,48.355 v 184.581 c 0,26.667 -21.693,48.357 -48.356,48.357 z M 157.638,119.043 c -21.103,0 -38.271,17.168 -38.271,38.271 v 184.581 c 0,21.104 17.168,38.275 38.271,38.275 H 342.22 c 21.1,0 38.271,-17.173 38.271,-38.275 V 157.314 c 0,-21.103 -17.172,-38.271 -38.271,-38.271 H 157.638 z"
   id="path3602"
   inkscape:connector-curvature="0"
   style="fill:#28a745" />
	</g>
	<g
   id="Layer_2">
	</g>
</g>
<g
   id="Layer_2_1_"
   transform="matrix(1.7682433,0,0,1.7682433,-191.41202,-189.40171)">
</g>
<g
   id="Layer_3"
   transform="matrix(1.7682433,0,0,1.7682433,-191.41202,-189.40171)">
	<path
   d="m 293.218,208.01 c 1.875,0 3.393,-1.514 3.393,-3.384 0,-1.873 -1.518,-3.389 -3.393,-3.389 -1.868,0 -3.386,1.516 -3.386,3.389 0,1.87 1.518,3.384 3.386,3.384 z"
   id="path3607"
   inkscape:connector-curvature="0"
   style="fill:#28a745" />
	<path
   d="m 293.218,227.95 c -1.868,0 -3.386,1.518 -3.386,3.39 0,1.87 1.518,3.384 3.386,3.384 1.875,0 3.393,-1.514 3.393,-3.384 -10e-4,-1.872 -1.518,-3.39 -3.393,-3.39 z"
   id="path3609"
   inkscape:connector-curvature="0"
   style="fill:#28a745" />
	<path
   d="m 293.218,255.791 c -1.868,0 -3.386,1.521 -3.386,3.389 0,1.871 1.518,3.39 3.386,3.39 1.875,0 3.393,-1.519 3.393,-3.39 -10e-4,-1.868 -1.518,-3.389 -3.393,-3.389 z"
   id="path3611"
   inkscape:connector-curvature="0"
   style="fill:#28a745" />
	<path
   d="m 293.218,282.634 c -1.868,0 -3.386,1.518 -3.386,3.386 0,1.867 1.518,3.385 3.386,3.385 1.875,0 3.393,-1.518 3.393,-3.385 -10e-4,-1.869 -1.518,-3.386 -3.393,-3.386 z"
   id="path3613"
   inkscape:connector-curvature="0"
   style="fill:#28a745" />
	<path
   d="m 353.976,169.449 -21.764,-6.172 0.558,-7.982 c 0.04,-0.617 -0.093,-1.234 -0.385,-1.781 l -7.733,-14.45 c -0.569,-1.069 -1.688,-1.738 -2.902,-1.738 h -58.875 c -1.271,0 -2.432,0.735 -2.978,1.886 l -6.173,13.074 c -0.227,0.488 -0.335,1.022 -0.31,1.56 l 0.425,9.358 -22.023,6.246 c -1.418,0.4 -2.396,1.694 -2.396,3.166 v 126.111 c 0,1.818 1.473,3.293 3.293,3.293 h 44.103 3.138 25.878 0.303 46.941 c 1.822,0 3.292,-1.475 3.292,-3.293 V 172.615 c 0,-1.471 -0.976,-2.766 -2.392,-3.166 z M 276.661,295.434 H 236.006 V 175.105 l 18.476,-5.243 8.07,43.334 c 0.225,1.223 1.125,2.213 2.318,2.56 1.192,0.344 2.484,-0.008 3.327,-0.922 l 8.463,-9.115 v 89.715 z m 17.158,-117.605 c -4.676,-7.992 -10.882,-18.714 -12.109,-21.234 -0.032,-0.061 -0.059,-0.121 -0.084,-0.174 1.097,-0.373 3.91,-0.903 11.081,-0.903 h 0.456 c 8.109,0.022 11.376,0.569 12.682,0.964 -0.148,0.317 -0.314,0.664 -0.457,0.942 -0.225,0.456 -0.456,0.928 -0.675,1.417 -1.359,3.033 -6.945,12.46 -10.894,18.988 z m -10.573,20.859 9.869,-9.932 9.424,9.837 v 96.84 h -19.293 v -96.745 z m 24.772,-3.781 0.065,-0.06 -10.374,-10.736 c 3.02,-4.955 11.122,-18.362 13.011,-22.576 0.186,-0.412 0.379,-0.81 0.571,-1.196 0.972,-1.963 2.3,-4.651 0.67,-7.285 -1.892,-3.048 -6.628,-4.09 -18.778,-4.124 h -0.476 c -10.868,0 -15.177,1.024 -17.074,4.06 -1.686,2.703 -0.297,5.553 0.16,6.487 1.582,3.259 9.987,17.656 13.551,23.733 l -11.268,11.337 -10.247,11.008 -7.495,-40.255 0.192,-0.007 -0.494,-10.936 4.932,-10.449 h 54.816 l 6.354,11.873 -0.631,8.989 0.122,0.008 c -0.031,0.115 -0.115,0.21 -0.134,0.328 l -7.527,40.448 -9.72,-10.468 c -0.065,-0.067 -0.154,-0.113 -0.226,-0.179 z m 41.765,100.527 H 309.125 V 205.72 l 8.463,9.115 c 0.848,0.914 2.141,1.266 3.33,0.922 1.196,-0.346 2.091,-1.336 2.319,-2.56 l 8.066,-43.334 18.479,5.243 v 120.328 z"
   id="path3615"
   inkscape:connector-curvature="0"
   style="fill:#28a745" />
	<path
   d="m 271.482,346.723 c -7.766,-4.379 -17.426,-9.826 -31.657,-22.09 -12.752,-10.986 -25.633,-22.562 -54.18,-53.109 -11.948,-12.787 -20.926,-19.006 -27.44,-19.006 -3.061,0 -4.81,1.332 -5.665,1.978 -4.547,3.383 -22.332,20.807 -19.64,38.139 0.302,1.974 0.759,2.957 1.736,3.933 -0.508,1.9 -0.033,5.466 5.157,12.285 l 0.473,0.502 c 14.971,12.887 12.81,29.37 12.71,30.058 l -0.337,2.271 2.016,1.105 c 0.167,0.084 2.862,1.53 6.553,1.53 1.736,0 3.685,-0.315 5.698,-1.24 l 2.122,-0.984 -0.225,-2.327 c -0.386,-3.95 -0.251,-12.381 2.186,-16.219 1.766,1.556 3.334,3.067 4.621,4.488 6.087,6.745 10.556,14.309 13.514,19.306 2.528,4.263 3.376,5.697 4.727,6.27 l 0.264,0.161 c 8.952,5.679 27.504,8.559 55.138,8.559 l 0,0 c 5.665,0 11.774,-0.128 18.141,-0.372 l 0.56,-0.025 0.518,-0.199 c 1.753,-0.688 7.512,-3.307 7.843,-7.981 0.131,-1.889 -0.605,-4.641 -4.833,-7.033 z m -90.646,-70.701 c 27.113,29.01 40.237,41.073 52.456,51.665 1.569,1.923 1.917,3.184 1.678,3.704 -0.328,0.721 -1.485,1.389 -3.054,1.948 -5.479,-5.305 -17.666,-12.565 -28.875,-17.048 -9.785,-3.91 -14.157,-9.845 -15.273,-11.588 -5.804,-9.544 -16.334,-23.183 -23.562,-32.547 -3.087,-3.986 -5.521,-7.142 -6.791,-8.932 -0.778,-1.094 -1.123,-2.043 -0.946,-2.604 0.2,-0.66 1.11,-1.239 1.698,-1.512 0.013,0 0.026,-0.007 0.039,-0.007 2.048,0.002 8.36,1.648 22.63,16.921 z m 42.553,58.824 c -0.071,0.007 -0.148,0.012 -0.219,0.012 -13.659,1.035 -20.926,-5.658 -26.44,-14.212 1.212,0.611 2.479,1.209 3.862,1.763 8.996,3.594 17.479,8.559 22.797,12.437 z m -61.309,2.842 c -0.89,0.108 -1.7,0.044 -2.376,-0.078 0.167,-6.083 -1.022,-20.913 -14.868,-33.009 -0.161,-0.213 -0.315,-0.431 -0.463,-0.644 0.373,0.258 0.752,0.508 1.167,0.791 5.592,3.791 13.585,9.219 20.382,14.592 -3.742,5.209 -4.006,13.859 -3.842,18.348 z m 104.46,17.71 c -6.068,0.23 -11.881,0.347 -17.283,0.347 h -0.003 c -25.621,0 -43.949,-2.676 -51.614,-7.537 -0.138,-0.09 -0.267,-0.167 -0.386,-0.237 -0.489,-0.65 -1.527,-2.412 -2.457,-3.98 -2.907,-4.913 -7.769,-13.126 -14.299,-20.361 -7.257,-8.051 -21.707,-17.845 -31.263,-24.326 -3.325,-2.258 -6.463,-4.387 -7.177,-5.049 -1.016,-0.942 -1.743,-1.518 -2.283,-1.941 -0.109,-0.084 -0.206,-0.161 -0.295,-0.232 -0.026,-0.128 -0.045,-0.276 -0.071,-0.453 -1.512,-9.721 5.813,-20.181 11.518,-26.479 0.302,0.604 0.656,1.23 1.119,1.883 1.344,1.904 3.82,5.107 6.948,9.151 6.955,9.011 17.032,22.056 22.697,31.2 0.103,0.184 0.29,0.505 0.56,0.926 0.566,0.936 1.1,1.842 1.55,2.676 0.54,1.002 1.093,2.034 1.646,3.09 6.18,11.69 14.534,27.485 34.868,27.485 1.033,0 2.097,-0.04 3.193,-0.122 2.39,-0.065 14.409,-0.714 17.438,-7.294 11.91,9.634 20.675,14.579 27.298,18.316 0.728,0.41 1.129,0.732 1.339,0.944 -0.516,0.577 -1.802,1.427 -3.043,1.993 z"
   id="path3617"
   inkscape:connector-curvature="0"
   style="fill:#28a745" />
</g>
</svg>