<?xml version="1.0" encoding="UTF-8" standalone="no"?>
<!-- Generator: Adobe Illustrator 16.0.0, SVG Export Plug-In . SVG Version: 6.00 Build 0)  -->

<svg
   xmlns:dc="http://purl.org/dc/elements/1.1/"
   xmlns:cc="http://creativecommons.org/ns#"
   xmlns:rdf="http://www.w3.org/1999/02/22-rdf-syntax-ns#"
   xmlns:svg="http://www.w3.org/2000/svg"
   xmlns="http://www.w3.org/2000/svg"
   xmlns:xlink="http://www.w3.org/1999/xlink"
   xmlns:sodipodi="http://sodipodi.sourceforge.net/DTD/sodipodi-0.dtd"
   xmlns:inkscape="http://www.inkscape.org/namespaces/inkscape"
   version="1.1"
   x="0px"
   y="0px"
   width="497.39746"
   height="497.39392"
   viewBox="0 0 497.39746 497.39392"
   enable-background="new 0 0 500 500"
   xml:space="preserve"
   id="svg2"
   inkscape:version="0.48.4 r9939"
   sodipodi:docname="tonerkartusche@2x.svg"><metadata
   id="metadata40"><rdf:RDF><cc:Work
       rdf:about=""><dc:format>image/svg+xml</dc:format><dc:type
         rdf:resource="http://purl.org/dc/dcmitype/StillImage" /></cc:Work></rdf:RDF></metadata><defs
   id="defs38" /><sodipodi:namedview
   pagecolor="#ffffff"
   bordercolor="#666666"
   borderopacity="1"
   objecttolerance="10"
   gridtolerance="10"
   guidetolerance="10"
   inkscape:pageopacity="0"
   inkscape:pageshadow="2"
   inkscape:window-width="640"
   inkscape:window-height="480"
   id="namedview36"
   showgrid="false"
   inkscape:zoom="0.472"
   inkscape:cx="246.65195"
   inkscape:cy="250.42073"
   inkscape:window-x="1013"
   inkscape:window-y="225"
   inkscape:window-maximized="0"
   inkscape:current-layer="svg2"
   fit-margin-top="0"
   fit-margin-left="0"
   fit-margin-right="0"
   fit-margin-bottom="0" />
<g
   id="Layer_1"
   transform="matrix(1.7682414,0,0,1.7682414,-193.23519,-192.66581)">
	<g
   id="Layer_1_1_">
		<g
   id="bg">
			<path
   d="m 385.533,341.896 c 0,23.922 -19.396,43.316 -43.313,43.316 H 157.638 c -23.922,0 -43.314,-19.396 -43.314,-43.316 V 157.314 C 114.324,133.392 133.716,114 157.638,114 H 342.22 c 23.917,0 43.313,19.392 43.313,43.314 v 184.582 z"
   id="path7"
   inkscape:connector-curvature="0"
   style="fill:#ffffff" />
			<g
   id="g9">
				<g
   id="g11">
					<g
   id="g13">
						<defs
   id="defs15">
							<path
   id="SVGID_1_"
   d="m 385.533,341.896 c 0,23.922 -19.396,43.316 -43.313,43.316 H 157.638 c -23.922,0 -43.314,-19.396 -43.314,-43.316 V 157.314 C 114.324,133.392 133.716,114 157.638,114 H 342.22 c 23.917,0 43.313,19.392 43.313,43.314 v 184.582 z"
   inkscape:connector-curvature="0" />
						</defs>
						<clipPath
   id="SVGID_2_">
							<use
   xlink:href="#SVGID_1_"
   overflow="visible"
   id="use19"
   style="overflow:visible"
   x="0"
   y="0"
   width="500"
   height="500" />
						</clipPath>
						<ellipse
   clip-path="url(#SVGID_2_)"
   cx="250.634"
   cy="376.95099"
   rx="204.146"
   ry="82.195"
   id="ellipse21"
   d="m 454.78,376.95099 c 0,45.39504 -91.39928,82.195 -204.146,82.195 -112.74672,0 -204.145993,-36.79996 -204.145993,-82.195 0,-45.39505 91.399273,-82.195 204.145993,-82.195 112.74672,0 204.146,36.79995 204.146,82.195 z"
   sodipodi:cx="250.634"
   sodipodi:cy="376.95099"
   sodipodi:rx="204.146"
   sodipodi:ry="82.195"
   style="fill:#f5f5f5" />
					</g>
				</g>
			</g>
			<path
   d="M 342.22,390.252 H 157.638 c -26.666,0 -48.357,-21.688 -48.357,-48.355 V 157.314 c 0,-26.661 21.691,-48.355 48.357,-48.355 H 342.22 c 26.663,0 48.356,21.694 48.356,48.355 v 184.581 c 0,26.667 -21.693,48.357 -48.356,48.357 z M 157.638,119.043 c -21.103,0 -38.271,17.168 -38.271,38.271 v 184.581 c 0,21.104 17.168,38.275 38.271,38.275 H 342.22 c 21.101,0 38.271,-17.173 38.271,-38.275 V 157.314 c 0,-21.103 -17.172,-38.271 -38.271,-38.271 H 157.638 z"
   id="path23"
   inkscape:connector-curvature="0"
   style="fill:#28a745" />
		</g>
		<g
   id="Layer_2">
		</g>
	</g>
	<g
   id="Layer_2_1_">
	</g>
</g>
<g
   id="Layer_2_2_"
   transform="matrix(1.7682414,0,0,1.7682414,-193.23519,-192.66581)">
</g>
<g
   id="Layer_3"
   transform="matrix(1.7682414,0,0,1.7682414,-193.23519,-192.66581)">
	<g
   id="tonerkartusche">
		<path
   d="m 348.706,201.497 h -6.566 c -2.697,0 -4.86,2.119 -5.053,4.771 H 165.94 c -0.195,-2.652 -2.345,-4.771 -5.048,-4.771 h -6.56 c -2.833,0 -5.124,2.293 -5.124,5.124 v 54.453 c 0,2.821 2.291,5.115 5.124,5.115 h 6.56 c 2.703,0 4.853,-2.104 5.048,-4.757 h 171.146 c 0.197,2.652 2.355,4.757 5.053,4.757 h 6.566 c 2.817,0 5.11,-2.294 5.11,-5.115 v -54.453 c 10e-4,-2.83 -2.292,-5.124 -5.109,-5.124 z"
   id="path30"
   inkscape:connector-curvature="0"
   style="fill:#28a745" />
		<rect
   x="173.786"
   y="271.05899"
   width="158.965"
   height="22.57"
   id="rect32"
   style="fill:#28a745" />
		<rect
   x="232.45799"
   y="301.14899"
   width="35.102001"
   height="16.295"
   id="rect34"
   style="fill:#28a745" />
	</g>
</g>
</svg>