<svg xmlns="http://www.w3.org/2000/svg" viewBox="0 0 497 497"><defs><style>.cls-1{fill:#fff;}.cls-2{fill:#f5f5f5;}.cls-3{fill:#28a745;}</style></defs><title>velo@2x</title><g id="Ebene_2" data-name="Ebene 2"><g id="svg3988"><path class="cls-1" d="M411.57,497H85.44A85.53,85.53,0,0,1,0,411.57V85.44A85.54,85.54,0,0,1,85.44,0H411.57A85.53,85.53,0,0,1,497,85.44V411.57A85.52,85.52,0,0,1,411.57,497Z"/><path class="cls-2" d="M486.85,413.3V365.14c-63.22-21.93-145.52-35.2-235.53-35.2-92.64,0-177.12,14.05-241,37.15V413.3a76.59,76.59,0,0,0,76.59,76.59H410.27A76.59,76.59,0,0,0,486.85,413.3Z"/><path class="cls-3" d="M411.57,497H85.44A85.53,85.53,0,0,1,0,411.57V85.44A85.54,85.54,0,0,1,85.44,0H411.57A85.53,85.53,0,0,1,497,85.44V411.57A85.52,85.52,0,0,1,411.57,497ZM85.44,17.82A67.69,67.69,0,0,0,17.82,85.44V411.57a67.69,67.69,0,0,0,67.62,67.61H411.57a67.69,67.69,0,0,0,67.61-67.61V85.44a67.69,67.69,0,0,0-67.61-67.62Z"/><path class="cls-3" d="M365,219.38a73.31,73.31,0,0,0-23.21,3.82l-.68.23L322.63,180.2a2.49,2.49,0,0,0-.2-.32,3.17,3.17,0,0,1-.23-.36l-.2-.32,6.79-16.71a6.7,6.7,0,0,0-3.67-8.75,6.44,6.44,0,0,0-2.52-.5,6.68,6.68,0,0,0-6.23,4.18l-7.6,18.7H170.19l5.33-17.07c1.42-4.66,6.21-14.36,12.1-14.66,3.56-.18,7.82-.26,12.65-.26,7.62,0,14.29.22,15.55.26l0,.79.21-.78a6.91,6.91,0,0,0,6.78-6.46,6.73,6.73,0,0,0-6.46-7c-.06,0-7.22-.28-15.92-.28-5.11,0-9.66.09-13.5.29-16.81.84-23.54,21.74-24.25,24.14l-20.42,65.22-.21.67-.69-.14a73.67,73.67,0,1,0,14.13,4.45l-.64-.28,5.83-18.65,93.17,99.53a6.76,6.76,0,0,0,4.89,2.12h34.41l.14.61A73.48,73.48,0,1,0,365,219.38ZM186.68,292.86a60.37,60.37,0,1,1-49.53-59.07l.87.15-17.81,56.93a6.62,6.62,0,0,0,.45,5.12,6.74,6.74,0,0,0,3.93,3.29,7,7,0,0,0,2,.3,6.65,6.65,0,0,0,6.39-4.71l17.55-56.06.26-.85.82.38A60.27,60.27,0,0,1,186.68,292.86Zm74.2.91L165.63,192l-.31-.34.67-2.13H303.28L261.34,292.65Zm30.67-.91c0,.19,0,.34,0,.52l.05,1.24H275l39.24-96.44.7-1.73,13.67,31.88.28.63-.61.35A73.78,73.78,0,0,0,291.55,292.86Zm13.45.63c0-.2,0-.41,0-.63a59.75,59.75,0,0,1,28.5-51l.76-.48,22.82,53.23h-52Zm60,59.45a60.28,60.28,0,0,1-57.8-43.9l-.27-1h60.25a6.71,6.71,0,0,0,6.19-9.36l-27-62.93.82-.26A60.07,60.07,0,1,1,365,352.94Z"/><path class="cls-3" d="M301.2,142.87a7,7,0,0,0,2.56.5h.73l47.06,7,7.55-8.46a6.18,6.18,0,0,0,2.56-4.93,6.45,6.45,0,0,0-6.54-6.36H303.76a6.45,6.45,0,0,0-6.54,6.36A6.36,6.36,0,0,0,301.2,142.87Z"/><path class="cls-3" d="M143.41,183.49a15.08,15.08,0,0,0-15.08-15.07h-16v30.15h16A15.08,15.08,0,0,0,143.41,183.49Z"/><path class="cls-3" d="M365,219.38a73.31,73.31,0,0,0-23.21,3.82l-.68.23L322.63,180.2a2.49,2.49,0,0,0-.2-.32,3.17,3.17,0,0,1-.23-.36l-.2-.32,6.79-16.71a6.7,6.7,0,0,0-3.67-8.75,6.44,6.44,0,0,0-2.52-.5,6.68,6.68,0,0,0-6.23,4.18l-7.6,18.7H170.19l5.33-17.07c1.42-4.66,6.21-14.36,12.1-14.66,3.56-.18,7.82-.26,12.65-.26,7.62,0,14.29.22,15.55.26l0,.79.21-.78a6.91,6.91,0,0,0,6.78-6.46,6.73,6.73,0,0,0-6.46-7c-.06,0-7.22-.28-15.92-.28-5.11,0-9.66.09-13.5.29-16.81.84-23.54,21.74-24.25,24.14l-20.42,65.22-.21.67-.69-.14a73.67,73.67,0,1,0,14.13,4.45l-.64-.28,5.83-18.65,93.17,99.53a6.76,6.76,0,0,0,4.89,2.12h34.41l.14.61A73.48,73.48,0,1,0,365,219.38ZM186.68,292.86a60.37,60.37,0,1,1-49.53-59.07l.87.15-17.81,56.93a6.62,6.62,0,0,0,.45,5.12,6.74,6.74,0,0,0,3.93,3.29,7,7,0,0,0,2,.3,6.65,6.65,0,0,0,6.39-4.71l17.55-56.06.26-.85.82.38A60.27,60.27,0,0,1,186.68,292.86Zm74.2.91L165.63,192l-.31-.34.67-2.13H303.28L261.34,292.65Zm30.67-.91c0,.19,0,.34,0,.52l.05,1.24H275l39.24-96.44.7-1.73,13.67,31.88.28.63-.61.35A73.78,73.78,0,0,0,291.55,292.86Zm13.45.63c0-.2,0-.41,0-.63a59.75,59.75,0,0,1,28.5-51l.76-.48,22.82,53.23h-52Zm60,59.45a60.28,60.28,0,0,1-57.8-43.9l-.27-1h60.25a6.71,6.71,0,0,0,6.19-9.36l-27-62.93.82-.26A60.07,60.07,0,1,1,365,352.94Z"/><path class="cls-3" d="M301.2,142.87a7,7,0,0,0,2.56.5h.73l47.06,7,7.55-8.46a6.18,6.18,0,0,0,2.56-4.93,6.45,6.45,0,0,0-6.54-6.36H303.76a6.45,6.45,0,0,0-6.54,6.36A6.36,6.36,0,0,0,301.2,142.87Z"/><path class="cls-3" d="M143.41,183.49a15.08,15.08,0,0,0-15.08-15.07h-16v30.15h16A15.08,15.08,0,0,0,143.41,183.49Z"/></g></g></svg>